<svg width="170" height="203" viewBox="0 0 170 203" fill="none" xmlns="http://www.w3.org/2000/svg">
<path d="M105.121 115.717C110.33 121.12 112.889 128.792 110.443 136.063C108.327 142.361 101.936 146.599 95.2298 144.954C80.5084 141.347 88.1528 116.978 91.8903 107.735C96.8538 109.313 101.408 111.861 105.121 115.717ZM83.6415 92.0905C78.408 91.5971 73.1241 91.6696 68.0634 92.23C66.294 92.4278 64.5528 92.6766 62.852 92.9904C36.4104 97.8685 13.097 115.399 7.45723 142.586C5.59159 151.579 19.7904 153.253 21.6461 144.314C25.0996 127.653 38.7406 115.661 54.2083 110.017C61.1169 107.497 69.2932 105.745 77.3734 105.683C71.1322 123.235 67.8339 150.567 89.4745 158.09C99.7596 161.663 111.76 158.323 118.753 150.055C125.864 141.644 127.305 129.41 123.748 119.158C119.788 107.736 111.29 100.434 101.079 96.2479C100.169 95.8754 99.2675 95.4894 98.3329 95.1663C105.504 83.769 115.513 74.1737 127.391 67.749C135.404 63.4154 129.788 50.2551 121.687 54.6373C105.681 63.2947 92.4489 76.294 83.6415 92.0905Z" fill="#383A5C"/>
<path d="M38 15.9656C38 24.3847 45.163 31.2065 54 31.2065C62.8364 31.2065 70 24.3847 70 15.9656C70 7.55207 62.8364 0.724683 54 0.724683C45.163 0.724683 38 7.55207 38 15.9656Z" fill="#EAB8B8"/>
</svg>
