<svg width="402" height="314" viewBox="0 0 402 314" fill="none" xmlns="http://www.w3.org/2000/svg">
<path d="M364.83 226.25C365.332 226.25 365.424 226.962 364.918 226.962C364.417 226.962 364.325 226.25 364.83 226.25Z" fill="#AF5A5A"/>
<path d="M174.882 220.963C173.059 222.055 171.3 223.206 169.549 224.354C173.677 225.137 177.805 225.915 181.936 226.683C184.408 224.463 186.89 222.248 189.415 220.081C186.236 219.49 183.091 218.814 180.079 217.899C178.339 218.92 176.6 219.937 174.882 220.963ZM159.667 230.239C164.694 231.212 169.721 232.19 174.749 233.166C174.801 233.069 174.871 232.973 174.977 232.882C176.435 231.602 177.888 230.307 179.339 229.009C174.863 228.231 170.387 227.461 165.908 226.706C163.895 227.975 161.844 229.184 159.667 230.239ZM191.575 236.435C192.881 234.894 194.189 233.353 195.494 231.815C191.002 231.037 186.506 230.254 182.014 229.473C180.441 230.87 178.874 232.263 177.323 233.667C182.075 234.59 186.824 235.512 191.575 236.435ZM205.646 239.149C206.119 238.506 206.662 237.887 207.141 237.243C207.892 236.227 208.658 235.221 209.429 234.217C207.508 233.883 205.588 233.543 203.661 233.216C201.746 232.892 199.834 232.56 197.919 232.231C196.572 233.779 195.224 235.33 193.877 236.878C197.799 237.639 201.724 238.394 205.646 239.149ZM211.556 231.483C213.203 229.382 214.812 227.253 216.491 225.175C212.931 224.473 209.368 223.773 205.808 223.071C204.274 224.914 202.701 226.729 201.126 228.541C200.708 229.022 200.291 229.501 199.873 229.98C203.628 230.664 207.386 231.338 211.141 232.018C211.28 231.838 211.416 231.66 211.556 231.483ZM201.326 222.19C198.253 221.584 195.082 221.079 191.915 220.53C189.518 222.777 187.063 224.982 184.597 227.175C188.875 227.968 193.153 228.751 197.432 229.531C198.08 228.769 198.729 228.003 199.378 227.24C200.7 225.682 202.027 224.131 203.375 222.592C202.693 222.458 202.008 222.324 201.326 222.19ZM118.905 240.026C125.908 235.596 133.908 232.182 141.34 228.378C156.973 220.377 172.444 212.108 188.254 204.396C188.346 204.353 188.435 204.322 188.527 204.297C188.914 203.871 189.507 203.598 190.278 203.676C238.467 208.649 286.64 213.748 334.78 219.098C341.407 219.833 348.033 220.575 354.659 221.315C358.145 221.703 361.618 222.187 365.102 222.598C368.567 223.006 372.143 223.206 375.509 224.08C375.636 224.113 375.729 224.194 375.792 224.288C374.695 224.407 373.613 224.62 372.558 224.934C367.712 224.843 362.755 224.057 357.979 223.69C351.848 223.216 345.729 222.57 339.608 221.997C327.54 220.872 315.469 219.759 303.403 218.601C279.106 216.267 254.804 213.917 230.523 211.446C218.57 210.23 206.615 209.014 194.662 207.797C194.67 208.218 194.476 208.659 193.977 209.029C190.818 211.378 187.439 213.512 184.009 215.572C186.554 216.036 189.087 216.667 191.584 217.177C191.929 217.245 192.271 217.316 192.616 217.387C194.303 215.996 196.009 214.632 197.757 213.317C198.228 212.959 198.885 213.603 198.49 214.024C197.27 215.309 196.018 216.571 194.746 217.818C197.279 218.335 199.815 218.852 202.35 219.364C203.428 219.582 204.508 219.8 205.588 220.018C206.657 218.743 207.767 217.471 209.153 216.528C209.73 216.135 210.473 216.733 210.208 217.311C209.677 218.456 208.881 219.503 208.023 220.512C211.55 221.224 215.077 221.939 218.606 222.651C219.208 221.961 219.817 221.277 220.452 220.608C220.775 220.266 221.476 220.613 221.22 221.041C220.833 221.683 220.432 222.311 220.02 222.937C221.479 223.234 222.938 223.528 224.396 223.824C231.581 225.276 238.737 226.843 245.9 228.371C253.008 229.889 260.706 230.849 267.466 233.384C268.07 233.609 267.726 234.337 267.159 234.314C259.772 234.03 252.222 231.937 244.983 230.593C237.612 229.225 230.233 227.882 222.882 226.435C221.34 226.13 219.8 225.826 218.258 225.522C216.661 227.773 214.971 229.97 213.32 232.195C213.273 232.258 213.226 232.322 213.178 232.385C242.219 237.611 271.288 242.697 300.286 248.116C312.854 250.463 325.562 252.47 337.912 255.663C338.389 255.785 338.305 256.423 337.789 256.37C326.44 255.212 315.251 253.015 304.036 251.088C292.814 249.162 281.592 247.234 270.37 245.308C250.719 241.934 231.174 238.052 211.544 234.585C210.787 235.599 210.027 236.607 209.245 237.606C208.758 238.229 208.304 238.911 207.814 239.567C216.24 241.189 224.669 242.801 233.103 244.385C258.357 249.127 283.685 253.646 308.841 258.806C323.188 261.75 337.791 264.019 351.978 267.536C351.91 267.369 351.887 267.171 351.933 266.946C352.636 263.532 354.534 260.116 355.787 256.824C357.09 253.4 358.446 249.989 359.78 246.575C361.114 243.161 362.451 239.747 363.832 236.349C365.263 232.824 366.48 229.149 368.525 225.872C368.931 225.221 370.133 225.446 369.979 226.267C369.324 229.772 367.839 233.1 366.572 236.445C365.343 239.697 364.085 242.933 362.813 246.169C362.471 246.418 362.196 246.778 362.045 247.262C361.635 248.572 361.237 249.887 360.842 251.203C360.092 253.118 359.341 255.032 358.576 256.943C357.866 258.717 357.101 260.476 356.411 262.257C355.725 264.029 355.281 265.94 354.292 267.59C354.025 268.033 353.523 268.223 353.048 268.198C353.291 268.773 352.91 269.521 352.015 269.409C339.087 267.787 326.337 264.972 313.505 262.807C300.656 260.638 287.854 258.268 275.042 255.924C249.762 251.301 224.538 246.42 199.236 241.899C196.38 241.39 193.524 240.88 190.668 240.373C190.323 240.492 189.95 240.404 189.671 240.196C178.303 238.171 166.935 236.151 155.573 234.101C152.814 233.604 153.065 230.074 155.275 229.595C160.449 224.911 166.757 221.994 172.7 218.228C178.501 214.551 184.26 210.613 190.389 207.364C190.142 207.338 189.897 207.313 189.652 207.288C189.61 207.285 189.579 207.272 189.543 207.267C176.861 214.298 163.934 220.95 151.072 227.694C144.433 231.176 137.819 234.699 131.197 238.206C128.433 239.671 125.605 241.063 122.921 242.644C120.681 243.964 117.939 245.693 117.09 248.131C115.623 252.351 120.642 255.273 124.689 256.978C124.681 257.004 124.672 257.031 124.664 257.057C132.241 258.963 139.678 261.342 147.124 263.621C155.998 266.338 164.898 268.978 173.827 271.546C191.759 276.698 209.763 281.663 227.867 286.3C245.878 290.91 263.982 295.211 282.173 299.193C291.268 301.182 300.383 303.095 309.517 304.93C317.512 306.537 326.705 309.462 334.954 308.045C340.846 307.034 344.194 303.03 346.172 298.366C350.995 292.434 354.156 285.249 356.837 278.175C357.328 276.827 357.831 275.479 358.32 274.131C358.43 273.829 358.545 273.527 358.663 273.228C358.742 273.01 358.822 272.792 358.9 272.575C361.79 264.599 364.121 256.489 366.644 248.415C366.702 248.232 366.732 248.057 366.742 247.888C367.638 245.83 368.522 243.764 369.412 241.704C370.19 239.899 370.905 238.024 371.668 236.161C372.396 234.253 373.187 232.365 374.261 230.631C374.284 230.593 374.311 230.563 374.337 230.53C374.651 229.985 374.98 229.45 375.332 228.928C375.767 228.287 376.979 228.475 376.826 229.336C376.73 229.881 376.609 230.421 376.473 230.961C376.48 231.047 376.479 231.136 376.462 231.232C375.951 234.192 374.658 237.028 373.618 239.859C372.496 242.913 371.382 245.969 370.272 249.026C368.049 255.143 365.953 261.294 363.652 267.389C361.997 271.771 360.342 276.156 358.687 280.537C358.549 280.95 358.417 281.369 358.274 281.782C357.473 284.101 356.787 286.686 355.54 288.873L353.487 294.311C352.697 296.402 352.002 298.866 350.887 300.977C349.36 304.494 347.151 307.713 343.774 310.06C337.166 314.649 328.47 313.887 320.82 312.467C311.413 310.726 302.054 308.722 292.71 306.725C255.241 298.714 217.966 289.582 181.334 278.812C170.982 275.768 160.667 272.623 150.392 269.376C141.374 266.525 132.257 263.74 123.548 260.154C119.523 259.008 115.503 257.363 113.338 253.99C109.855 248.562 113.986 243.141 118.905 240.026Z" fill="#AF5A5A"/>
<path d="M243.938 277.237C246.96 277.972 250.523 278.581 253.231 280C253.289 280.03 253.338 280.066 253.389 280.099C257.58 274.561 261.507 268.867 265.741 263.354C266.168 262.799 267.211 263.382 266.857 263.988C263.181 270.266 259.146 276.358 255.457 282.633C254.623 284.052 252.715 283.487 252.369 282.357C249.248 282.25 245.928 281.077 242.941 280.261C239.597 279.349 236.271 278.396 232.914 277.521C226.434 275.833 219.865 274.404 213.348 272.838C210.863 272.24 211.547 269.313 213.755 269.343C214.373 268.499 215.219 267.805 216.004 267.022C217.298 265.727 218.579 264.421 219.82 263.083C222.303 260.41 225.045 257.928 227.65 255.354C229.281 253.742 232.193 256.023 230.503 257.48C227.731 259.867 225.081 262.412 222.197 264.687C220.75 265.83 219.322 266.986 217.922 268.177C217.273 268.73 216.666 269.335 216.012 269.87C222.139 271.576 228.243 273.362 234.409 274.936C237.576 275.745 240.761 276.467 243.938 277.237Z" fill="#AF5A5A"/>
<path d="M312.417 301.621C318.761 302.741 325.28 303.511 331.519 305.049C331.925 305.151 331.848 305.686 331.416 305.645C325.663 305.123 319.948 303.82 314.291 302.763C308.771 301.732 303.245 300.739 297.719 299.738C286.495 297.7 275.343 295.424 264.228 292.943C242.325 288.054 220.224 283.176 198.771 276.804C186.445 273.145 174.119 269.579 161.983 265.415C161.919 265.392 161.953 265.288 162.019 265.309C183.915 271.252 205.718 277.494 227.756 283.001C249.503 288.437 271.404 293.275 293.385 297.86C299.714 299.177 306.041 300.495 312.417 301.621Z" fill="#AF5A5A"/>
<path d="M19.7989 8.62884C20.8204 6.90803 21.7223 4.97687 23.025 3.34476C21.1239 3.3777 19.245 3.46892 17.3995 3.62858C15.1225 3.82119 12.7509 4.46999 10.3375 4.63979C11.2505 6.685 11.6764 8.91014 12.5032 10.854C13.2074 12.5013 14.0007 14.1461 14.8608 15.7832C16.4725 13.3782 18.3264 11.1099 19.7989 8.62884ZM17.0153 19.5999C20.4168 25.2059 24.7369 30.6192 29.9422 35.6144C35.8545 41.2887 42.7855 46.3574 50.2928 50.6201C54.2148 52.8478 58.3289 54.8677 62.5265 56.5479C64.5697 57.3665 66.6379 58.1243 68.7144 58.806C69.5161 59.0696 70.3456 59.2698 71.1305 59.5359C73.0234 57.1334 76.0185 55.3188 78.5237 53.4003C80.0936 52.1965 81.6691 50.9952 83.2418 49.7914C83.2696 49.7686 83.2975 49.7458 83.3253 49.723C82.7352 49.4772 82.1674 49.2009 81.6468 48.9171C77.2321 46.5069 72.9259 43.8738 68.5836 41.3572C64.8536 39.1979 60.6699 37.173 57.2127 34.7045C55.1529 33.2346 53.8084 31.1565 55.2976 29.7727C57.1292 28.0697 60.6059 29.1696 63.2447 30.6876C67.498 33.1333 71.5926 35.8957 75.7373 38.4832C77.7109 39.7149 79.6816 40.9441 81.6524 42.1757C83.3699 43.2452 85.2682 44.2767 86.7881 45.549C86.9523 44.9204 87.2112 44.3071 87.3698 43.6989C87.8402 41.8843 88.3079 40.0697 88.7811 38.2552C89.5354 35.3635 89.9669 32.1221 91.4672 29.5117C90.8548 28.9947 90.287 28.4067 89.6691 27.8745C88.0629 26.4933 86.3928 25.1501 84.6698 23.8576C81.1374 21.1991 77.3045 18.7585 73.3602 16.5663C65.8056 12.372 57.7249 9.00642 49.5051 6.73566C42.2678 4.73861 35.0194 3.64886 27.9992 3.38782C27.4564 3.36755 26.9164 3.36247 26.3792 3.35233C25.5191 5.83851 23.5122 7.9319 22.0035 10.0354C20.0327 12.7826 18.5658 15.801 16.5811 18.5406C16.5477 18.5862 16.5059 18.6217 16.467 18.6597C16.6507 18.974 16.826 19.2882 17.0153 19.5999ZM60.6115 58.8669C56.7006 57.141 52.8732 55.258 49.1599 53.1595C48.8899 53.0075 48.6254 52.8529 48.3554 52.6983C50.4403 54.2062 52.6922 55.5494 55.0666 56.6671C56.8675 57.5161 58.7298 58.2535 60.6115 58.8669ZM45.6248 64.6603C47.718 69.8582 51.8432 74.9447 57.1515 79.0959C59.5509 80.9713 62.4096 82.9886 65.324 84.2127C67.2391 85.0161 68.166 84.7728 68.411 83.275C68.6309 81.9039 68.5947 80.4264 68.681 79.0173C69.0011 73.7941 69.2294 68.5505 69.4604 63.3045C64.6643 63.4008 58.5293 61.3606 54.0645 59.2825C51.164 57.9317 48.3638 56.3072 45.8419 54.447C45.2991 54.0466 44.6394 53.5549 43.9964 53.0176C43.8962 56.8191 43.9602 60.5319 45.6248 64.6603ZM86.596 47.6423C86.6238 47.5891 86.6489 47.5359 86.6684 47.4826C84.422 46.6691 82.4374 45.2372 80.436 43.9751C77.9141 42.3836 75.3894 40.792 72.8647 39.2005C70.4792 37.6976 68.0937 36.1947 65.7026 34.6969C64.4194 33.8936 63.1528 33.0446 61.814 32.3096C60.7172 31.709 55.9546 30.0743 57.6247 32.6923C58.0728 33.3968 59.7569 34.1951 60.5057 34.6234C61.8334 35.3837 63.1612 36.1415 64.4889 36.8993C66.9969 38.3312 69.5021 39.7656 72.0101 41.1975C74.6656 42.7156 77.3212 44.2336 79.9767 45.7491C81.0317 46.3523 82.0811 47.0087 83.175 47.5511C83.7122 47.8172 84.3859 48.1999 84.9982 48.3418C85.4603 48.0149 85.978 47.7563 86.596 47.6423ZM74.5265 14.0675C74.7965 14.217 75.0693 14.364 75.3393 14.5135C79.0665 16.5942 82.6322 18.8599 86.081 21.2675C84.6336 20.013 83.0748 18.8295 81.4325 17.7448C79.2697 16.318 76.9398 15.0863 74.5265 14.0675ZM94.4122 26.473C99.4449 23.9438 104.483 21.4171 109.455 18.827C110.796 18.1275 112.26 17.4964 113.505 16.7057C114.863 15.839 114.682 14.9773 113.034 13.7811C110.523 11.9589 107.261 10.5397 104.344 9.42715C97.8889 6.96885 91.0497 5.8892 85.0149 6.50757C80.2244 6.99923 76.5585 8.60601 72.8758 10.3826C73.6914 10.6639 74.4708 10.9832 75.1082 11.2442C78.0644 12.4633 80.9147 14.0117 83.5424 15.7655C87.5897 18.4646 92.3468 22.5347 94.4122 26.473ZM9.15174 11.3963C8.21368 9.16609 6.872 6.40117 6.67715 4.06452C6.22899 3.65903 6.0286 3.12428 6.46284 2.79735C6.54634 2.73399 6.64097 2.67568 6.73005 2.61485C6.74953 2.51601 6.76344 2.41213 6.78849 2.31583C6.91653 1.8115 7.53727 1.73547 8.13852 1.92301C10.5157 1.04106 13.8198 0.896576 16.4252 0.663417C19.9158 0.349161 23.5233 0.283258 27.2087 0.450524C34.6464 0.785055 42.4098 2.05225 50.0506 4.14307C56.1021 5.79799 62.1146 8.01806 67.9016 10.7146C67.9016 10.7121 67.8988 10.7095 67.896 10.707C67.7596 10.5144 67.793 10.2609 67.9378 10.1418C68.4583 9.70844 69.2488 9.61467 70.1451 9.71098C73.2822 5.97791 79.5647 4.13295 85.6468 3.73506C92.7282 3.27127 100.569 4.71834 107.924 7.87611C113.51 10.2736 122.44 15.4588 116.784 19.3009C113.738 21.3689 110.061 22.9706 106.763 24.8131C103.492 26.6403 100.227 28.4726 96.962 30.305C98.6043 31.2376 99.7873 32.8241 100.158 34.2433C100.881 37.0235 99.8764 39.8746 99.4254 42.3785C99.1443 43.9498 98.8604 45.5236 98.5764 47.0974C98.3426 48.3874 98.4595 49.9055 97.2932 50.7164C96.7922 51.0662 95.7511 50.9192 95.3586 50.1994C94.4595 48.542 95.1721 47.0518 95.4199 45.5641C95.701 43.8738 95.9627 42.1732 96.2661 40.4904C96.55 38.8989 97.0427 37.3504 97.1986 35.7208C97.2849 34.8363 97.3711 33.5362 96.3329 32.634C95.8402 32.2082 95.303 32.008 94.8326 31.9877C94.6321 34.6995 93.6996 37.287 93.0873 39.8112C92.6475 41.6359 92.2021 43.4607 91.7595 45.2854C91.4032 46.7604 91.5313 48.6256 89.7581 49.2389C89.9502 50.9597 88.0574 51.6972 86.7686 52.6552C85.1736 53.8387 83.5786 55.0248 81.9836 56.2058C79.7735 57.843 77.6468 59.7716 75.072 61.1604C75.3031 61.5355 75.7373 61.8802 76.3803 62.0905C77.7303 62.529 78.969 61.8726 79.8013 61.4037C81.3323 60.5395 82.635 59.4396 84.0713 58.4892C85.5911 57.4831 87.1444 56.5023 88.6809 55.5089C90.0337 54.6371 91.1777 53.3826 93.2097 53.3674C94.0949 53.3623 94.7073 54.1429 94.5876 54.7106C94.312 56.0284 92.7672 56.6189 91.6036 57.3893C90.184 58.3321 88.7644 59.2724 87.3448 60.2151C85.0845 61.7104 82.7324 63.8164 79.6761 64.4804C78.1145 64.82 76.024 64.5742 74.3678 63.6542C74.0338 67.144 73.6942 70.6312 73.363 74.121C73.0289 77.6412 73.0985 81.3616 72.4305 84.7778C71.189 91.1187 62.0895 86.1819 57.2294 82.7124C50.8328 78.1455 45.8975 72.4078 43.1808 66.4268C40.8454 61.2897 39.8461 55.3365 42.1119 51.0941C41.6164 50.4073 41.352 49.723 41.5441 49.1021C41.597 48.9298 41.8335 48.7904 42.084 48.8132C42.0868 48.8132 42.0896 48.8132 42.0924 48.8132C36.851 45.3158 31.9742 41.4155 27.6374 37.2313C22.1593 31.9472 17.4328 26.1917 13.7725 20.2817C11.9604 17.3545 10.4099 14.3843 9.15174 11.3963Z" fill="#AF5A5A"/>
<path d="M24.993 17.9121C25.4885 20.9052 27.4203 24.0604 30.6937 26.4224C37.6694 31.4581 46.3234 29.2431 48.4807 24.3417C50.7131 19.2756 46.4877 12.3492 38.7188 9.39673C34.8496 7.92682 31.0973 7.88629 28.4168 9.46772C25.8837 10.9604 25.1768 13.4517 25.1489 16.1837C25.1489 16.3383 25.0347 16.4295 24.8817 16.4675C24.8789 16.9313 24.9095 17.4103 24.993 17.9121ZM24.8232 9.27512C26.4432 7.46814 29.1378 6.27444 32.0521 6.11478C38.9971 5.73209 47.1585 10.1418 50.4904 15.8745C53.8669 21.6832 52.2636 27.7934 46.9247 30.4672C41.2295 33.3158 32.5921 31.7039 26.524 26.3996C23.2032 23.4978 21.2213 20.0333 21.0376 16.6982C20.8761 13.7913 22.0703 10.7222 24.8232 9.27512Z" fill="#AF5A5A"/>
<path d="M168.756 92.4241C169.017 92.5989 169.201 92.7992 169.321 93.0095C173.059 95.113 177.209 96.8896 181.465 96.4385C186.565 95.8987 190.548 92.2872 188.725 87.4796C186.827 82.4794 180.945 80.827 175.759 82.4996C171.35 83.9239 168.23 87.0412 166.25 90.7362C167.086 91.2988 167.915 91.8665 168.756 92.4241ZM86.3511 69.0778C91.2168 71.858 95.4979 75.8394 99.6621 79.5877C99.6899 77.8314 99.74 76.0751 99.6509 74.3214C99.5897 73.0795 101.082 72.5575 102.039 73.4724C106.415 77.6312 111.968 80.6851 117.978 82.3805C115.949 79.1036 115.453 75.2869 116.5 71.5944C116.72 70.8215 117.956 70.4768 118.718 70.8062C130.415 75.8445 142.006 81.1058 153.677 86.2023C143.464 78.9541 133.12 71.8504 122.952 64.5566C122.29 64.0801 122.089 62.8915 122.768 62.3416C126 59.716 130.036 58.3095 134.201 58.4311C129.869 54.2571 124.38 51.1069 118.304 49.4621C116.97 49.1022 116.837 47.6171 118.106 47.0798C119.899 46.317 121.633 45.4376 123.378 44.5785C117.803 42.9109 111.943 41.2585 107.03 38.5518C106.337 38.1666 106.624 37.2162 107.47 37.3049C114.529 38.0424 121.683 40.8631 128.394 42.8957C129.975 43.3747 129.363 45.2349 128.224 45.7392C126.284 46.5983 124.274 47.3206 122.287 48.0784C129.115 50.4201 134.933 54.3154 139.461 59.6983C140.235 60.6182 139.169 62.2579 137.875 61.9031C134.1 60.8615 130.072 61.3329 126.863 63.3224C138.71 71.4956 150.367 79.9121 162.259 88.0346C162.757 87.1831 163.3 86.3518 163.901 85.5484C167.773 80.3835 174.515 76.9216 181.477 77.4665C187.745 77.9581 193.053 82.1626 194.381 87.7812C195.951 94.4287 190.467 99.9865 183.511 101.16C176.747 102.3 170.807 99.4847 166.145 95.4095C165.632 95.1687 165.12 94.9356 164.611 94.6974C158.376 114.853 172.313 137.37 192.967 145.247C196.477 146.585 200.185 147.541 203.973 148.106C206.069 140.31 208.143 132.51 210.167 124.699C211.767 118.535 213.323 112.364 214.966 106.211C216.093 101.984 217.44 97.6017 220.449 94.1297C223.737 90.3358 228.65 88.8228 233.824 88.7366C240.304 88.6302 246.878 89.4209 253.337 89.8441C281.86 91.717 310.376 93.6558 338.888 95.6579C352.97 96.6463 367.055 97.5815 381.144 98.4837C386.334 98.8157 392.848 98.4051 397.332 101.259C401.354 103.818 402.102 108.297 401.825 112.461C401.367 119.351 399.751 126.285 398.661 133.113C397.524 140.242 396.386 147.373 395.249 154.502C394.111 161.632 392.974 168.761 391.837 175.89C390.676 183.168 389.766 190.523 388.059 197.713C387.798 198.815 386.093 198.549 386.178 197.442C387.102 185.345 389.57 173.251 391.401 161.241C393.239 149.188 395.076 137.135 396.913 125.081C397.704 119.896 399.417 114.108 398.677 108.852C397.801 102.632 391.64 101.968 385.945 101.598C372.557 100.727 359.169 99.8573 345.775 99.0742C318.979 97.5054 292.184 95.9265 265.397 94.2361C258.702 93.8129 252.007 93.3922 245.313 92.969C239.675 92.6141 232.572 91.2431 227.288 93.671C222.846 95.7111 220.908 100.369 219.678 104.477C218.041 109.952 216.792 115.542 215.375 121.067C213.028 130.231 210.732 139.406 208.463 148.587C209.958 148.686 211.458 148.717 212.953 148.694C213.095 148.681 213.234 148.668 213.373 148.658C215.442 140.262 217.512 131.868 219.592 123.475C220.925 118.094 221.961 112.552 223.728 107.273C225.089 103.208 227.439 99.3479 231.781 97.4066C236.416 95.3386 241.919 95.7441 246.898 96.1673C253.555 96.7324 260.207 97.3432 266.86 97.9438C293.998 100.392 321.141 102.792 348.282 105.205C355.111 105.813 361.94 106.419 368.77 107.027C374.118 107.501 379.906 107.516 385.055 109.059C396.639 112.531 393.576 123.992 392.052 132.411C389.602 145.954 386.995 159.472 384.524 173.011C383.259 179.937 382.021 186.868 380.703 193.787C379.385 200.706 378.276 207.693 376.263 214.475C376.131 214.918 375.455 214.827 375.485 214.363C376.259 202.784 378.9 191.207 380.93 179.765C382.969 168.264 384.855 156.74 386.913 145.242C387.927 139.573 388.94 133.901 389.957 128.232C390.753 123.786 392.3 118.006 388.921 114.108C385.569 110.243 379.057 110.213 374.158 109.784C367.677 109.219 361.196 108.654 354.715 108.086C329.493 105.886 304.273 103.656 279.046 101.487C272.564 100.929 266.082 100.372 259.6 99.8142C253.467 99.2871 247.228 98.362 241.061 98.357C235.386 98.3519 230.517 100.113 228.121 105.068C225.852 109.759 225.117 115.228 223.892 120.2C221.588 129.555 219.272 138.909 216.956 148.263C218.403 148.065 219.84 147.827 221.248 147.541C223.742 147.031 226.052 146.129 228.53 145.549C231.105 144.946 233.713 144.482 236.293 143.894C241.234 142.766 246.128 141.684 251.226 141.319C259.356 140.739 267.462 141.859 274.436 145.883C280.535 149.401 285.503 154.976 286.103 161.715C286.758 169.083 279.633 182.324 288.853 187.312C290.198 185.214 292.219 183.49 294.674 182.611C295.383 182.357 295.982 183.295 295.324 183.693C291.131 186.222 289.187 189.948 289.773 194.454C289.842 194.978 289.485 195.505 288.949 195.695C288.841 195.736 288.736 195.772 288.62 195.772C287.892 195.761 287.288 195.422 287.174 194.72C286.957 193.389 287.047 192.023 287.382 190.705C285.324 189.915 283.223 189.937 281.793 191.869C280.915 193.055 278.801 191.82 279.471 190.553C280.313 188.964 282.509 187.864 284.637 187.692C280.804 183.911 280.641 177.849 281.579 172.816C282.386 168.492 283.798 164.026 282.773 159.629C281.907 155.917 279.462 152.581 276.285 150.169C269.359 144.905 260.364 143.473 251.589 144.264C246.206 144.748 240.747 145.762 235.539 147.082C233.343 147.64 231.183 148.288 228.972 148.808C224.794 150.212 220.485 151.152 216.129 151.608C214.4 158.583 212.672 165.56 210.946 172.534C211.155 172.463 211.369 172.405 211.586 172.354C211.158 173.34 210.935 174.359 210.62 175.378C210.506 175.307 210.398 175.223 210.306 175.127C208.48 182.512 206.654 189.899 204.839 197.287C204.363 199.221 201.003 198.749 201.485 196.806C205.204 181.83 208.892 166.85 212.583 151.869C210.941 151.94 209.295 151.945 207.653 151.882C203.881 167.207 200.185 182.547 196.477 197.885C199.625 198.232 202.774 198.58 205.922 198.927C206.445 192.938 214.061 190.277 219.998 191.382C219.998 191.243 220.001 191.134 220.012 191.08C220.126 190.551 220.321 190.024 220.519 189.517C221.067 188.125 221.883 186.848 222.982 185.758C224.867 183.886 227.291 183.009 230.019 183.004C229.176 180.748 229.496 178.128 231.171 176.184C233.087 173.964 236.146 173.381 239.041 173.827C237.318 167.41 243.522 160.202 251.069 160.679C258.618 161.155 262.663 169.602 258.026 174.595C260.013 175.553 262.025 176.47 264.04 177.382C264.058 174.318 265.894 171.287 269.15 170.048C273.263 168.484 279.092 170.301 280.06 174.506C280.29 175.507 278.707 176.29 277.903 175.573C275.96 173.842 273.701 172.114 270.776 172.995C267.804 173.89 266.802 177.154 267.921 179.59C268.466 180.778 266.963 182.18 265.654 181.544C261.968 179.76 258.326 177.892 254.562 176.247C253.438 175.755 253.309 174.394 254.279 173.703C259.329 170.111 255.535 163.347 249.561 163.717C246.621 163.897 244.133 165.542 243.008 168.021C241.738 170.816 242.567 173.201 243.317 175.961C243.716 177.436 241.446 177.844 240.583 176.926C238.567 174.78 234.662 175.677 233.1 177.826C231.695 179.765 232.176 182.215 233.735 183.916C234.826 182.778 236.218 181.863 237.763 181.283C238.545 180.989 239.419 181.962 238.773 182.552C236.438 184.691 235.322 187.307 234.414 190.13C233.969 191.504 231.583 191.755 231.419 190.069C231.28 188.648 231.581 187.289 232.199 186.065C231.5 185.581 230.709 185.249 229.863 185.023C229.802 184.849 229.716 184.681 229.607 184.529H229.646C229.638 184.517 229.629 184.501 229.621 184.491C226.256 185.53 222.317 189.182 223.391 192.586C225.579 194.152 223.433 197.857 220.917 196.446C218.712 195.209 216.174 194.74 213.735 195.759C211.879 196.534 211.108 197.966 210.147 199.393C252.6 204.084 295.049 208.823 337.447 213.902C344.081 214.695 350.702 215.658 357.311 216.611C359.163 216.877 361.016 217.128 362.871 217.372C362.115 217.108 361.545 216.5 361.733 215.643C362.896 210.324 365.249 204.107 361.451 199.175C359.926 197.193 357.316 195.533 354.548 196.027C352.141 196.458 350.092 198.248 349.895 200.419C349.965 200.916 349.993 201.415 349.978 201.915C349.927 203.646 347.335 203.532 346.866 202.072C346.551 201.091 346.52 200.11 346.713 199.178C345.379 194 337.533 192.272 333.998 197.571C332.876 199.254 329.937 197.421 331.228 195.799C335.77 190.095 328.61 181.866 321.86 186.501C321.799 186.544 321.738 186.572 321.677 186.605C322.334 188.275 322.49 190.102 321.964 191.904C321.445 193.678 318.644 192.923 318.662 191.268C318.703 187.603 317.77 184.256 314.456 181.843C313.759 181.336 314.299 180.19 315.211 180.517C316.986 181.151 318.554 182.22 319.762 183.554C323.58 179.673 324.182 173.031 319.373 169.46C314.088 165.534 305.652 168.114 303.174 173.611C302.632 174.815 300.552 174.151 301.073 172.927C303.331 167.618 296.403 164.546 292.304 168.208C291.552 168.88 290.301 167.831 290.942 167.07C295.004 162.265 302.059 164.896 303.41 169.627C307.739 165.354 315.514 163.928 320.922 167.453C325.903 170.697 327.611 177.55 325.14 182.623C328.055 182.661 330.957 183.627 333.004 185.543C335.099 187.502 335.97 190.13 335.765 192.72C338.12 191.823 340.789 191.618 343.186 192.419C345.303 193.126 347.029 194.494 348.213 196.187C348.83 195.452 349.595 194.803 350.462 194.284C353.665 192.358 357.511 192.467 360.717 194.322C368.798 198.998 367.825 209.158 365.546 216.378C365.319 217.1 364.657 217.455 363.945 217.511C365.22 217.678 366.495 217.843 367.771 218.008C370.985 218.421 374.273 218.613 377.341 219.615C378.113 219.865 377.852 220.942 377.097 221.013C371.527 221.556 365.531 220.281 359.961 219.835C353.804 219.341 347.645 218.862 341.488 218.357C329.372 217.367 317.285 215.965 305.194 214.736C281.36 212.313 257.542 209.753 233.718 207.247C220.669 205.873 207.628 204.436 194.582 203.022C192.63 204.462 188.892 203.337 189.641 200.599C194.117 184.245 198.637 167.896 203.055 151.525C199.041 151.051 195.058 150.164 191.172 148.851C177.836 144.337 167.617 134.735 162.273 122.806C158.209 113.735 156.611 102.272 160.113 92.6167C146.593 86.4279 132.881 80.571 119.322 74.4506C118.88 77.8567 120.274 81.273 123.008 83.8479C123.946 84.7324 122.855 86.2758 121.613 86.0477C114.345 84.7045 107.924 81.7013 102.532 77.2384C102.716 79.1467 102.944 81.0551 103.005 82.9685C103.041 84.0912 101.53 85.366 100.341 84.3066C95.303 79.8056 89.3044 75.2819 85.3518 69.9547C84.8786 69.3161 85.6636 68.685 86.3511 69.0778Z" fill="#AF5A5A"/>
<path d="M156.892 131.944C158.526 138.232 163.653 143.919 170.559 145.779C172.616 146.334 171.792 148.952 169.71 148.357C161.78 146.083 155.776 139.738 155.328 132.104C155.272 131.161 156.664 131.063 156.892 131.944Z" fill="#AF5A5A"/>
<path d="M159.787 153.687C159.993 154.026 159.96 154.371 159.62 154.635C157.577 156.216 153.683 153.307 152.338 151.913C150.2 149.695 149.19 146.887 149.418 143.957C149.521 142.655 151.623 143.017 151.587 144.269C151.514 146.705 152.681 149.057 154.637 150.704C155.445 151.383 156.369 151.989 157.374 152.402C158.314 152.79 159.253 152.812 159.787 153.687Z" fill="#AF5A5A"/>
<path d="M321.474 150.222C320.693 149.999 320.596 149.008 321.033 148.504C322.075 147.302 321.931 145.232 320.208 144.548C318.763 143.972 316.892 144.674 315.934 145.708C316.085 146.078 316.212 146.464 316.303 146.864C316.664 148.458 313.904 148.727 313.545 147.145C312.749 143.635 308.113 142.236 305.314 144.824C302.533 147.396 304.301 151.155 307.78 152.163C308.906 152.49 308.778 153.874 308.034 154.439C306.356 155.711 305.913 158.127 307.428 159.665C308.748 161.006 311.283 161.12 313.119 160.423C312.831 159.384 314.433 158.203 315.405 159.12C318.045 161.606 323.178 161.89 325.414 158.73C327.682 155.526 325.155 151.271 321.474 150.222ZM327.719 160.035C324.778 164.422 317.786 164.756 313.924 161.376C311.61 163.558 307.77 163.639 305.344 161.211C303.254 159.12 303.317 156.107 304.851 153.864C300.538 151.494 299.535 145.759 303.662 142.518C307.737 139.317 313.281 140.949 315.505 144.829C316.567 142.771 319.285 141.783 321.646 142.992C323.895 144.142 324.474 146.588 323.671 148.623C328.137 150.597 330.474 155.924 327.719 160.035Z" fill="#AF5A5A"/>
<path d="M254.033 186.319C255.726 186.592 257.07 188.321 258.218 189.38C259.529 190.592 257.92 192.477 256.355 191.451C255.654 190.992 254.953 190.533 254.252 190.075C253.522 189.596 252.672 188.99 252.374 188.197C252.01 187.226 252.853 186.129 254.033 186.319Z" fill="#AF5A5A"/>
<path d="M253.425 198.896C252.14 198.07 250.424 197.302 249.741 195.956C249.503 195.49 250.011 195.044 250.507 195.09C252.111 195.242 253.53 196.547 254.789 197.378C255.914 198.121 254.552 199.618 253.425 198.896Z" fill="#AF5A5A"/>
<path d="M280.89 140.589C280.869 141.882 279.331 142.49 278.351 141.484C276.958 140.057 276.436 138.564 274.334 137.725C272.665 137.059 270.091 136.892 268.329 137.378C267.2 137.692 266.19 136.309 267.286 135.64C268.523 134.884 269.436 134.294 270.98 134.241C272.488 134.187 274 134.454 275.393 134.978C277.695 135.845 280.931 138.067 280.89 140.589Z" fill="#AF5A5A"/>
<path d="M275.22 128.891C276.739 128.115 278.771 127.857 280.322 128.703C282.065 129.651 283.523 131.486 282.437 133.268C281.965 134.046 280.895 134.22 280.218 133.584C280.173 133.559 280.12 133.529 280.061 133.493C279.961 133.397 279.861 133.301 279.762 133.204C279.649 133.062 279.363 132.601 279.273 132.459C279.089 132.163 278.897 131.866 278.628 131.63C278.036 131.111 277.183 130.515 276.323 130.728C275.172 131.017 273.974 129.529 275.22 128.891Z" fill="#AF5A5A"/>
<path d="M354.401 158.187C353.875 157.982 354.117 157.174 354.696 157.293C357.328 157.835 359.209 159.835 359.145 162.341C359.08 164.916 356.861 166.84 354.128 167.202C351.317 167.575 348.6 166.155 347.77 163.654C347.143 161.768 347.455 157.247 350.387 157.158C351.236 157.133 352.157 157.764 351.937 158.636C351.728 159.465 351.298 159.787 350.664 160.375C350.035 160.955 349.826 161.632 349.884 162.448C350.008 164.196 351.63 165.281 353.484 165.213C357.883 165.048 357.971 159.581 354.401 158.187Z" fill="#AF5A5A"/>
<path d="M231.7 160.628C232.36 160.445 232.958 160.326 233.195 159.662C233.485 158.849 235.054 159.072 235.049 159.928C235.041 161.652 233.379 163.19 231.394 162.823C230.559 162.666 229.741 162.247 229.248 161.609C228.786 161.011 228.711 160.314 228.599 159.637C228.057 158.517 229.039 157.113 230.214 156.608C230.982 156.276 231.97 156.677 232.343 157.326C232.764 158.048 232.53 158.823 231.856 159.343C231.731 159.439 231.606 159.536 231.48 159.632C231.466 159.642 231.119 159.951 231.316 159.754C231.205 159.865 231.099 159.961 230.996 160.048C231.004 160.096 231.007 160.144 231.016 160.189C231.038 160.253 231.068 160.321 231.107 160.38C231.185 160.501 231.269 160.565 231.4 160.636C231.595 160.714 231.608 160.717 231.447 160.643C231.53 160.638 231.617 160.633 231.7 160.628Z" fill="#AF5A5A"/>
<path d="M0.208214 45.638C0.76771 45.1641 1.07111 44.1807 1.53318 43.5953C2.05092 42.9389 2.68832 42.3788 3.36473 41.8593C4.74537 40.8025 6.33205 40.0371 8.04394 39.5302C8.59787 39.368 8.92907 40.1207 8.37514 40.3032C6.83305 40.8126 5.41347 41.54 4.17479 42.5233C3.37312 43.1594 1.73357 44.4595 1.19078 45.567C2.77741 45.5417 4.72034 45.0221 5.48861 43.7448C7.44545 40.4882 11.7822 44.6927 8.87063 46.2563C6.11491 47.7389 2.87206 48.261 0.185924 46.3805C-0.103566 46.1778 -0.0228215 45.8357 0.208214 45.638Z" fill="#AF5A5A"/>
<path d="M17.3744 55.0403C18.7551 54.6069 19.4621 56.3607 18.1872 56.936C17.1628 57.3972 16.055 57.8737 15.2951 58.6745C14.95 59.0369 14.2373 60.1242 14.7077 60.6133C14.8692 60.7805 15.2867 60.5601 15.4677 60.4714C15.6124 60.3979 15.7516 60.3269 15.8852 60.2382C15.9075 60.2103 15.927 60.1901 15.9576 60.1546C16.2638 59.8074 16.4837 59.4323 16.9318 59.2017C17.5943 58.857 18.563 58.7075 19.181 59.26C20.8928 60.7958 19.7488 63.0285 17.8838 63.9459C16.2527 64.7493 13.9478 64.4579 12.6479 63.2439C11.2366 61.9261 11.1671 59.8302 12.1246 58.2716C13.2325 56.4747 15.3341 55.679 17.3744 55.0403Z" fill="#AF5A5A"/>
</svg>
