<svg width="160" height="160" viewBox="0 0 160 160" fill="none" xmlns="http://www.w3.org/2000/svg">
<path d="M16.9199 90.7625C20.5226 84.267 24.4916 77.8689 28.2523 71.8704C33.2262 63.9374 38.4689 55.8567 43.8293 47.8565C49.8719 38.842 54.6173 32.0476 59.2215 25.8208C59.7895 25.0516 60.3608 24.2859 60.9355 23.5235L61.7454 22.4588C62.3167 21.7837 62.8612 21.0852 63.3888 20.4034C63.8156 19.8526 64.2424 19.3017 64.6861 18.7677C65.496 17.7836 66.3732 16.7223 67.3142 15.708C67.6906 15.9028 68.0401 16.091 68.3493 16.2555C74.7918 19.7182 81.0798 23.715 86.625 27.2415C94.1799 32.0476 101.97 37.1862 110.439 42.9529C119.16 48.8909 126.272 53.902 132.822 58.7182C134.331 59.8299 135.833 60.9483 137.328 62.0835L138.508 62.9836C139.056 63.4101 139.6 63.8367 140.141 64.2666C141.452 65.3078 142.675 66.2885 143.828 67.2927C140.756 72.6329 137.305 77.8689 133.964 82.9438L133.41 83.7834C128.735 90.8801 123.707 98.3261 117.584 107.22C111.888 115.492 106.658 122.961 101.59 130.051C99.0362 133.625 96.9223 136.547 94.9395 139.244C94.0623 140.436 93.1785 141.628 92.2845 142.811C91.982 143.214 91.6762 143.617 91.367 144.02C91.283 143.976 91.199 143.932 91.1149 143.892C90.0025 143.321 88.8364 142.693 87.445 141.911C81.0596 138.327 74.9061 134.428 67.6267 129.669C60.0516 124.721 52.1438 119.348 44.1217 113.698C40.1627 110.907 36.5163 108.294 32.9775 105.702C31.3173 104.486 29.6604 103.263 28.017 102.027C27.2273 101.436 26.4442 100.845 25.6612 100.251L24.3337 99.233L23.6078 98.6687C21.0502 96.677 18.4322 94.635 16.0158 92.4117C16.2847 91.9112 16.5805 91.3704 16.9199 90.7625ZM7.06951 104.2L7.20735 104.318C13.0349 109.289 19.0405 113.739 25.7216 118.622C33.1287 124.04 40.798 129.43 49.1662 135.106C58.0117 141.105 65.2944 145.837 72.0864 150.005L72.5065 150.26C77.756 153.481 83.1836 156.813 89.0313 159.08C89.9622 159.442 91.7064 160 93.5817 160C94.9731 160 96.4384 159.691 97.6953 158.764C97.9608 158.569 98.2263 158.364 98.4851 158.146C98.6598 158.022 98.8346 157.891 99.006 157.75C99.9268 157.011 100.639 156.064 101.328 155.147C101.506 154.912 101.681 154.68 101.853 154.455C103.671 152.138 105.613 149.565 107.801 146.589C113.165 139.288 118.29 132.013 122.598 125.86C128.493 117.43 134.19 109.141 139.523 101.228C144.773 93.4326 149.131 86.8666 153.329 80.1393C154.781 77.8152 156.192 75.5313 157.503 73.1367L157.621 72.9217C158.733 70.8965 159.993 68.5992 160 66.0534C160.003 62.6847 157.802 60.1422 155.88 58.3017C154.058 56.5553 152.143 55.0204 150.005 53.3344C142.763 47.6147 135.406 42.3585 129.165 37.9755C121.281 32.4372 113 26.8115 104.551 21.2564C98.1255 17.0313 90.4798 12.0707 82.4946 7.31825C80.0211 5.84718 77.3628 4.2888 74.6473 2.88156L74.0861 2.58939C72.2847 1.64897 70.4229 0.674957 68.4098 0.228271C61.9975 -1.19241 57.4874 4.32243 54.1938 8.34602L53.8309 8.78934C48.7729 14.9524 44.1519 21.3639 38.7714 29.0954C33.4984 36.6724 28.1111 44.7229 22.3004 53.7139C16.7081 62.3656 12.2484 69.5127 8.26257 76.1997C7.80887 76.9587 7.34846 77.7245 6.88132 78.4936C4.48511 82.44 2.00487 86.5206 0.482454 90.8969C-1.58104 96.8248 3.41974 101.087 7.06951 104.2Z" fill="#474973"/>
<path d="M80 107.033C95.4672 107.033 108 94.7065 108 79.5164C108 64.3163 95.4672 52.0001 80 52.0001C64.5328 52.0001 52 64.3163 52 79.5164C52 94.7065 64.5328 107.033 80 107.033Z" fill="#EAB8B8"/>
</svg>
