<svg width="402" height="314" viewBox="0 0 402 314" fill="none" xmlns="http://www.w3.org/2000/svg">
<path d="M364.83 225.888C365.332 225.888 365.424 226.601 364.918 226.601C364.417 226.601 364.325 225.888 364.83 225.888Z" fill="#D9B3B3"/>
<path d="M174.882 220.601C173.059 221.694 171.3 222.844 169.549 223.992C173.677 224.775 177.805 225.553 181.936 226.321C184.407 224.101 186.89 221.886 189.415 219.719C186.236 219.129 183.091 218.452 180.079 217.537C178.339 218.559 176.6 219.575 174.882 220.601ZM159.667 229.877C164.694 230.85 169.721 231.828 174.748 232.804C174.801 232.708 174.871 232.612 174.977 232.52C176.435 231.24 177.888 229.945 179.339 228.648C174.863 227.87 170.387 227.099 165.908 226.344C163.895 227.614 161.844 228.823 159.667 229.877ZM191.575 236.073C192.881 234.533 194.189 232.992 195.494 231.453C191.002 230.675 186.506 229.892 182.014 229.112C180.441 230.508 178.874 231.902 177.323 233.306C182.075 234.228 186.824 235.151 191.575 236.073ZM205.646 238.788C206.119 238.144 206.662 237.526 207.141 236.882C207.892 235.866 208.658 234.859 209.429 233.856C207.508 233.521 205.588 233.182 203.661 232.855C201.746 232.53 199.834 232.198 197.919 231.869C196.572 233.417 195.224 234.968 193.877 236.517C197.799 237.277 201.724 238.032 205.646 238.788ZM211.556 231.121C213.203 229.02 214.812 226.892 216.491 224.813C212.931 224.111 209.368 223.412 205.807 222.71C204.274 224.552 202.701 226.367 201.126 228.179C200.708 228.661 200.29 229.139 199.873 229.618C203.628 230.303 207.386 230.977 211.141 231.656C211.28 231.476 211.416 231.299 211.556 231.121ZM201.326 221.828C198.253 221.222 195.082 220.718 191.915 220.168C189.518 222.416 187.063 224.621 184.597 226.813C188.875 227.606 193.153 228.389 197.432 229.17C198.08 228.407 198.729 227.642 199.377 226.879C200.7 225.32 202.027 223.769 203.375 222.231C202.693 222.097 202.008 221.962 201.326 221.828ZM118.905 239.665C125.908 235.235 133.908 231.821 141.34 228.017C156.973 220.016 172.444 211.746 188.254 204.034C188.346 203.991 188.435 203.961 188.527 203.936C188.914 203.51 189.507 203.236 190.278 203.315C238.467 208.287 286.64 213.386 334.78 218.736C341.407 219.471 348.033 220.214 354.659 220.954C358.145 221.341 361.618 221.825 365.101 222.236C368.567 222.644 372.143 222.844 375.509 223.719C375.636 223.752 375.729 223.833 375.792 223.926C374.695 224.045 373.613 224.258 372.558 224.573C367.712 224.481 362.755 223.696 357.979 223.328C351.848 222.854 345.729 222.208 339.608 221.635C327.54 220.51 315.469 219.398 303.403 218.239C279.106 215.905 254.803 213.556 230.523 211.085C218.57 209.868 206.615 208.652 194.662 207.435C194.67 207.856 194.476 208.297 193.977 208.667C190.818 211.016 187.439 213.15 184.009 215.211C186.554 215.675 189.087 216.306 191.583 216.815C191.929 216.883 192.271 216.954 192.616 217.025C194.303 215.634 196.009 214.271 197.757 212.955C198.228 212.598 198.885 213.242 198.489 213.662C197.27 214.947 196.018 216.209 194.746 217.456C197.279 217.973 199.814 218.49 202.35 219.002C203.428 219.22 204.508 219.438 205.588 219.656C206.656 218.381 207.767 217.109 209.153 216.166C209.73 215.773 210.473 216.372 210.208 216.949C209.677 218.095 208.881 219.142 208.023 220.15C211.55 220.862 215.077 221.577 218.606 222.289C219.208 221.6 219.817 220.916 220.452 220.247C220.775 219.904 221.476 220.252 221.22 220.68C220.833 221.321 220.432 221.95 220.02 222.576C221.479 222.872 222.937 223.166 224.396 223.463C231.58 224.915 238.737 226.481 245.9 228.009C253.007 229.527 260.706 230.488 267.466 233.022C268.07 233.248 267.726 233.975 267.159 233.952C259.772 233.668 252.222 231.575 244.982 230.232C237.612 228.863 230.233 227.52 222.882 226.073C221.34 225.769 219.8 225.465 218.258 225.161C216.661 227.411 214.971 229.608 213.32 231.833C213.273 231.897 213.226 231.96 213.178 232.024C242.219 237.249 271.288 242.336 300.286 247.754C312.854 250.101 325.562 252.108 337.912 255.301C338.388 255.423 338.305 256.062 337.789 256.008C326.439 254.85 315.251 252.653 304.036 250.727C292.814 248.801 281.592 246.872 270.37 244.946C250.719 241.573 231.174 237.69 211.544 234.223C210.787 235.237 210.027 236.246 209.245 237.244C208.758 237.868 208.304 238.549 207.814 239.206C216.24 240.828 224.669 242.44 233.103 244.024C258.357 248.765 283.685 253.284 308.841 258.444C323.188 261.389 337.791 263.657 351.978 267.175C351.91 267.007 351.887 266.81 351.933 266.584C352.636 263.17 354.534 259.754 355.787 256.462C357.09 253.038 358.446 249.627 359.78 246.213C361.114 242.8 362.451 239.386 363.832 235.987C365.263 232.462 366.48 228.787 368.525 225.51C368.931 224.859 370.133 225.085 369.979 225.906C369.324 229.411 367.839 232.738 366.572 236.084C365.343 239.335 364.085 242.571 362.813 245.808C362.471 246.056 362.196 246.416 362.045 246.9C361.635 248.21 361.237 249.526 360.842 250.841C360.092 252.757 359.341 254.67 358.576 256.581C357.866 258.355 357.101 260.114 356.411 261.896C355.725 263.667 355.281 265.578 354.291 267.228C354.025 267.671 353.523 267.862 353.048 267.836C353.291 268.411 352.909 269.159 352.015 269.048C339.087 267.426 326.337 264.61 313.505 262.446C300.656 260.276 287.853 257.907 275.042 255.562C249.762 250.94 224.538 246.059 199.235 241.537C196.38 241.028 193.524 240.519 190.668 240.012C190.323 240.131 189.95 240.042 189.671 239.834C178.303 237.809 166.935 235.79 155.573 233.739C152.814 233.243 153.065 229.712 155.275 229.233C160.449 224.55 166.757 221.633 172.7 217.867C178.501 214.189 184.26 210.251 190.389 207.002C190.142 206.977 189.897 206.951 189.652 206.926C189.61 206.924 189.579 206.911 189.543 206.906C176.861 213.936 163.934 220.589 151.072 227.333C144.433 230.815 137.819 234.337 131.197 237.845C128.433 239.31 125.605 240.701 122.921 242.283C120.681 243.603 117.939 245.331 117.09 247.769C115.623 251.989 120.642 254.911 124.689 256.617C124.681 256.642 124.672 256.67 124.664 256.695C132.241 258.601 139.678 260.981 147.124 263.259C155.998 265.976 164.897 268.617 173.827 271.184C191.759 276.336 209.763 281.301 227.867 285.939C245.878 290.549 263.982 294.85 282.173 298.831C291.268 300.82 300.383 302.734 309.517 304.569C317.512 306.176 326.704 309.1 334.954 307.683C340.846 306.672 344.194 302.668 346.172 298.005C350.995 292.072 354.156 284.887 356.837 277.814C357.328 276.466 357.831 275.117 358.32 273.769C358.43 273.467 358.545 273.166 358.663 272.867C358.742 272.649 358.821 272.431 358.9 272.213C361.79 264.237 364.121 256.128 366.644 248.053C366.701 247.871 366.732 247.696 366.742 247.526C367.638 245.468 368.522 243.403 369.412 241.342C370.19 239.538 370.905 237.662 371.668 235.8C372.396 233.891 373.187 232.003 374.261 230.27C374.284 230.232 374.311 230.201 374.337 230.168C374.651 229.624 374.98 229.089 375.332 228.567C375.767 227.926 376.979 228.113 376.826 228.975C376.73 229.52 376.609 230.059 376.473 230.599C376.48 230.685 376.479 230.774 376.462 230.87C375.951 233.831 374.658 236.666 373.618 239.497C372.496 242.551 371.382 245.608 370.272 248.664C368.049 254.782 365.953 260.933 363.652 267.028C361.997 271.41 360.342 275.794 358.687 280.176C358.549 280.589 358.416 281.007 358.274 281.42C357.473 283.739 356.787 286.324 355.54 288.511L353.487 293.95C352.697 296.041 352.002 298.504 350.887 300.615C349.36 304.133 347.151 307.351 343.774 309.698C337.166 314.288 328.47 313.525 320.82 312.106C311.413 310.365 302.054 308.36 292.71 306.363C255.241 298.352 217.966 289.221 181.334 278.45C170.982 275.406 160.666 272.261 150.392 269.015C141.374 266.164 132.257 263.378 123.548 259.792C119.523 258.647 115.503 257.002 113.338 253.629C109.855 248.2 113.986 242.779 118.905 239.665Z" fill="#D9B3B3"/>
<path d="M243.938 276.876C246.96 277.611 250.523 278.22 253.231 279.639C253.289 279.669 253.338 279.705 253.389 279.738C257.58 274.2 261.507 268.506 265.741 262.993C266.168 262.438 267.211 263.021 266.857 263.627C263.182 269.904 259.146 275.997 255.457 282.272C254.623 283.691 252.715 283.126 252.369 281.996C249.249 281.889 245.928 280.716 242.941 279.9C239.597 278.987 236.271 278.035 232.914 277.16C226.434 275.472 219.865 274.043 213.348 272.477C210.863 271.879 211.547 268.952 213.755 268.982C214.373 268.138 215.219 267.444 216.004 266.661C217.298 265.365 218.579 264.06 219.82 262.722C222.303 260.048 225.045 257.567 227.65 254.992C229.281 253.381 232.193 255.662 230.503 257.119C227.731 259.506 225.081 262.051 222.197 264.326C220.75 265.469 219.322 266.625 217.922 267.816C217.273 268.369 216.666 268.974 216.012 269.509C222.139 271.215 228.243 273.001 234.409 274.575C237.576 275.384 240.761 276.106 243.938 276.876Z" fill="#D9B3B3"/>
<path d="M312.417 301.259C318.761 302.38 325.28 303.15 331.519 304.688C331.925 304.79 331.848 305.324 331.416 305.284C325.663 304.762 319.948 303.459 314.291 302.402C308.771 301.371 303.245 300.377 297.719 299.376C286.495 297.339 275.343 295.063 264.228 292.582C242.325 287.693 220.224 282.815 198.771 276.443C186.445 272.784 174.12 269.218 161.983 265.054C161.919 265.031 161.953 264.927 162.019 264.948C183.915 270.891 205.719 277.133 227.756 282.64C249.503 288.076 271.404 292.914 293.385 297.498C299.714 298.816 306.041 300.134 312.417 301.259Z" fill="#D9B3B3"/>
<path d="M19.7988 8.26775C20.8204 6.54694 21.7223 4.61578 23.025 2.98367C21.1238 3.01662 19.2449 3.10784 17.3994 3.2675C15.1224 3.46011 12.7508 4.10891 10.3375 4.27871C11.2505 6.32391 11.6764 8.54906 12.5031 10.4929C13.2073 12.1402 14.0006 13.785 14.8608 15.4222C16.4724 13.0171 18.3263 10.7489 19.7988 8.26775ZM17.0152 19.2389C20.4168 24.8448 24.7369 30.2581 29.9421 35.2533C35.8544 40.9277 42.7855 45.9963 50.2927 50.2591C54.2148 52.4867 58.3289 54.5066 62.5265 56.1869C64.5696 57.0054 66.6378 57.7632 68.7143 58.4449C69.516 58.7085 70.3455 58.9087 71.1305 59.1748C73.0233 56.7723 76.0184 54.9577 78.5236 53.0392C80.0935 51.8354 81.669 50.6341 83.2417 49.4303C83.2696 49.4075 83.2974 49.3847 83.3252 49.3619C82.7351 49.1161 82.1673 48.8398 81.6468 48.556C77.232 46.1458 72.9259 43.5127 68.5835 40.9961C64.8535 38.8368 60.6698 36.8119 57.2126 34.3435C55.1528 32.8735 53.8084 30.7954 55.2976 29.4117C57.1292 27.7086 60.6058 28.8085 63.2447 30.3265C67.4979 32.7722 71.5925 35.5346 75.7373 38.1222C77.7108 39.3538 79.6816 40.583 81.6523 41.8147C83.3698 42.8841 85.2682 43.9156 86.788 45.1879C86.9522 44.5594 87.2111 43.946 87.3698 43.3378C87.8402 41.5232 88.3078 39.7087 88.781 37.8941C89.5354 35.0024 89.9668 31.761 91.4672 29.1506C90.8548 28.6336 90.2869 28.0456 89.669 27.5134C88.0629 26.1322 86.3927 24.789 84.6697 23.4965C81.1374 20.838 77.3044 18.3975 73.3601 16.2053C65.8055 12.0109 57.7249 8.64534 49.505 6.37458C42.2677 4.37753 35.0193 3.28777 27.9992 3.02674C27.4564 3.00646 26.9164 3.00139 26.3792 2.99125C25.519 5.47743 23.5121 7.57081 22.0034 9.67431C20.0327 12.4215 18.5657 15.4399 16.581 18.1795C16.5476 18.2251 16.5059 18.2606 16.4669 18.2986C16.6506 18.6129 16.826 18.9271 17.0152 19.2389ZM60.6114 58.5058C56.7005 56.7799 52.8731 54.8969 49.1598 52.7985C48.8898 52.6464 48.6254 52.4918 48.3554 52.3372C50.4403 53.8451 52.6921 55.1883 55.0665 56.306C56.8675 57.155 58.7297 57.8925 60.6114 58.5058ZM45.6247 64.2992C47.7179 69.4972 51.8432 74.5836 57.1514 78.7348C59.5509 80.6102 62.4096 82.6275 65.324 83.8516C67.239 84.655 68.166 84.4117 68.4109 82.9139C68.6308 81.5428 68.5947 80.0653 68.6809 78.6562C69.0011 73.433 69.2293 68.1894 69.4603 62.9434C64.6643 63.0397 58.5293 60.9995 54.0644 58.9214C51.164 57.5706 48.3637 55.9461 45.8418 54.0859C45.299 53.6855 44.6393 53.1938 43.9963 52.6565C43.8961 56.458 43.9601 60.1708 45.6247 64.2992ZM86.5959 47.2812C86.6238 47.228 86.6488 47.1748 86.6683 47.1216C84.422 46.308 82.4373 44.8761 80.4359 43.614C77.914 42.0225 75.3893 40.4309 72.8646 38.8394C70.4791 37.3365 68.0936 35.8337 65.7025 34.3359C64.4193 33.5325 63.1528 32.6835 61.8139 31.9485C60.7172 31.3479 55.9545 29.7133 57.6246 32.3312C58.0728 33.0358 59.7568 33.8341 60.5056 34.2624C61.8334 35.0227 63.1611 35.7804 64.4889 36.5382C66.9969 37.9701 69.5021 39.4045 72.0101 40.8364C74.6656 42.3545 77.3211 43.8725 79.9766 45.3881C81.0316 45.9912 82.081 46.6476 83.1749 47.19C83.7122 47.4561 84.3858 47.8388 84.9982 47.9807C85.4603 47.6538 85.978 47.3953 86.5959 47.2812ZM74.5264 13.7064C74.7964 13.8559 75.0692 14.0029 75.3392 14.1524C79.0664 16.2331 82.6321 18.4988 86.081 20.9064C84.6335 19.6519 83.0747 18.4684 81.4324 17.3837C79.2696 15.9569 76.9398 14.7252 74.5264 13.7064ZM94.4122 26.112C99.4448 23.5827 104.483 21.056 109.455 18.4659C110.796 17.7664 112.26 17.1354 113.505 16.3446C114.863 15.4779 114.682 14.6162 113.034 13.42C110.523 11.5979 107.261 10.1786 104.344 9.06607C97.8889 6.60777 91.0496 5.52811 85.0149 6.14649C80.2244 6.63815 76.5584 8.24492 72.8758 10.0215C73.6914 10.3028 74.4707 10.6221 75.1082 10.8832C78.0643 12.1022 80.9147 13.6507 83.5424 15.4044C87.5897 18.1035 92.3468 22.1736 94.4122 26.112ZM9.15168 11.0352C8.21362 8.80501 6.87194 6.04009 6.67709 3.70343C6.22893 3.29794 6.02854 2.7632 6.46277 2.43627C6.54628 2.37291 6.64091 2.31459 6.72999 2.25377C6.74947 2.15493 6.76338 2.05105 6.78843 1.95475C6.91647 1.45041 7.53721 1.37438 8.13846 1.56193C10.5156 0.679978 13.8197 0.535492 16.4252 0.302333C19.9157 -0.0119235 23.5232 -0.0778259 27.2087 0.0894398C34.6464 0.423971 42.4097 1.69117 50.0506 3.78199C56.102 5.43691 62.1145 7.65697 67.9015 10.3535C67.9015 10.351 67.8988 10.3484 67.896 10.3459C67.7596 10.1533 67.793 9.89984 67.9377 9.78073C68.4583 9.34736 69.2488 9.25359 70.1451 9.34989C73.2822 5.61682 79.5647 3.77186 85.6467 3.37397C92.7281 2.91019 100.569 4.35725 107.924 7.51503C113.51 9.9125 122.44 15.0978 116.784 18.9398C113.738 21.0078 110.061 22.6095 106.763 24.452C103.492 26.2792 100.227 28.1116 96.9619 29.9439C98.6042 30.8765 99.7872 32.463 100.157 33.8822C100.881 36.6624 99.8763 39.5135 99.4254 42.0174C99.1442 43.5887 98.8603 45.1625 98.5764 46.7363C98.3426 48.0263 98.4595 49.5444 97.2931 50.3554C96.7921 50.7051 95.7511 50.5581 95.3586 49.8384C94.4595 48.1809 95.1721 46.6907 95.4198 45.2031C95.701 43.5127 95.9626 41.8121 96.266 40.1293C96.55 38.5378 97.0426 36.9893 97.1985 35.3597C97.2848 34.4753 97.3711 33.1751 96.3328 32.2729C95.8401 31.8471 95.3029 31.6469 94.8325 31.6267C94.6321 34.3384 93.6996 36.9259 93.0872 39.4501C92.6474 41.2749 92.202 43.0996 91.7594 44.9243C91.4031 46.3993 91.5312 48.2645 89.7581 48.8778C89.9501 50.5987 88.0573 51.3361 86.7685 52.2941C85.1735 53.4776 83.5785 54.6637 81.9836 55.8447C79.7734 57.4819 77.6468 59.4105 75.072 60.7993C75.303 61.1744 75.7373 61.5191 76.3803 61.7294C77.7303 62.1679 78.969 61.5115 79.8013 61.0426C81.3322 60.1784 82.6349 59.0785 84.0712 58.1281C85.5911 57.122 87.1443 56.1412 88.6808 55.1478C90.0336 54.276 91.1777 53.0215 93.2097 53.0063C94.0949 53.0012 94.7072 53.7818 94.5875 54.3495C94.312 55.6673 92.7671 56.2578 91.6036 57.0283C90.1839 57.971 88.7643 58.9113 87.3447 59.854C85.0845 61.3493 82.7324 63.4553 79.676 64.1193C78.1144 64.4589 76.024 64.2131 74.3678 63.2931C74.0337 66.7829 73.6941 70.2701 73.3629 73.7599C73.0289 77.2801 73.0985 81.0005 72.4304 84.4167C71.1889 90.7576 62.0895 85.8208 57.2294 82.3513C50.8328 77.7844 45.8975 72.0467 43.1807 66.0657C40.8453 60.9286 39.846 54.9754 42.1118 50.733C41.6163 50.0462 41.352 49.3619 41.544 48.741C41.5969 48.5687 41.8335 48.4293 42.084 48.4521C42.0868 48.4521 42.0896 48.4521 42.0924 48.4521C36.8509 44.9547 31.9741 41.0544 27.6373 36.8702C22.1593 31.5861 17.4328 25.8307 13.7724 19.9206C11.9603 16.9934 10.4099 14.0232 9.15168 11.0352Z" fill="#D9B3B3"/>
<path d="M24.993 17.551C25.4885 20.5441 27.4203 23.6993 30.6937 26.0613C37.6694 31.097 46.3234 28.882 48.4807 23.9806C50.7131 18.9145 46.4877 11.9881 38.7188 9.03565C34.8496 7.56574 31.0973 7.52521 28.4168 9.10663C25.8837 10.5994 25.1768 13.0906 25.1489 15.8226C25.1489 15.9772 25.0347 16.0684 24.8817 16.1065C24.8789 16.5702 24.9095 17.0492 24.993 17.551ZM24.8232 8.91403C26.4432 7.10705 29.1378 5.91336 32.0521 5.75369C38.9971 5.37101 47.1585 9.78076 50.4904 15.5134C53.8669 21.3221 52.2636 27.4324 46.9247 30.1061C41.2295 32.9547 32.5921 31.3428 26.524 26.0385C23.2032 23.1367 21.2213 19.6722 21.0376 16.3371C20.8761 13.4302 22.0703 10.3611 24.8232 8.91403Z" fill="#D9B3B3"/>
<path d="M168.756 92.0627C169.017 92.2376 169.201 92.4378 169.321 92.6482C173.059 94.7517 177.209 96.5282 181.465 96.0771C186.565 95.5373 190.548 91.9259 188.725 87.1183C186.827 82.118 180.945 80.4657 175.759 82.1383C171.35 83.5626 168.23 86.6798 166.25 90.3749C167.086 90.9375 167.915 91.5052 168.756 92.0627ZM86.3511 68.7165C91.2168 71.4967 95.4979 75.4781 99.6621 79.2264C99.6899 77.4701 99.74 75.7138 99.6509 73.96C99.5897 72.7182 101.082 72.1961 102.039 73.111C106.415 77.2699 111.968 80.3237 117.978 82.0192C115.949 78.7423 115.453 74.9256 116.5 71.2331C116.72 70.4601 117.956 70.1154 118.718 70.4449C130.415 75.4832 142.006 80.7444 153.677 85.841C143.464 78.5928 133.12 71.4891 122.952 64.1953C122.29 63.7188 122.089 62.5302 122.768 61.9802C126 59.3547 130.036 57.9481 134.201 58.0698C129.869 53.8957 124.38 50.7456 118.304 49.1008C116.97 48.7409 116.837 47.2558 118.106 46.7185C119.899 45.9557 121.633 45.0763 123.378 44.2171C117.803 42.5496 111.943 40.8972 107.03 38.1905C106.337 37.8053 106.624 36.8549 107.47 36.9436C114.529 37.6811 121.683 40.5018 128.394 42.5343C129.975 43.0133 129.363 44.8735 128.224 45.3779C126.284 46.237 124.274 46.9593 122.287 47.717C129.115 50.0588 134.933 53.954 139.461 59.3369C140.235 60.2569 139.169 61.8966 137.875 61.5418C134.1 60.5002 130.072 60.9716 126.863 62.961C138.71 71.1343 150.367 79.5508 162.259 87.6733C162.757 86.8217 163.3 85.9905 163.901 85.1871C167.773 80.0221 174.515 76.5602 181.477 77.1051C187.745 77.5968 193.053 81.8012 194.381 87.4198C195.951 94.0674 190.467 99.6252 183.511 100.799C176.747 101.939 170.807 99.1234 166.145 95.0482C165.632 94.8074 165.12 94.5743 164.611 94.336C158.376 114.492 172.313 137.009 192.967 144.886C196.477 146.224 200.185 147.179 203.973 147.745C206.069 139.949 208.143 132.148 210.167 124.337C211.767 118.174 213.323 112.003 214.966 105.85C216.093 101.622 217.44 97.2404 220.449 93.7683C223.737 89.9745 228.65 88.4615 233.824 88.3753C240.304 88.2689 246.878 89.0596 253.337 89.4828C281.86 91.3557 310.376 93.2944 338.888 95.2966C352.97 96.285 367.055 97.2201 381.144 98.1223C386.334 98.4543 392.848 98.0438 397.332 100.897C401.354 103.457 402.102 107.935 401.825 112.099C401.367 118.99 399.751 125.924 398.661 132.751C397.524 139.88 396.386 147.012 395.249 154.141C394.111 161.27 392.974 168.399 391.837 175.528C390.676 182.807 389.766 190.162 388.059 197.351C387.798 198.454 386.093 198.188 386.178 197.08C387.102 184.984 389.57 172.89 391.401 160.88C393.239 148.827 395.076 136.773 396.913 124.72C397.704 119.535 399.417 113.746 398.677 108.49C397.801 102.271 391.64 101.607 385.945 101.237C372.557 100.365 359.169 99.4959 345.775 98.7128C318.979 97.1441 292.184 95.5652 265.397 93.8748C258.702 93.4516 252.007 93.0309 245.313 92.6076C239.675 92.2528 232.572 90.8818 227.288 93.3096C222.846 95.3498 220.908 100.008 219.678 104.116C218.041 109.59 216.792 115.181 215.375 120.706C213.028 129.87 210.732 139.044 208.463 148.226C209.958 148.325 211.458 148.355 212.953 148.332C213.095 148.32 213.234 148.307 213.373 148.297C215.442 139.901 217.512 131.507 219.592 123.113C220.925 117.733 221.961 112.19 223.728 106.911C225.089 102.846 227.439 98.9866 231.781 97.0453C236.416 94.9772 241.919 95.3827 246.898 95.806C253.555 96.3711 260.207 96.9819 266.86 97.5825C293.998 100.031 321.141 102.431 348.282 104.843C355.111 105.452 361.94 106.057 368.77 106.666C374.118 107.139 379.906 107.155 385.055 108.698C396.639 112.17 393.576 123.63 392.052 132.049C389.602 145.593 386.995 159.111 384.524 172.649C383.259 179.576 382.021 186.507 380.703 193.426C379.385 200.345 378.276 207.332 376.263 214.114C376.131 214.557 375.455 214.466 375.485 214.002C376.259 202.423 378.9 190.846 380.93 179.403C382.969 167.903 384.855 156.379 386.913 144.881C387.927 139.211 388.94 133.54 389.957 127.87C390.753 123.425 392.3 117.644 388.921 113.746C385.569 109.882 379.057 109.851 374.158 109.423C367.677 108.858 361.196 108.293 354.715 107.725C329.493 105.525 304.273 103.295 279.046 101.126C272.564 100.568 266.082 100.01 259.6 99.4529C253.467 98.9257 247.228 98.0007 241.061 97.9956C235.386 97.9906 230.517 99.7519 228.121 104.707C225.852 109.398 225.117 114.867 223.892 119.839C221.588 129.193 219.272 138.547 216.956 147.902C218.403 147.704 219.84 147.466 221.248 147.179C223.742 146.67 226.052 145.768 228.53 145.187C231.105 144.584 233.713 144.12 236.293 143.532C241.234 142.405 246.128 141.323 251.226 140.958C259.356 140.377 267.462 141.497 274.436 145.522C280.535 149.04 285.503 154.615 286.103 161.354C286.758 168.721 279.633 181.963 288.853 186.951C290.198 184.852 292.219 183.129 294.674 182.249C295.383 181.996 295.982 182.934 295.324 183.332C291.131 185.861 289.187 189.586 289.773 194.092C289.842 194.617 289.485 195.144 288.949 195.334C288.841 195.375 288.736 195.41 288.62 195.41C287.892 195.4 287.288 195.06 287.174 194.358C286.957 193.028 287.047 191.662 287.382 190.344C285.324 189.553 283.223 189.576 281.793 191.507C280.915 192.693 278.801 191.459 279.471 190.192C280.313 188.603 282.509 187.503 284.637 187.331C280.804 183.55 280.641 177.487 281.579 172.454C282.386 168.131 283.798 163.665 282.773 159.268C281.907 155.555 279.462 152.22 276.285 149.807C269.359 144.544 260.364 143.112 251.589 143.902C246.206 144.387 240.747 145.4 235.539 146.721C233.343 147.278 231.183 147.927 228.972 148.447C224.794 149.851 220.485 150.791 216.129 151.247C214.4 158.221 212.672 165.198 210.946 172.173C211.155 172.102 211.369 172.044 211.586 171.993C211.158 172.979 210.935 173.998 210.62 175.016C210.506 174.945 210.398 174.862 210.306 174.766C208.48 182.151 206.654 189.538 204.839 196.926C204.363 198.859 201.003 198.388 201.485 196.444C205.204 181.469 208.892 166.488 212.583 151.508C210.941 151.579 209.295 151.584 207.653 151.521C203.881 166.846 200.185 182.186 196.477 197.524C199.625 197.871 202.774 198.218 205.922 198.565C206.445 192.577 214.061 189.916 219.998 191.021C219.998 190.881 220.001 190.772 220.012 190.719C220.126 190.189 220.321 189.662 220.519 189.155C221.067 187.764 221.883 186.487 222.982 185.397C224.867 183.524 227.291 182.647 230.019 182.642C229.176 180.387 229.496 177.766 231.171 175.822C233.087 173.602 236.146 173.019 239.041 173.465C237.318 167.049 243.522 159.841 251.069 160.317C258.618 160.794 262.663 169.241 258.026 174.233C260.013 175.191 262.025 176.109 264.04 177.021C264.058 173.957 265.894 170.926 269.15 169.687C273.263 168.123 279.092 169.94 280.06 174.145C280.29 175.146 278.707 175.929 277.903 175.212C275.96 173.481 273.701 171.752 270.776 172.634C267.804 173.529 266.802 176.793 267.921 179.229C268.466 180.417 266.963 181.819 265.654 181.182C261.968 179.398 258.326 177.53 254.562 175.886C253.438 175.394 253.309 174.033 254.279 173.341C259.329 169.75 255.535 162.986 249.561 163.356C246.621 163.536 244.133 165.181 243.008 167.659C241.738 170.455 242.567 172.839 243.317 175.599C243.716 177.074 241.446 177.482 240.583 176.565C238.567 174.418 234.662 175.315 233.1 177.465C231.695 179.403 232.176 181.854 233.735 183.555C234.826 182.417 236.218 181.502 237.763 180.921C238.545 180.627 239.419 181.601 238.773 182.191C236.438 184.33 235.322 186.946 234.414 189.769C233.969 191.142 231.583 191.393 231.419 189.708C231.28 188.286 231.581 186.928 232.199 185.704C231.5 185.22 230.709 184.888 229.863 184.662C229.802 184.487 229.716 184.32 229.607 184.168H229.646C229.638 184.155 229.629 184.14 229.621 184.13C226.256 185.169 222.317 188.821 223.391 192.225C225.579 193.791 223.433 197.496 220.917 196.084C218.712 194.848 216.174 194.379 213.735 195.398C211.879 196.173 211.108 197.605 210.147 199.032C252.6 203.723 295.049 208.462 337.447 213.541C344.081 214.334 350.702 215.297 357.311 216.25C359.163 216.516 361.016 216.767 362.871 217.01C362.115 216.747 361.545 216.138 361.733 215.282C362.896 209.962 365.249 203.746 361.451 198.814C359.926 196.832 357.316 195.172 354.548 195.666C352.141 196.097 350.092 197.886 349.895 200.058C349.965 200.555 349.993 201.054 349.978 201.553C349.927 203.284 347.335 203.17 346.866 201.711C346.551 200.73 346.52 199.749 346.713 198.816C345.379 193.639 337.533 191.91 333.998 197.21C332.876 198.892 329.937 197.06 331.228 195.438C335.77 189.733 328.61 181.504 321.86 186.14C321.799 186.183 321.738 186.211 321.677 186.244C322.334 187.914 322.49 189.741 321.964 191.543C321.445 193.317 318.644 192.562 318.662 190.907C318.703 187.242 317.77 183.894 314.456 181.482C313.759 180.975 314.299 179.829 315.211 180.156C316.986 180.79 318.554 181.859 319.762 183.192C323.58 179.312 324.182 172.67 319.373 169.099C314.088 165.173 305.652 167.753 303.174 173.25C302.632 174.454 300.552 173.79 301.073 172.566C303.331 167.256 296.403 164.185 292.304 167.847C291.552 168.518 290.301 167.469 290.942 166.709C295.004 161.904 302.059 164.534 303.41 169.266C307.739 164.993 315.514 163.566 320.922 167.092C325.903 170.336 327.611 177.188 325.14 182.262C328.055 182.3 330.957 183.266 333.004 185.182C335.099 187.141 335.97 189.769 335.765 192.359C338.12 191.462 340.789 191.256 343.186 192.057C345.303 192.764 347.029 194.133 348.213 195.826C348.83 195.091 349.595 194.442 350.462 193.923C353.665 191.996 357.511 192.105 360.717 193.961C368.798 198.636 367.825 208.797 365.546 216.017C365.319 216.739 364.657 217.094 363.945 217.15C365.22 217.317 366.495 217.482 367.771 217.646C370.985 218.06 374.273 218.252 377.341 219.253C378.113 219.504 377.852 220.581 377.097 220.652C371.527 221.194 365.531 219.92 359.961 219.474C353.804 218.979 347.645 218.5 341.488 217.996C329.372 217.005 317.285 215.604 305.194 214.375C281.36 211.952 257.542 209.392 233.718 206.886C220.669 205.512 207.628 204.075 194.582 202.661C192.63 204.1 188.892 202.975 189.641 200.238C194.117 183.884 198.637 167.535 203.055 151.163C199.041 150.689 195.058 149.802 191.172 148.49C177.836 143.976 167.617 134.373 162.273 122.444C158.209 113.374 156.611 101.911 160.113 92.2554C146.593 86.0665 132.881 80.2097 119.322 74.0893C118.88 77.4954 120.274 80.9117 123.008 83.4866C123.946 84.3711 122.855 85.9145 121.613 85.6864C114.345 84.3432 107.924 81.34 102.532 76.877C102.716 78.7854 102.944 80.6938 103.005 82.6072C103.041 83.7299 101.53 85.0046 100.341 83.9453C95.303 79.4443 89.3044 74.9205 85.3518 69.5934C84.8786 68.9547 85.6636 68.3237 86.3511 68.7165Z" fill="#D9B3B3"/>
<path d="M156.892 131.583C158.526 137.871 163.653 143.558 170.559 145.418C172.616 145.973 171.792 148.591 169.71 147.995C161.78 145.722 155.776 139.376 155.328 131.743C155.272 130.8 156.664 130.701 156.892 131.583Z" fill="#D9B3B3"/>
<path d="M159.787 153.325C159.993 153.665 159.96 154.01 159.62 154.273C157.577 155.855 153.683 152.945 152.338 151.551C150.2 149.334 149.19 146.526 149.418 143.596C149.521 142.294 151.623 142.656 151.587 143.908C151.514 146.343 152.681 148.695 154.637 150.343C155.445 151.022 156.369 151.627 157.374 152.041C158.314 152.428 159.253 152.451 159.787 153.325Z" fill="#D9B3B3"/>
<path d="M321.474 149.86C320.694 149.637 320.596 148.647 321.033 148.142C322.075 146.941 321.931 144.87 320.208 144.186C318.763 143.611 316.892 144.313 315.934 145.347C316.085 145.717 316.212 146.102 316.303 146.502C316.664 148.097 313.904 148.365 313.545 146.784C312.749 143.274 308.113 141.875 305.314 144.462C302.533 147.035 304.301 150.793 307.78 151.802C308.906 152.129 308.778 153.512 308.034 154.078C306.357 155.35 305.913 157.765 307.428 159.303C308.748 160.644 311.283 160.758 313.119 160.061C312.831 159.022 314.433 157.841 315.405 158.758C318.046 161.245 323.178 161.529 325.414 158.368C327.682 155.165 325.155 150.91 321.474 149.86ZM327.719 159.673C324.778 164.06 317.786 164.395 313.924 161.014C311.61 163.196 307.77 163.277 305.344 160.849C303.255 158.758 303.317 155.745 304.851 153.502C300.538 151.133 299.535 145.398 303.662 142.156C307.737 138.955 313.281 140.587 315.505 144.467C316.567 142.41 319.285 141.421 321.646 142.63C323.895 143.781 324.474 146.226 323.671 148.261C328.137 150.236 330.474 155.563 327.719 159.673Z" fill="#D9B3B3"/>
<path d="M254.033 185.957C255.726 186.231 257.07 187.959 258.218 189.019C259.529 190.23 257.92 192.116 256.355 191.089C255.654 190.63 254.953 190.172 254.252 189.713C253.522 189.234 252.672 188.628 252.374 187.835C252.01 186.864 252.852 185.767 254.033 185.957Z" fill="#D9B3B3"/>
<path d="M253.425 198.535C252.14 197.709 250.424 196.941 249.741 195.595C249.503 195.129 250.011 194.683 250.507 194.728C252.111 194.88 253.53 196.185 254.789 197.017C255.915 197.759 254.552 199.257 253.425 198.535Z" fill="#D9B3B3"/>
<path d="M280.89 140.228C280.869 141.52 279.331 142.129 278.351 141.122C276.958 139.696 276.436 138.203 274.334 137.364C272.665 136.697 270.091 136.53 268.329 137.017C267.2 137.331 266.19 135.947 267.286 135.278C268.523 134.523 269.437 133.933 270.98 133.879C272.488 133.826 274 134.092 275.393 134.617C277.695 135.484 280.931 137.706 280.89 140.228Z" fill="#D9B3B3"/>
<path d="M275.22 128.529C276.739 127.754 278.771 127.495 280.322 128.342C282.065 129.29 283.523 131.125 282.437 132.906C281.965 133.684 280.895 133.859 280.218 133.223C280.173 133.198 280.12 133.167 280.061 133.132C279.961 133.035 279.861 132.939 279.762 132.843C279.649 132.701 279.363 132.24 279.273 132.098C279.089 131.801 278.898 131.505 278.628 131.269C278.036 130.75 277.183 130.154 276.323 130.367C275.172 130.656 273.975 129.168 275.22 128.529Z" fill="#D9B3B3"/>
<path d="M354.401 157.826C353.876 157.621 354.117 156.813 354.696 156.932C357.328 157.474 359.209 159.474 359.145 161.98C359.08 164.555 356.861 166.479 354.129 166.841C351.317 167.214 348.6 165.794 347.77 163.293C347.144 161.407 347.455 156.886 350.387 156.797C351.236 156.772 352.157 157.403 351.937 158.275C351.728 159.104 351.298 159.426 350.664 160.013C350.035 160.594 349.826 161.271 349.884 162.087C350.008 163.835 351.63 164.92 353.484 164.852C357.883 164.687 357.971 159.22 354.401 157.826Z" fill="#D9B3B3"/>
<path d="M231.7 160.267C232.36 160.084 232.958 159.965 233.195 159.301C233.484 158.488 235.054 158.711 235.049 159.567C235.04 161.29 233.379 162.829 231.394 162.461C230.559 162.304 229.741 161.886 229.248 161.247C228.786 160.649 228.711 159.952 228.599 159.276C228.057 158.156 229.039 156.751 230.214 156.247C230.982 155.915 231.97 156.316 232.343 156.964C232.764 157.687 232.53 158.462 231.856 158.982C231.731 159.078 231.606 159.174 231.48 159.271C231.466 159.281 231.118 159.59 231.316 159.392C231.205 159.504 231.099 159.6 230.996 159.686C231.004 159.734 231.007 159.783 231.015 159.828C231.038 159.892 231.068 159.96 231.107 160.018C231.185 160.14 231.269 160.203 231.4 160.274C231.594 160.353 231.608 160.355 231.447 160.282C231.53 160.277 231.617 160.272 231.7 160.267Z" fill="#D9B3B3"/>
<path d="M0.208275 45.2764C0.767771 44.8025 1.07117 43.8191 1.53324 43.2337C2.05098 42.5773 2.68838 42.0172 3.36479 41.4977C4.74544 40.4409 6.33211 39.6755 8.044 39.1687C8.59793 39.0065 8.92913 39.7592 8.3752 39.9416C6.83311 40.451 5.41353 41.1784 4.17485 42.1617C3.37318 42.7978 1.73363 44.0979 1.19084 45.2054C2.77747 45.1801 4.72041 44.6606 5.48867 43.3833C7.44551 40.1266 11.7823 44.3311 8.8707 45.8948C6.11497 47.3773 2.87212 47.8994 0.185985 46.019C-0.103505 45.8162 -0.0227605 45.4741 0.208275 45.2764Z" fill="#D9B3B3"/>
<path d="M17.3745 54.679C18.7552 54.2456 19.4622 55.9994 18.1873 56.5746C17.1629 57.0359 16.0551 57.5123 15.2952 58.3132C14.95 58.6756 14.2374 59.7628 14.7078 60.252C14.8693 60.4192 15.2868 60.1987 15.4678 60.11C15.6125 60.0365 15.7517 59.9656 15.8853 59.8769C15.9076 59.849 15.927 59.8287 15.9577 59.7932C16.2639 59.446 16.4838 59.071 16.9319 58.8403C17.5944 58.4957 18.5631 58.3461 19.181 58.8986C20.8929 60.4344 19.7489 62.6672 17.8839 63.5846C16.2528 64.388 13.9479 64.0966 12.648 62.8826C11.2367 61.5648 11.1672 59.4689 12.1247 57.9102C13.2326 56.1134 15.3342 55.3176 17.3745 54.679Z" fill="#D9B3B3"/>
</svg>
