<svg width="160" height="158" viewBox="0 0 160 158" fill="none" xmlns="http://www.w3.org/2000/svg">
<path d="M16.9199 89.1949C20.5226 82.8116 24.4916 76.524 28.2523 70.6292C33.2262 62.8332 38.4689 54.892 43.8293 47.03C49.8719 38.1713 54.6173 31.4942 59.2215 25.375C59.7895 24.6191 60.3608 23.8666 60.9355 23.1174L61.7454 22.0711C62.3167 21.4077 62.8612 20.7212 63.3888 20.0512C63.8156 19.5099 64.2424 18.9686 64.6861 18.4438C65.496 17.4767 66.3732 16.4337 67.3142 15.437C67.6906 15.6284 68.0401 15.8132 68.3493 15.975C74.7918 19.3779 81.0798 23.3055 86.625 26.7711C94.1799 31.4943 101.97 36.5441 110.439 42.2112C119.16 48.0466 126.272 52.9711 132.822 57.7041C134.331 58.7966 135.833 59.8957 137.328 61.0113L138.508 61.8959C139.056 62.315 139.6 62.7342 140.141 63.1567C141.452 64.1799 142.675 65.1436 143.828 66.1305C140.756 71.3784 137.305 76.524 133.964 81.5112L133.41 82.3363C128.735 89.3105 123.707 96.6278 117.584 105.368C111.888 113.497 106.658 120.838 101.59 127.805C99.0362 131.317 96.9223 134.188 94.9395 136.839C94.0623 138.01 93.1785 139.182 92.2845 140.344C91.982 140.74 91.6762 141.136 91.367 141.532C91.283 141.489 91.199 141.446 91.1149 141.407C90.0025 140.846 88.8364 140.228 87.445 139.459C81.0596 135.938 74.9061 132.106 67.6267 127.429C60.0516 122.567 52.1438 117.286 44.1217 111.735C40.1627 108.992 36.5163 106.424 32.9775 103.876C31.3173 102.681 29.6604 101.48 28.017 100.265C27.2273 99.6842 26.4442 99.1033 25.6612 98.5191L24.3337 97.519L23.6078 96.9645C21.0502 95.0072 18.4322 93.0005 16.0158 90.8155C16.2847 90.3238 16.5805 89.7923 16.9199 89.1949ZM7.06951 102.401L7.20735 102.516C13.0349 107.401 19.0405 111.774 25.7216 116.573C33.1287 121.897 40.798 127.194 49.1662 132.772C58.0117 138.667 65.2944 143.318 72.0864 147.414L72.5065 147.665C77.756 150.83 83.1836 154.104 89.0313 156.332C89.9622 156.688 91.7064 157.236 93.5817 157.236C94.9731 157.236 96.4384 156.933 97.6953 156.022C97.9608 155.83 98.2263 155.629 98.4851 155.414C98.6598 155.292 98.8346 155.164 99.006 155.025C99.9268 154.299 100.639 153.368 101.328 152.467C101.506 152.236 101.681 152.008 101.853 151.787C103.671 149.51 105.613 146.981 107.801 144.057C113.165 136.882 118.29 129.733 122.598 123.686C128.493 115.402 134.19 107.256 139.523 99.4795C144.773 91.8189 149.131 85.3663 153.329 78.7552C154.781 76.4712 156.192 74.2268 157.503 71.8735L157.621 71.6623C158.733 69.672 159.993 67.4144 160 64.9126C160.003 61.6021 157.802 59.1036 155.88 57.2948C154.058 55.5785 152.143 54.0702 150.005 52.4133C142.763 46.7925 135.406 41.627 129.165 37.3198C121.281 31.8771 113 26.3486 104.551 20.8895C98.1255 16.7374 90.4798 11.8624 82.4946 7.19208C80.0211 5.74643 77.3628 4.21498 74.6473 2.83203L74.0861 2.54491C72.2847 1.62074 70.4229 0.663559 68.4098 0.224579C61.9975 -1.17157 57.4874 4.24802 54.1938 8.20212L53.8309 8.63776C48.7729 14.6943 44.1519 20.9951 38.7714 28.593C33.4984 36.0391 28.1111 43.9506 22.3004 52.7863C16.7081 61.2886 12.2484 68.3122 8.26257 74.8836C7.80887 75.6296 7.34846 76.3821 6.88132 77.1379C4.48511 81.0161 2.00487 85.0263 0.482454 89.3269C-1.58104 95.1525 3.41974 99.3409 7.06951 102.401Z" fill="#FFFBF7"/>
<path d="M80 103.033C95.4672 103.033 108 90.7069 108 75.5169C108 60.3168 95.4672 48.0006 80 48.0006C64.5328 48.0006 52 60.3168 52 75.5169C52 90.7069 64.5328 103.033 80 103.033Z" fill="#D9B3B3"/>
</svg>
