<svg width="136" height="134" viewBox="0 0 136 134" fill="none" xmlns="http://www.w3.org/2000/svg">
<path d="M14.9761 110.314C20.8351 117.563 28.6483 123.496 37.5679 127.468C46.9058 131.625 56.3121 133.727 65.5549 133.727C65.9769 133.727 66.3951 133.723 66.8134 133.715C77.2842 133.499 87.2419 130.705 95.614 125.637C103.853 120.647 110.982 113.285 115.689 104.904C120.651 96.0642 122.989 86.2028 122.27 77.1388C122.035 74.1882 121.643 71.6226 121.073 69.2889C120.373 66.4365 119.293 63.7805 118.331 61.5568C116.514 57.3646 113.803 53.2237 110.275 49.2437C103.614 41.7434 94.4582 36.3294 85.1583 34.3885C82.1813 33.7717 79.3602 33.4259 76.7672 33.367C73.7902 33.3002 70.8892 33.6892 68.4521 34.0821C63.8782 34.8168 59.194 36.4865 54.5289 39.0442C45.4078 44.0457 38.4158 52.3121 35.3513 61.7218C31.8078 72.6009 34.4503 85.2009 42.0848 93.8209C45.8108 98.0326 50.8904 101.085 56.3881 102.425C62.0114 103.796 67.7943 103.639 72.6762 101.989C78.7253 99.9382 83.5729 96.0524 86.3294 91.0431C89.0935 86.018 89.9527 79.9794 88.7513 74.0428C87.6601 68.6681 84.2687 63.7256 79.4477 60.4842C77.6683 59.2859 74.965 58.9126 72.7256 59.5491C70.5736 60.162 68.4863 61.8318 67.5282 63.7059C65.304 68.0552 66.5967 73.1667 70.6041 75.8658C70.8056 76.0623 71.0033 76.2627 71.1934 76.4709C71.3607 76.7459 71.5166 77.0248 71.6649 77.3116C71.7941 77.7242 71.9044 78.1446 71.9956 78.5729C72.0184 79.0758 72.0184 79.5787 71.9918 80.0855C71.8892 80.5884 71.7561 81.0873 71.6002 81.5745C71.4025 81.9634 71.1934 82.3406 70.9615 82.7021C70.6915 83.0086 70.4063 83.3032 70.0984 83.5861C69.5509 83.9633 68.9767 84.305 68.3722 84.6194C67.4825 84.9415 66.5511 85.1969 65.5891 85.3855C64.4029 85.4837 63.1977 85.4798 61.9886 85.3777C60.8138 85.1537 59.6693 84.8315 58.5668 84.4229C57.7037 83.9907 56.8786 83.4918 56.0954 82.9339C55.3274 82.2503 54.6087 81.5038 53.9434 80.7023C53.297 79.7397 52.7229 78.7182 52.2287 77.6496C51.7876 76.4041 51.4493 75.1154 51.2135 73.8032C51.1033 72.4752 51.1033 71.1433 51.2098 69.8232C51.4493 68.4834 51.8067 67.1555 52.2743 65.855C52.9359 64.4092 53.7419 63.0026 54.6772 61.6511C55.9319 60.0913 57.3614 58.6298 58.9431 57.2822C60.8783 55.8324 62.9771 54.5712 65.2014 53.5222C67.5738 52.5675 70.0224 51.876 72.5013 51.4478C74.8092 51.2042 77.136 51.2042 79.4401 51.4478C81.9418 51.88 84.4132 52.5832 86.8161 53.5497C89.257 54.697 91.5952 56.1113 93.7852 57.7654C95.8649 59.5216 97.7622 61.4783 99.4465 63.6038C100.906 65.6743 102.154 67.8587 103.157 70.1218C103.952 72.2473 104.534 74.4396 104.899 76.6634C105.123 79.0207 105.119 81.4213 104.88 83.8297C104.446 86.5367 103.72 89.2358 102.716 91.8839C101.462 94.752 99.8875 97.514 98.0245 100.127C95.9524 102.771 93.6027 105.195 91.0249 107.352C88.3369 109.399 85.4587 111.139 82.4475 112.538C79.1397 113.886 75.6 114.868 71.9006 115.461C67.6689 115.956 63.3193 115.944 58.9431 115.422C54.3274 114.691 49.7954 113.41 45.4496 111.611C41.5145 109.804 37.8417 107.603 34.5035 105.046C31.6481 102.669 29.0399 99.9774 26.7396 97.0346C24.4622 93.8522 22.5155 90.3988 20.9377 86.7449C19.3979 82.7532 18.2915 78.561 17.6489 74.2628C17.1584 69.8271 17.1585 65.3442 17.6451 60.9046C18.2953 56.571 19.413 52.3317 20.9795 48.2771C22.5421 44.6508 24.4546 41.2444 26.6788 38.1328C28.9715 35.2018 31.5797 32.5105 34.4578 30.1178C37.7694 27.5798 41.4384 25.3874 45.3887 23.5801C50.2858 21.545 55.5745 20.0834 61.1407 19.223C67.6803 18.4136 74.4213 18.4333 81.2118 19.2898C87.6867 20.272 93.7891 21.9497 99.3819 24.2795C104.275 26.5072 108.887 29.2888 113.119 32.5537C116.031 34.9543 118.753 37.5984 121.229 40.4312C122.689 42.1009 124.917 43.0635 127.335 43.0753C129.779 43.1107 132.053 42.1245 133.551 40.4351C136.813 36.7616 136.817 31.5951 133.559 27.8665C126.89 20.2484 118.639 13.9151 109.701 9.554C104.473 7.00808 99.2982 5.0594 94.3137 3.76679C90.4736 2.77279 86.3522 2.01451 81.3411 1.38982C64.4523 -0.716068 47.4495 2.23055 33.4655 9.69151C17.8732 18.009 6.41764 32.927 2.03386 50.6227C-0.483102 60.7868 -0.669418 71.7012 1.50536 82.1953C3.58889 92.265 8.24645 101.989 14.9761 110.314Z" fill="#FFFBF7"/>
</svg>
