<svg width="170" height="204" viewBox="0 0 170 204" fill="none" xmlns="http://www.w3.org/2000/svg">
<path d="M105.121 116.717C110.33 122.12 112.889 129.792 110.443 137.063C108.327 143.361 101.936 147.599 95.2298 145.954C80.5084 142.347 88.1528 117.978 91.8903 108.735C96.8538 110.313 101.408 112.861 105.121 116.717ZM83.6415 93.0905C78.408 92.5971 73.1241 92.6696 68.0634 93.23C66.294 93.4278 64.5528 93.6766 62.852 93.9904C36.4104 98.8685 13.097 116.399 7.45723 143.586C5.59159 152.579 19.7904 154.253 21.6461 145.314C25.0996 128.653 38.7406 116.661 54.2083 111.017C61.1169 108.497 69.2932 106.745 77.3734 106.683C71.1322 124.235 67.8339 151.567 89.4745 159.09C99.7596 162.663 111.76 159.323 118.753 151.055C125.864 142.644 127.305 130.41 123.748 120.158C119.788 108.736 111.29 101.434 101.079 97.2479C100.169 96.8754 99.2675 96.4894 98.3329 96.1663C105.504 84.769 115.513 75.1737 127.391 68.749C135.404 64.4154 129.788 51.2551 121.687 55.6373C105.681 64.2947 92.4489 77.294 83.6415 93.0905Z" fill="#FFFBF7"/>
<path d="M38 16.0501C38 24.4692 45.163 31.291 54 31.291C62.8364 31.291 70 24.4692 70 16.0501C70 7.63654 62.8364 0.809156 54 0.809156C45.163 0.809156 38 7.63654 38 16.0501Z" fill="#D9B3B3"/>
</svg>
