<svg width="288" height="258" viewBox="0 0 288 258" fill="none" xmlns="http://www.w3.org/2000/svg">
<path d="M8.55722 4.52051L5.84279 8.37903" stroke="#FFFBF7" stroke-linecap="round"/>
<path d="M8.92429 17.6729L5.47572 21.028" stroke="#FFFBF7" stroke-linecap="round"/>
<path d="M9.38626 31.082L5.01375 33.4183" stroke="#FFFBF7" stroke-linecap="round"/>
<path d="M9.74402 45.0703L4.65596 45.2297" stroke="#FFFBF7" stroke-linecap="round"/>
<path d="M9.19037 59.4717L5.20965 56.6284" stroke="#FFFBF7" stroke-linecap="round"/>
<path d="M7.64664 73.1953L6.75336 68.7052" stroke="#FFFBF7" stroke-linecap="round"/>
<path d="M6.32285 85.9912L8.07714 81.7097" stroke="#FFFBF7" stroke-linecap="round"/>
<path d="M5.78204 98.6436L8.61797 94.8558" stroke="#FFFBF7" stroke-linecap="round"/>
<path d="M5.81085 111.561L8.58914 107.739" stroke="#FFFBF7" stroke-linecap="round"/>
<path d="M6.16809 124.635L8.23192 120.465" stroke="#FFFBF7" stroke-linecap="round"/>
<path d="M6.55234 137.655L7.84767 133.245" stroke="#FFFBF7" stroke-linecap="round"/>
<path d="M6.61887 150.57L7.78116 146.13" stroke="#FFFBF7" stroke-linecap="round"/>
<path d="M6.30197 163.384L8.09804 159.116" stroke="#FFFBF7" stroke-linecap="round"/>
<path d="M5.93063 176.127L8.46937 172.174" stroke="#FFFBF7" stroke-linecap="round"/>
<path d="M5.87338 188.996L8.5266 185.104" stroke="#FFFBF7" stroke-linecap="round"/>
<path d="M6.47635 202.137L7.92367 197.764" stroke="#FFFBF7" stroke-linecap="round"/>
<path d="M8.13239 214.972L6.26759 210.728" stroke="#FFFBF7" stroke-linecap="round"/>
<path d="M9.68768 226.233L4.7123 225.266" stroke="#FFFBF7" stroke-linecap="round"/>
<path d="M8.92734 236.975L5.47266 240.325" stroke="#FFFBF7" stroke-linecap="round"/>
<path d="M7.05508 249.273L7.34489 253.827" stroke="#FFFBF7" stroke-linecap="round"/>
<path d="M23.1761 4.65918L20.0239 8.24074" stroke="#FFFBF7" stroke-linecap="round"/>
<path d="M23.5585 17.8936L19.6415 20.8071" stroke="#FFFBF7" stroke-linecap="round"/>
<path d="M23.8883 31.251L19.3117 33.2491" stroke="#FFFBF7" stroke-linecap="round"/>
<path d="M24.143 45.0469L19.057 45.2522" stroke="#FFFBF7" stroke-linecap="round"/>
<path d="M23.7761 59.2334L19.4239 56.8669" stroke="#FFFBF7" stroke-linecap="round"/>
<path d="M22.6933 73.0098L20.5067 68.891" stroke="#FFFBF7" stroke-linecap="round"/>
<path d="M21.7569 86.126L21.4431 81.5738" stroke="#FFFBF7" stroke-linecap="round"/>
<path d="M21.4037 99.0234L21.7963 94.4762" stroke="#FFFBF7" stroke-linecap="round"/>
<path d="M21.3945 111.923L21.8054 107.377" stroke="#FFFBF7" stroke-linecap="round"/>
<path d="M21.3101 124.815L21.8899 120.284" stroke="#FFFBF7" stroke-linecap="round"/>
<path d="M20.8664 137.634L22.3336 133.266" stroke="#FFFBF7" stroke-linecap="round"/>
<path d="M20.0761 150.177L23.1238 146.523" stroke="#FFFBF7" stroke-linecap="round"/>
<path d="M19.3739 162.356L23.8261 160.144" stroke="#FFFBF7" stroke-linecap="round"/>
<path d="M19.111 174.628L24.089 173.672" stroke="#FFFBF7" stroke-linecap="round"/>
<path d="M19.111 187.528L24.089 186.572" stroke="#FFFBF7" stroke-linecap="round"/>
<path d="M19.59 201.35L23.61 198.551" stroke="#FFFBF7" stroke-linecap="round"/>
<path d="M21.706 215.129L21.494 210.572" stroke="#FFFBF7" stroke-linecap="round"/>
<path d="M24.0515 226.364L19.1485 225.136" stroke="#FFFBF7" stroke-linecap="round"/>
<path d="M23.1552 236.845L20.0448 240.455" stroke="#FFFBF7" stroke-linecap="round"/>
<path d="M21.3481 249.281L21.8518 253.82" stroke="#FFFBF7" stroke-linecap="round"/>
<path d="M37.4854 4.59766L34.5146 8.30151" stroke="#FFFBF7" stroke-linecap="round"/>
<path d="M37.8178 17.7539L34.1822 20.9467" stroke="#FFFBF7" stroke-linecap="round"/>
<path d="M38.0927 30.9512L33.9073 33.548" stroke="#FFFBF7" stroke-linecap="round"/>
<path d="M38.4518 44.5371L33.5482 45.7636" stroke="#FFFBF7" stroke-linecap="round"/>
<path d="M38.4785 58.5703L33.5215 57.5304" stroke="#FFFBF7" stroke-linecap="round"/>
<path d="M37.9555 72.4102L34.0445 69.4903" stroke="#FFFBF7" stroke-linecap="round"/>
<path d="M37.4761 85.708L34.5239 81.9922" stroke="#FFFBF7" stroke-linecap="round"/>
<path d="M37.377 98.668L34.623 94.832" stroke="#FFFBF7" stroke-linecap="round"/>
<path d="M37.3991 111.555L34.6009 107.744" stroke="#FFFBF7" stroke-linecap="round"/>
<path d="M37.0805 124.615L34.9195 120.486" stroke="#FFFBF7" stroke-linecap="round"/>
<path d="M36.0439 137.73L35.9561 133.17" stroke="#FFFBF7" stroke-linecap="round"/>
<path d="M34.4843 150.182L37.5157 146.517" stroke="#FFFBF7" stroke-linecap="round"/>
<path d="M33.5265 161.789L38.4735 160.711" stroke="#FFFBF7" stroke-linecap="round"/>
<path d="M33.5311 173.595L38.4689 174.706" stroke="#FFFBF7" stroke-linecap="round"/>
<path d="M33.6033 186.281L38.3967 187.818" stroke="#FFFBF7" stroke-linecap="round"/>
<path d="M33.4705 200.206L38.5295 199.694" stroke="#FFFBF7" stroke-linecap="round"/>
<path d="M34.9318 214.92L37.0682 210.78" stroke="#FFFBF7" stroke-linecap="round"/>
<path d="M37.995 227.166L34.005 224.333" stroke="#FFFBF7" stroke-linecap="round"/>
<path d="M38.1888 237.485L33.8112 239.814" stroke="#FFFBF7" stroke-linecap="round"/>
<path d="M36.8839 249.411L35.1161 253.688" stroke="#FFFBF7" stroke-linecap="round"/>
<path d="M51.5665 4.42285L49.2335 8.47664" stroke="#FFFBF7" stroke-linecap="round"/>
<path d="M51.7512 17.417L49.0488 21.2823" stroke="#FFFBF7" stroke-linecap="round"/>
<path d="M51.9574 30.4463L48.8426 34.0539" stroke="#FFFBF7" stroke-linecap="round"/>
<path d="M52.459 43.8096L48.3409 46.4913" stroke="#FFFBF7" stroke-linecap="round"/>
<path d="M52.8963 57.6035L47.9036 58.4962" stroke="#FFFBF7" stroke-linecap="round"/>
<path d="M52.9121 71.3184L47.8879 70.581" stroke="#FFFBF7" stroke-linecap="round"/>
<path d="M52.8288 84.5332L47.9712 83.1676" stroke="#FFFBF7" stroke-linecap="round"/>
<path d="M52.8596 97.3379L47.9404 96.1623" stroke="#FFFBF7" stroke-linecap="round"/>
<path d="M52.8876 110.134L47.9124 109.166" stroke="#FFFBF7" stroke-linecap="round"/>
<path d="M52.7528 123.421L48.0472 121.68" stroke="#FFFBF7" stroke-linecap="round"/>
<path d="M51.9225 137.277L48.8775 133.622" stroke="#FFFBF7" stroke-linecap="round"/>
<path d="M49.9258 150.591L50.8743 146.11" stroke="#FFFBF7" stroke-linecap="round"/>
<path d="M48.1616 162.336L52.6384 160.164" stroke="#FFFBF7" stroke-linecap="round"/>
<path d="M47.9008 173.717L52.8992 174.583" stroke="#FFFBF7" stroke-linecap="round"/>
<path d="M48.1337 186.012L52.6663 188.089" stroke="#FFFBF7" stroke-linecap="round"/>
<path d="M47.8905 199.567L52.9095 200.333" stroke="#FFFBF7" stroke-linecap="round"/>
<path d="M48.5043 214.372L52.2957 211.328" stroke="#FFFBF7" stroke-linecap="round"/>
<path d="M51.3514 227.865L49.4486 223.635" stroke="#FFFBF7" stroke-linecap="round"/>
<path d="M52.9361 238.847L47.8639 238.453" stroke="#FFFBF7" stroke-linecap="round"/>
<path d="M52.6509 250.484L48.1491 252.615" stroke="#FFFBF7" stroke-linecap="round"/>
<path d="M65.713 4.32129L63.887 8.57867" stroke="#FFFBF7" stroke-linecap="round"/>
<path d="M65.6611 17.2041L63.9389 21.4961" stroke="#FFFBF7" stroke-linecap="round"/>
<path d="M65.7809 30.1455L63.8191 34.3542" stroke="#FFFBF7" stroke-linecap="round"/>
<path d="M66.3378 43.333L63.2622 46.9676" stroke="#FFFBF7" stroke-linecap="round"/>
<path d="M66.961 56.8447L62.639 59.2552" stroke="#FFFBF7" stroke-linecap="round"/>
<path d="M67.2292 70.2686L62.3709 71.6321" stroke="#FFFBF7" stroke-linecap="round"/>
<path d="M67.2423 83.207L62.3576 84.4927" stroke="#FFFBF7" stroke-linecap="round"/>
<path d="M67.1014 95.7754L62.4986 97.7245" stroke="#FFFBF7" stroke-linecap="round"/>
<path d="M66.9421 108.418L62.6579 110.882" stroke="#FFFBF7" stroke-linecap="round"/>
<path d="M67.1007 121.574L62.4993 123.526" stroke="#FFFBF7" stroke-linecap="round"/>
<path d="M67.3371 135.636L62.2629 135.263" stroke="#FFFBF7" stroke-linecap="round"/>
<path d="M66.29 150.199L63.31 146.501" stroke="#FFFBF7" stroke-linecap="round"/>
<path d="M63.8928 163.381L65.7072 159.119" stroke="#FFFBF7" stroke-linecap="round"/>
<path d="M62.4093 174.934L67.1907 173.367" stroke="#FFFBF7" stroke-linecap="round"/>
<path d="M62.2786 186.736L67.3214 187.363" stroke="#FFFBF7" stroke-linecap="round"/>
<path d="M62.2611 199.784L67.3389 200.115" stroke="#FFFBF7" stroke-linecap="round"/>
<path d="M62.6594 214.084L66.9406 211.616" stroke="#FFFBF7" stroke-linecap="round"/>
<path d="M64.7557 228.03L64.8443 223.47" stroke="#FFFBF7" stroke-linecap="round"/>
<path d="M66.7704 240.094L62.8296 237.206" stroke="#FFFBF7" stroke-linecap="round"/>
<path d="M67.2633 252.125L62.3367 250.975" stroke="#FFFBF7" stroke-linecap="round"/>
<path d="M80.3271 4.40527L78.0729 8.49466" stroke="#FFFBF7" stroke-linecap="round"/>
<path d="M80.0957 17.2158L78.3043 21.485" stroke="#FFFBF7" stroke-linecap="round"/>
<path d="M80.1778 30.1445L78.2222 34.3555" stroke="#FFFBF7" stroke-linecap="round"/>
<path d="M80.6693 43.2881L77.7307 47.0124" stroke="#FFFBF7" stroke-linecap="round"/>
<path d="M81.2063 56.6465L77.1937 59.4536" stroke="#FFFBF7" stroke-linecap="round"/>
<path d="M81.4061 69.8125L76.9939 72.088" stroke="#FFFBF7" stroke-linecap="round"/>
<path d="M81.2367 82.4824L77.1633 85.2183" stroke="#FFFBF7" stroke-linecap="round"/>
<path d="M80.6885 94.9004L77.7115 98.6003" stroke="#FFFBF7" stroke-linecap="round"/>
<path d="M80.075 107.509L78.3251 111.792" stroke="#FFFBF7" stroke-linecap="round"/>
<path d="M80.0452 120.399L78.3548 124.702" stroke="#FFFBF7" stroke-linecap="round"/>
<path d="M80.9035 133.756L77.4965 137.145" stroke="#FFFBF7" stroke-linecap="round"/>
<path d="M81.7427 148.242L76.6573 148.458" stroke="#FFFBF7" stroke-linecap="round"/>
<path d="M80.6648 163.115L77.7352 159.385" stroke="#FFFBF7" stroke-linecap="round"/>
<path d="M78.3409 176.297L80.0591 172.004" stroke="#FFFBF7" stroke-linecap="round"/>
<path d="M77.0494 188.271L81.3505 185.83" stroke="#FFFBF7" stroke-linecap="round"/>
<path d="M76.8392 200.803L81.5608 199.097" stroke="#FFFBF7" stroke-linecap="round"/>
<path d="M77.3165 214.384L81.0835 211.316" stroke="#FFFBF7" stroke-linecap="round"/>
<path d="M78.873 228.012L79.527 223.489" stroke="#FFFBF7" stroke-linecap="round"/>
<path d="M80.5412 240.588L77.8588 236.711" stroke="#FFFBF7" stroke-linecap="round"/>
<path d="M81.1119 253.056L77.2881 250.044" stroke="#FFFBF7" stroke-linecap="round"/>
<path d="M95.5476 4.98145L91.6524 7.91823" stroke="#FFFBF7" stroke-linecap="round"/>
<path d="M95.3554 17.6982L91.8446 21.0013" stroke="#FFFBF7" stroke-linecap="round"/>
<path d="M95.4079 30.6445L91.7921 33.8553" stroke="#FFFBF7" stroke-linecap="round"/>
<path d="M95.6805 43.8359L91.5195 46.464" stroke="#FFFBF7" stroke-linecap="round"/>
<path d="M95.932 57.1357L91.268 58.9644" stroke="#FFFBF7" stroke-linecap="round"/>
<path d="M95.9524 70.0791L91.2476 71.8218" stroke="#FFFBF7" stroke-linecap="round"/>
<path d="M95.6106 82.4512L91.5894 85.2484" stroke="#FFFBF7" stroke-linecap="round"/>
<path d="M94.6771 94.6836L92.5228 98.816" stroke="#FFFBF7" stroke-linecap="round"/>
<path d="M93.5323 107.37L93.6678 111.929" stroke="#FFFBF7" stroke-linecap="round"/>
<path d="M92.997 120.335L94.203 124.766" stroke="#FFFBF7" stroke-linecap="round"/>
<path d="M93.512 133.171L93.688 137.729" stroke="#FFFBF7" stroke-linecap="round"/>
<path d="M95.0527 146.478L92.1473 150.223" stroke="#FFFBF7" stroke-linecap="round"/>
<path d="M96.1442 161.176L91.0558 161.325" stroke="#FFFBF7" stroke-linecap="round"/>
<path d="M95.1016 175.991L92.0984 172.308" stroke="#FFFBF7" stroke-linecap="round"/>
<path d="M93.2696 189.312L93.9304 184.789" stroke="#FFFBF7" stroke-linecap="round"/>
<path d="M92.4319 201.977L94.7681 197.924" stroke="#FFFBF7" stroke-linecap="round"/>
<path d="M92.7772 215.008L94.4228 210.692" stroke="#FFFBF7" stroke-linecap="round"/>
<path d="M94.0227 227.999L93.1773 223.502" stroke="#FFFBF7" stroke-linecap="round"/>
<path d="M95.2107 240.416L91.9893 236.884" stroke="#FFFBF7" stroke-linecap="round"/>
<path d="M95.5782 252.985L91.6217 250.115" stroke="#FFFBF7" stroke-linecap="round"/>
<path d="M110.544 6.54199L105.456 6.35836" stroke="#FFFBF7" stroke-linecap="round"/>
<path d="M110.545 19.3125L105.455 19.3884" stroke="#FFFBF7" stroke-linecap="round"/>
<path d="M110.546 32.2441L105.454 32.2554" stroke="#FFFBF7" stroke-linecap="round"/>
<path d="M110.538 45.3311L105.462 44.9686" stroke="#FFFBF7" stroke-linecap="round"/>
<path d="M110.512 58.4209L105.488 57.6799" stroke="#FFFBF7" stroke-linecap="round"/>
<path d="M110.541 71.0859L105.459 70.8143" stroke="#FFFBF7" stroke-linecap="round"/>
<path d="M110.398 83.085L105.602 84.6144" stroke="#FFFBF7" stroke-linecap="round"/>
<path d="M109.449 94.875L106.551 98.6248" stroke="#FFFBF7" stroke-linecap="round"/>
<path d="M107.929 107.37L108.071 111.929" stroke="#FFFBF7" stroke-linecap="round"/>
<path d="M106.936 120.479L109.064 124.622" stroke="#FFFBF7" stroke-linecap="round"/>
<path d="M106.936 133.379L109.064 137.522" stroke="#FFFBF7" stroke-linecap="round"/>
<path d="M108.033 146.069L107.967 150.63" stroke="#FFFBF7" stroke-linecap="round"/>
<path d="M109.811 159.647L106.189 162.852" stroke="#FFFBF7" stroke-linecap="round"/>
<path d="M110.529 174.412L105.471 173.888" stroke="#FFFBF7" stroke-linecap="round"/>
<path d="M109.67 188.771L106.33 185.329" stroke="#FFFBF7" stroke-linecap="round"/>
<path d="M108.863 202.096L107.137 197.805" stroke="#FFFBF7" stroke-linecap="round"/>
<path d="M109.032 214.935L106.968 210.765" stroke="#FFFBF7" stroke-linecap="round"/>
<path d="M109.839 227.327L106.161 224.173" stroke="#FFFBF7" stroke-linecap="round"/>
<path d="M110.403 239.401L105.597 237.898" stroke="#FFFBF7" stroke-linecap="round"/>
<path d="M110.512 251.921L105.488 251.179" stroke="#FFFBF7" stroke-linecap="round"/>
<path d="M123.836 8.33301L120.964 4.56666" stroke="#FFFBF7" stroke-linecap="round"/>
<path d="M123.806 21.251L120.994 17.4487" stroke="#FFFBF7" stroke-linecap="round"/>
<path d="M123.813 34.1465L120.987 30.3531" stroke="#FFFBF7" stroke-linecap="round"/>
<path d="M123.856 47.0205L120.944 43.2797" stroke="#FFFBF7" stroke-linecap="round"/>
<path d="M123.968 59.8467L120.832 56.2541" stroke="#FFFBF7" stroke-linecap="round"/>
<path d="M124.35 72.416L120.45 69.4841" stroke="#FFFBF7" stroke-linecap="round"/>
<path d="M124.874 84.3877L119.926 83.3115" stroke="#FFFBF7" stroke-linecap="round"/>
<path d="M124.719 95.8105L120.081 97.6902" stroke="#FFFBF7" stroke-linecap="round"/>
<path d="M123.508 107.597L121.292 111.703" stroke="#FFFBF7" stroke-linecap="round"/>
<path d="M122.223 120.275L122.577 124.825" stroke="#FFFBF7" stroke-linecap="round"/>
<path d="M121.763 133.242L123.037 137.658" stroke="#FFFBF7" stroke-linecap="round"/>
<path d="M122.29 146.071L122.51 150.628" stroke="#FFFBF7" stroke-linecap="round"/>
<path d="M123.619 159.248L121.181 163.252" stroke="#FFFBF7" stroke-linecap="round"/>
<path d="M124.767 173.311L120.033 174.99" stroke="#FFFBF7" stroke-linecap="round"/>
<path d="M124.888 187.53L119.912 186.569" stroke="#FFFBF7" stroke-linecap="round"/>
<path d="M124.649 201.019L120.151 198.881" stroke="#FFFBF7" stroke-linecap="round"/>
<path d="M124.754 213.717L120.046 211.982" stroke="#FFFBF7" stroke-linecap="round"/>
<path d="M124.945 225.813L119.855 225.687" stroke="#FFFBF7" stroke-linecap="round"/>
<path d="M124.777 237.833L120.023 239.466" stroke="#FFFBF7" stroke-linecap="round"/>
<path d="M124.573 250.361L120.227 252.738" stroke="#FFFBF7" stroke-linecap="round"/>
<path d="M136.091 8.63965L137.509 4.25945" stroke="#FFFBF7" stroke-linecap="round"/>
<path d="M135.892 21.4805L137.708 17.2196" stroke="#FFFBF7" stroke-linecap="round"/>
<path d="M135.941 34.3965L137.659 30.1032" stroke="#FFFBF7" stroke-linecap="round"/>
<path d="M136.229 47.3721L137.371 42.9275" stroke="#FFFBF7" stroke-linecap="round"/>
<path d="M136.671 60.3271L136.929 55.7721" stroke="#FFFBF7" stroke-linecap="round"/>
<path d="M137.284 73.1885L136.316 68.7107" stroke="#FFFBF7" stroke-linecap="round"/>
<path d="M138.199 85.7549L135.401 81.9451" stroke="#FFFBF7" stroke-linecap="round"/>
<path d="M139.103 97.7217L134.497 95.7783" stroke="#FFFBF7" stroke-linecap="round"/>
<path d="M139.31 109.268L134.29 110.032" stroke="#FFFBF7" stroke-linecap="round"/>
<path d="M138.765 121.101L134.835 124" stroke="#FFFBF7" stroke-linecap="round"/>
<path d="M138.19 133.54L135.41 137.361" stroke="#FFFBF7" stroke-linecap="round"/>
<path d="M138.136 146.409L135.464 150.292" stroke="#FFFBF7" stroke-linecap="round"/>
<path d="M138.61 159.646L134.99 162.854" stroke="#FFFBF7" stroke-linecap="round"/>
<path d="M139.139 173.25L134.461 175.05" stroke="#FFFBF7" stroke-linecap="round"/>
<path d="M139.336 186.854L134.264 187.245" stroke="#FFFBF7" stroke-linecap="round"/>
<path d="M139.345 200L134.255 199.9" stroke="#FFFBF7" stroke-linecap="round"/>
<path d="M139.319 212.524L134.281 213.177" stroke="#FFFBF7" stroke-linecap="round"/>
<path d="M139.028 224.647L134.572 226.853" stroke="#FFFBF7" stroke-linecap="round"/>
<path d="M138.423 236.893L135.177 240.407" stroke="#FFFBF7" stroke-linecap="round"/>
<path d="M138.001 249.539L135.599 253.561" stroke="#FFFBF7" stroke-linecap="round"/>
<path d="M149.213 7.875L153.187 5.02518" stroke="#FFFBF7" stroke-linecap="round"/>
<path d="M149.028 20.54L153.372 18.1601" stroke="#FFFBF7" stroke-linecap="round"/>
<path d="M149.079 33.5107L153.321 30.9898" stroke="#FFFBF7" stroke-linecap="round"/>
<path d="M149.35 46.7168L153.05 43.584" stroke="#FFFBF7" stroke-linecap="round"/>
<path d="M149.781 59.9434L152.619 56.1572" stroke="#FFFBF7" stroke-linecap="round"/>
<path d="M150.239 73.0615L152.161 68.8384" stroke="#FFFBF7" stroke-linecap="round"/>
<path d="M150.8 86.1016L151.6 81.5975" stroke="#FFFBF7" stroke-linecap="round"/>
<path d="M151.601 99.002L150.799 94.4982" stroke="#FFFBF7" stroke-linecap="round"/>
<path d="M152.533 111.593L149.867 107.708" stroke="#FFFBF7" stroke-linecap="round"/>
<path d="M153.276 123.869L149.124 121.231" stroke="#FFFBF7" stroke-linecap="round"/>
<path d="M153.646 136.081L148.754 134.818" stroke="#FFFBF7" stroke-linecap="round"/>
<path d="M153.74 148.506L148.66 148.195" stroke="#FFFBF7" stroke-linecap="round"/>
<path d="M153.746 161.256L148.654 161.244" stroke="#FFFBF7" stroke-linecap="round"/>
<path d="M153.745 174.203L148.655 174.096" stroke="#FFFBF7" stroke-linecap="round"/>
<path d="M153.745 187.116L148.656 186.983" stroke="#FFFBF7" stroke-linecap="round"/>
<path d="M153.74 199.799L148.66 200.1" stroke="#FFFBF7" stroke-linecap="round"/>
<path d="M153.632 212.177L148.768 213.524" stroke="#FFFBF7" stroke-linecap="round"/>
<path d="M153.245 224.392L149.155 227.108" stroke="#FFFBF7" stroke-linecap="round"/>
<path d="M152.647 236.774L149.753 240.526" stroke="#FFFBF7" stroke-linecap="round"/>
<path d="M152.226 249.463L150.174 253.637" stroke="#FFFBF7" stroke-linecap="round"/>
<path d="M163.218 7.25293L167.982 5.64657" stroke="#FFFBF7" stroke-linecap="round"/>
<path d="M163.139 19.9326L168.061 18.7667" stroke="#FFFBF7" stroke-linecap="round"/>
<path d="M163.199 33.0088L168.001 31.4912" stroke="#FFFBF7" stroke-linecap="round"/>
<path d="M163.396 46.292L167.804 44.0086" stroke="#FFFBF7" stroke-linecap="round"/>
<path d="M163.679 59.5459L167.521 56.5537" stroke="#FFFBF7" stroke-linecap="round"/>
<path d="M163.91 72.6553L167.29 69.2453" stroke="#FFFBF7" stroke-linecap="round"/>
<path d="M164.018 85.6367L167.182 82.0638" stroke="#FFFBF7" stroke-linecap="round"/>
<path d="M164.13 98.6123L167.07 94.8887" stroke="#FFFBF7" stroke-linecap="round"/>
<path d="M164.393 111.658L166.807 107.642" stroke="#FFFBF7" stroke-linecap="round"/>
<path d="M164.888 124.739L166.312 120.361" stroke="#FFFBF7" stroke-linecap="round"/>
<path d="M165.606 137.73L165.594 133.17" stroke="#FFFBF7" stroke-linecap="round"/>
<path d="M166.397 150.516L164.803 146.184" stroke="#FFFBF7" stroke-linecap="round"/>
<path d="M167.057 163.12L164.143 159.381" stroke="#FFFBF7" stroke-linecap="round"/>
<path d="M167.545 175.621L163.655 172.678" stroke="#FFFBF7" stroke-linecap="round"/>
<path d="M167.888 188.05L163.312 186.051" stroke="#FFFBF7" stroke-linecap="round"/>
<path d="M168.095 200.4L163.105 199.499" stroke="#FFFBF7" stroke-linecap="round"/>
<path d="M168.139 212.69L163.061 213.01" stroke="#FFFBF7" stroke-linecap="round"/>
<path d="M167.996 224.981L163.204 226.519" stroke="#FFFBF7" stroke-linecap="round"/>
<path d="M167.725 237.395L163.475 239.905" stroke="#FFFBF7" stroke-linecap="round"/>
<path d="M167.512 250.045L163.688 253.056" stroke="#FFFBF7" stroke-linecap="round"/>
<path d="M177.526 6.98633L182.474 5.91347" stroke="#FFFBF7" stroke-linecap="round"/>
<path d="M177.522 19.8711L182.478 18.8292" stroke="#FFFBF7" stroke-linecap="round"/>
<path d="M177.65 33.127L182.35 31.3736" stroke="#FFFBF7" stroke-linecap="round"/>
<path d="M177.917 46.4609L182.083 43.8395" stroke="#FFFBF7" stroke-linecap="round"/>
<path d="M178.173 59.6377L181.827 56.4619" stroke="#FFFBF7" stroke-linecap="round"/>
<path d="M178.248 72.6045L181.752 69.2954" stroke="#FFFBF7" stroke-linecap="round"/>
<path d="M178.122 85.3896L181.878 82.311" stroke="#FFFBF7" stroke-linecap="round"/>
<path d="M177.906 98.0469L182.094 95.4527" stroke="#FFFBF7" stroke-linecap="round"/>
<path d="M177.769 110.748L182.231 108.551" stroke="#FFFBF7" stroke-linecap="round"/>
<path d="M177.799 123.696L182.201 121.404" stroke="#FFFBF7" stroke-linecap="round"/>
<path d="M178.087 136.954L181.913 133.945" stroke="#FFFBF7" stroke-linecap="round"/>
<path d="M178.729 150.326L181.271 146.375" stroke="#FFFBF7" stroke-linecap="round"/>
<path d="M179.661 163.51L180.339 158.989" stroke="#FFFBF7" stroke-linecap="round"/>
<path d="M180.658 176.353L179.342 171.947" stroke="#FFFBF7" stroke-linecap="round"/>
<path d="M181.481 188.904L178.519 185.195" stroke="#FFFBF7" stroke-linecap="round"/>
<path d="M182.022 201.335L177.978 198.565" stroke="#FFFBF7" stroke-linecap="round"/>
<path d="M182.314 213.8L177.686 211.9" stroke="#FFFBF7" stroke-linecap="round"/>
<path d="M182.451 226.364L177.549 225.136" stroke="#FFFBF7" stroke-linecap="round"/>
<path d="M182.512 239.021L177.488 238.279" stroke="#FFFBF7" stroke-linecap="round"/>
<path d="M182.532 251.783L177.468 251.316" stroke="#FFFBF7" stroke-linecap="round"/>
<path d="M191.913 6.9375L196.887 5.96245" stroke="#FFFBF7" stroke-linecap="round"/>
<path d="M191.998 20.1055L196.802 18.5936" stroke="#FFFBF7" stroke-linecap="round"/>
<path d="M192.31 33.5518L196.49 30.9474" stroke="#FFFBF7" stroke-linecap="round"/>
<path d="M192.799 46.9229L196.001 43.3765" stroke="#FFFBF7" stroke-linecap="round"/>
<path d="M193.165 60.0439L195.635 56.0557" stroke="#FFFBF7" stroke-linecap="round"/>
<path d="M193.175 72.9492L195.625 68.9511" stroke="#FFFBF7" stroke-linecap="round"/>
<path d="M192.871 85.6729L195.929 82.0264" stroke="#FFFBF7" stroke-linecap="round"/>
<path d="M192.475 98.2412L196.325 95.2579" stroke="#FFFBF7" stroke-linecap="round"/>
<path d="M192.187 110.777L196.613 108.524" stroke="#FFFBF7" stroke-linecap="round"/>
<path d="M192.101 123.53L196.699 121.57" stroke="#FFFBF7" stroke-linecap="round"/>
<path d="M192.237 136.652L196.563 134.248" stroke="#FFFBF7" stroke-linecap="round"/>
<path d="M192.672 150.024L196.128 146.676" stroke="#FFFBF7" stroke-linecap="round"/>
<path d="M193.438 163.361L195.362 159.139" stroke="#FFFBF7" stroke-linecap="round"/>
<path d="M194.348 176.43L194.452 171.87" stroke="#FFFBF7" stroke-linecap="round"/>
<path d="M195.113 189.239L193.687 184.861" stroke="#FFFBF7" stroke-linecap="round"/>
<path d="M195.574 201.974L193.226 197.927" stroke="#FFFBF7" stroke-linecap="round"/>
<path d="M195.742 214.788L193.058 210.912" stroke="#FFFBF7" stroke-linecap="round"/>
<path d="M195.709 227.706L193.091 223.794" stroke="#FFFBF7" stroke-linecap="round"/>
<path d="M195.608 240.657L193.192 236.642" stroke="#FFFBF7" stroke-linecap="round"/>
<path d="M195.543 253.588L193.257 249.513" stroke="#FFFBF7" stroke-linecap="round"/>
<path d="M206.338 7.02832L211.262 5.87114" stroke="#FFFBF7" stroke-linecap="round"/>
<path d="M206.565 20.4414L211.035 18.2578" stroke="#FFFBF7" stroke-linecap="round"/>
<path d="M207.15 33.9863L210.45 30.513" stroke="#FFFBF7" stroke-linecap="round"/>
<path d="M207.941 47.2969L209.659 43.0037" stroke="#FFFBF7" stroke-linecap="round"/>
<path d="M208.523 60.3164L209.077 55.7826" stroke="#FFFBF7" stroke-linecap="round"/>
<path d="M208.641 73.2256L208.959 68.6737" stroke="#FFFBF7" stroke-linecap="round"/>
<path d="M208.332 86.0918L209.268 81.6086" stroke="#FFFBF7" stroke-linecap="round"/>
<path d="M207.852 98.8662L209.748 94.6336" stroke="#FFFBF7" stroke-linecap="round"/>
<path d="M207.473 111.596L210.127 107.704" stroke="#FFFBF7" stroke-linecap="round"/>
<path d="M207.338 124.417L210.262 120.684" stroke="#FFFBF7" stroke-linecap="round"/>
<path d="M207.472 137.396L210.128 133.504" stroke="#FFFBF7" stroke-linecap="round"/>
<path d="M207.874 150.475L209.726 146.226" stroke="#FFFBF7" stroke-linecap="round"/>
<path d="M208.458 163.51L209.142 158.99" stroke="#FFFBF7" stroke-linecap="round"/>
<path d="M209.006 176.423L208.594 171.877" stroke="#FFFBF7" stroke-linecap="round"/>
<path d="M209.312 189.284L208.288 184.816" stroke="#FFFBF7" stroke-linecap="round"/>
<path d="M209.283 202.189L208.317 197.711" stroke="#FFFBF7" stroke-linecap="round"/>
<path d="M208.943 215.127L208.657 210.573" stroke="#FFFBF7" stroke-linecap="round"/>
<path d="M208.425 228.006L209.175 223.495" stroke="#FFFBF7" stroke-linecap="round"/>
<path d="M207.95 240.8L209.65 236.501" stroke="#FFFBF7" stroke-linecap="round"/>
<path d="M207.687 253.601L209.913 249.499" stroke="#FFFBF7" stroke-linecap="round"/>
<path d="M220.837 7.29785L225.563 5.60191" stroke="#FFFBF7" stroke-linecap="round"/>
<path d="M221.242 20.8076L225.158 17.8922" stroke="#FFFBF7" stroke-linecap="round"/>
<path d="M222.072 34.2939L224.328 30.2054" stroke="#FFFBF7" stroke-linecap="round"/>
<path d="M223.097 47.4287L223.303 42.8716" stroke="#FFFBF7" stroke-linecap="round"/>
<path d="M223.896 60.2432L222.504 55.8562" stroke="#FFFBF7" stroke-linecap="round"/>
<path d="M224.266 73.0205L222.134 68.8791" stroke="#FFFBF7" stroke-linecap="round"/>
<path d="M224.271 85.9189L222.129 81.7814" stroke="#FFFBF7" stroke-linecap="round"/>
<path d="M224.096 98.8848L222.304 94.6158" stroke="#FFFBF7" stroke-linecap="round"/>
<path d="M223.943 111.831L222.457 107.469" stroke="#FFFBF7" stroke-linecap="round"/>
<path d="M223.887 124.746L222.513 120.354" stroke="#FFFBF7" stroke-linecap="round"/>
<path d="M223.942 137.631L222.458 133.268" stroke="#FFFBF7" stroke-linecap="round"/>
<path d="M224.094 150.485L222.306 146.215" stroke="#FFFBF7" stroke-linecap="round"/>
<path d="M224.264 163.321L222.136 159.178" stroke="#FFFBF7" stroke-linecap="round"/>
<path d="M224.298 176.207L222.102 172.092" stroke="#FFFBF7" stroke-linecap="round"/>
<path d="M224.071 189.192L222.329 184.907" stroke="#FFFBF7" stroke-linecap="round"/>
<path d="M223.525 202.212L222.875 197.688" stroke="#FFFBF7" stroke-linecap="round"/>
<path d="M222.718 215.089L223.682 210.61" stroke="#FFFBF7" stroke-linecap="round"/>
<path d="M221.881 227.7L224.519 223.799" stroke="#FFFBF7" stroke-linecap="round"/>
<path d="M221.281 240.148L225.119 237.151" stroke="#FFFBF7" stroke-linecap="round"/>
<path d="M221.005 252.706L225.395 250.395" stroke="#FFFBF7" stroke-linecap="round"/>
<path d="M235.601 7.8623L239.599 5.03782" stroke="#FFFBF7" stroke-linecap="round"/>
<path d="M236.161 21.2305L239.039 17.4689" stroke="#FFFBF7" stroke-linecap="round"/>
<path d="M237.084 34.4834L238.116 30.0173" stroke="#FFFBF7" stroke-linecap="round"/>
<path d="M238.162 47.374L237.038 42.9259" stroke="#FFFBF7" stroke-linecap="round"/>
<path d="M239.057 59.9199L236.143 56.1802" stroke="#FFFBF7" stroke-linecap="round"/>
<path d="M239.601 72.3594L235.599 69.5398" stroke="#FFFBF7" stroke-linecap="round"/>
<path d="M239.863 84.8945L235.337 82.8063" stroke="#FFFBF7" stroke-linecap="round"/>
<path d="M239.978 97.5625L235.222 95.9367" stroke="#FFFBF7" stroke-linecap="round"/>
<path d="M240.031 110.326L235.169 108.975" stroke="#FFFBF7" stroke-linecap="round"/>
<path d="M240.048 123.177L235.152 121.924" stroke="#FFFBF7" stroke-linecap="round"/>
<path d="M240.031 136.125L235.169 134.774" stroke="#FFFBF7" stroke-linecap="round"/>
<path d="M239.979 149.161L235.221 147.539" stroke="#FFFBF7" stroke-linecap="round"/>
<path d="M239.876 162.271L235.324 160.229" stroke="#FFFBF7" stroke-linecap="round"/>
<path d="M239.664 175.485L235.536 172.815" stroke="#FFFBF7" stroke-linecap="round"/>
<path d="M239.242 188.793L235.958 185.307" stroke="#FFFBF7" stroke-linecap="round"/>
<path d="M238.53 202.072L236.67 197.827" stroke="#FFFBF7" stroke-linecap="round"/>
<path d="M237.57 215.13L237.63 210.569" stroke="#FFFBF7" stroke-linecap="round"/>
<path d="M236.571 227.836L238.629 223.664" stroke="#FFFBF7" stroke-linecap="round"/>
<path d="M235.804 240.267L239.396 237.034" stroke="#FFFBF7" stroke-linecap="round"/>
<path d="M235.4 252.698L239.8 250.402" stroke="#FFFBF7" stroke-linecap="round"/>
<path d="M251.14 8.59668L252.86 4.30412" stroke="#FFFBF7" stroke-linecap="round"/>
<path d="M251.648 21.6084L252.351 17.0912" stroke="#FFFBF7" stroke-linecap="round"/>
<path d="M252.387 34.5039L251.613 29.996" stroke="#FFFBF7" stroke-linecap="round"/>
<path d="M253.253 47.1348L250.747 43.1644" stroke="#FFFBF7" stroke-linecap="round"/>
<path d="M254.019 59.4385L249.981 56.6613" stroke="#FFFBF7" stroke-linecap="round"/>
<path d="M254.462 71.5293L249.538 70.3705" stroke="#FFFBF7" stroke-linecap="round"/>
<path d="M254.534 83.6357L249.466 84.064" stroke="#FFFBF7" stroke-linecap="round"/>
<path d="M254.376 95.9316L249.624 97.5686" stroke="#FFFBF7" stroke-linecap="round"/>
<path d="M254.177 108.468L249.823 110.832" stroke="#FFFBF7" stroke-linecap="round"/>
<path d="M254.089 121.247L249.911 123.853" stroke="#FFFBF7" stroke-linecap="round"/>
<path d="M254.176 134.268L249.824 136.633" stroke="#FFFBF7" stroke-linecap="round"/>
<path d="M254.374 147.526L249.626 149.173" stroke="#FFFBF7" stroke-linecap="round"/>
<path d="M254.525 160.96L249.475 161.539" stroke="#FFFBF7" stroke-linecap="round"/>
<path d="M254.522 174.459L249.478 173.84" stroke="#FFFBF7" stroke-linecap="round"/>
<path d="M254.338 187.952L249.662 186.148" stroke="#FFFBF7" stroke-linecap="round"/>
<path d="M253.975 201.389L250.025 198.511" stroke="#FFFBF7" stroke-linecap="round"/>
<path d="M253.438 214.731L250.562 210.968" stroke="#FFFBF7" stroke-linecap="round"/>
<path d="M252.732 227.935L251.268 223.566" stroke="#FFFBF7" stroke-linecap="round"/>
<path d="M251.91 240.929L252.09 236.371" stroke="#FFFBF7" stroke-linecap="round"/>
<path d="M251.148 253.699L252.852 249.401" stroke="#FFFBF7" stroke-linecap="round"/>
<path d="M267.597 8.46289L265.203 4.43766" stroke="#FFFBF7" stroke-linecap="round"/>
<path d="M267.722 21.2988L265.078 17.4007" stroke="#FFFBF7" stroke-linecap="round"/>
<path d="M267.957 34.0537L264.843 30.4455" stroke="#FFFBF7" stroke-linecap="round"/>
<path d="M268.35 46.6162L264.45 43.6845" stroke="#FFFBF7" stroke-linecap="round"/>
<path d="M268.777 58.8652L264.023 57.2339" stroke="#FFFBF7" stroke-linecap="round"/>
<path d="M268.943 70.8418L263.857 71.0575" stroke="#FFFBF7" stroke-linecap="round"/>
<path d="M268.669 82.8154L264.131 84.8846" stroke="#FFFBF7" stroke-linecap="round"/>
<path d="M268.117 95.0664L264.683 98.4343" stroke="#FFFBF7" stroke-linecap="round"/>
<path d="M267.626 107.651L265.174 111.649" stroke="#FFFBF7" stroke-linecap="round"/>
<path d="M267.45 120.473L265.35 124.628" stroke="#FFFBF7" stroke-linecap="round"/>
<path d="M267.674 133.476L265.126 137.424" stroke="#FFFBF7" stroke-linecap="round"/>
<path d="M268.197 146.734L264.603 149.965" stroke="#FFFBF7" stroke-linecap="round"/>
<path d="M268.693 160.26L264.107 162.241" stroke="#FFFBF7" stroke-linecap="round"/>
<path d="M268.916 173.803L263.884 174.497" stroke="#FFFBF7" stroke-linecap="round"/>
<path d="M268.944 187.133L263.856 186.966" stroke="#FFFBF7" stroke-linecap="round"/>
<path d="M268.927 200.226L263.873 199.673" stroke="#FFFBF7" stroke-linecap="round"/>
<path d="M268.915 213.203L263.885 212.496" stroke="#FFFBF7" stroke-linecap="round"/>
<path d="M268.883 226.253L263.917 225.247" stroke="#FFFBF7" stroke-linecap="round"/>
<path d="M268.748 239.53L264.052 237.769" stroke="#FFFBF7" stroke-linecap="round"/>
<path d="M268.382 252.981L264.418 250.119" stroke="#FFFBF7" stroke-linecap="round"/>
<path d="M283.31 6.83008L278.29 6.06972" stroke="#FFFBF7" stroke-linecap="round"/>
<path d="M283.254 19.9551L278.346 18.7456" stroke="#FFFBF7" stroke-linecap="round"/>
<path d="M283.207 32.9922L278.393 31.5086" stroke="#FFFBF7" stroke-linecap="round"/>
<path d="M283.26 45.7354L278.34 44.5642" stroke="#FFFBF7" stroke-linecap="round"/>
<path d="M283.345 58.1025L278.255 57.9975" stroke="#FFFBF7" stroke-linecap="round"/>
<path d="M283.204 70.2002L278.396 71.7006" stroke="#FFFBF7" stroke-linecap="round"/>
<path d="M282.7 82.333L278.9 85.3678" stroke="#FFFBF7" stroke-linecap="round"/>
<path d="M282.044 94.7607L279.556 98.7399" stroke="#FFFBF7" stroke-linecap="round"/>
<path d="M281.588 107.481L280.012 111.818" stroke="#FFFBF7" stroke-linecap="round"/>
<path d="M281.536 120.367L280.064 124.733" stroke="#FFFBF7" stroke-linecap="round"/>
<path d="M281.936 133.409L279.664 137.49" stroke="#FFFBF7" stroke-linecap="round"/>
<path d="M282.625 146.76L278.975 149.939" stroke="#FFFBF7" stroke-linecap="round"/>
<path d="M283.167 160.41L278.433 162.09" stroke="#FFFBF7" stroke-linecap="round"/>
<path d="M283.336 173.95L278.264 174.349" stroke="#FFFBF7" stroke-linecap="round"/>
<path d="M283.345 186.984L278.255 187.115" stroke="#FFFBF7" stroke-linecap="round"/>
<path d="M283.293 199.487L278.307 200.413" stroke="#FFFBF7" stroke-linecap="round"/>
<path d="M283.022 211.738L278.578 213.962" stroke="#FFFBF7" stroke-linecap="round"/>
<path d="M282.618 224.153L278.982 227.346" stroke="#FFFBF7" stroke-linecap="round"/>
<path d="M282.491 236.945L279.109 240.354" stroke="#FFFBF7" stroke-linecap="round"/>
<path d="M282.79 250.128L278.81 252.972" stroke="#FFFBF7" stroke-linecap="round"/>
</svg>
