<svg width="285" height="286" viewBox="0 0 285 286" fill="none" xmlns="http://www.w3.org/2000/svg">
<path d="M48.2443 124.055C49.5477 115.93 51.6644 108.002 54.4902 100.649C57.6601 93.5142 61.5911 86.7343 66.054 80.6324C70.5585 75.1251 75.647 70.0454 81.0483 65.6333C87.1065 61.2003 93.5924 57.4349 100.162 54.4935C107.481 51.6772 115.271 49.5911 123.164 48.329C132.663 47.2651 142.413 47.2755 152.016 48.3498C162.005 49.9144 171.807 52.5951 181.004 56.2458C189.001 59.8339 196.53 64.1834 203.256 69.0754C209.324 73.9465 214.84 79.4121 219.543 85.1593C223.829 91.0422 227.541 97.4779 230.502 104.112C233.359 111.549 235.465 119.392 236.727 127.278C237.707 136.154 237.707 145.187 236.737 154.116C235.382 162.554 233.161 170.805 230.21 178.482C226.915 185.856 222.817 192.928 218.125 199.343C212.755 205.935 206.613 212.026 200.002 217.325C192.912 222.488 185.237 226.932 177.323 230.499C168.679 233.92 159.691 236.371 150.786 237.779C143.268 238.604 136.427 238.687 129.879 238.051C123.738 236.987 117.481 235.224 111.444 232.888C103.54 229.32 95.7403 224.71 88.3891 219.286C84.0723 215.813 79.9535 212.11 76.1371 208.303C73.5825 205.716 70.9965 202.806 68.3271 199.52C63.1447 192.469 58.7237 184.813 55.2201 176.917C52.0085 168.625 49.6624 159.936 48.286 151.227C47.2746 142.11 47.2745 132.91 48.2443 124.055ZM28.37 225.065C32.2385 230.207 36.9515 236.225 42.5405 241.879C69.6722 269.009 102.31 284.654 134.457 285.917C136.042 285.969 137.647 286 139.253 286C152.819 286 167.063 283.81 180.754 279.585C196.144 274.829 210.127 268.112 222.285 259.6C230.012 254.197 236.529 248.898 242.201 243.402C247.509 238.249 252.733 232.137 258.614 224.168C267.644 211.953 274.828 197.038 279.395 181.027C283.827 165.496 285.683 148.984 284.776 133.286C284.244 124.118 282.982 115.189 281.001 106.74C278.832 97.4362 275.443 88.9978 272.409 81.9676C262.201 58.2589 243.098 37.0744 218.636 22.336C196.248 8.84931 169.951 1.16191 142.59 0.108427C115.521 -0.93463 88.4621 5.57409 66.3564 18.4558C42.9785 32.0677 24.1991 52.6889 13.459 76.5124C2.36446 101.129 -1.99413 127.288 0.842078 152.176C4.03281 180.171 13.5529 205.382 28.37 225.065Z" fill="#EAB8B8" fill-opacity="0.6"/>
</svg>
