<svg width="27" height="28" viewBox="0 0 27 28" fill="none" xmlns="http://www.w3.org/2000/svg">
<g id="linkedin-in 2" clip-path="url(#clip0_323_1313)">
<path id="Vector" d="M5.94482 24.5004H0.554464V8.1434H5.94482V24.5004ZM3.24674 5.91215C1.52308 5.91215 0.125 4.56684 0.125 2.94262C0.125 2.16245 0.453897 1.41423 1.03934 0.862563C1.62478 0.310898 2.4188 0.000976562 3.24674 0.000976562C4.07468 0.000976562 4.86871 0.310898 5.45414 0.862563C6.03959 1.41423 6.36848 2.16245 6.36848 2.94262C6.36848 4.56684 4.96982 5.91215 3.24674 5.91215ZM26.1192 24.5004H20.7404V16.5379C20.7404 14.6403 20.6998 12.2067 17.9379 12.2067C15.1354 12.2067 14.7059 14.2684 14.7059 16.4012V24.5004H9.32134V8.1434H14.4912V10.3746H14.5666C15.2862 9.08949 17.0442 7.73324 19.6668 7.73324C25.1221 7.73324 26.125 11.1184 26.125 15.5153V24.5004H26.1192Z" fill="#D9B3B3"/>
</g>
<defs>
<clipPath id="clip0_323_1313">
<rect width="26" height="28" fill="white" transform="translate(0.125)"/>
</clipPath>
</defs>
</svg>
