<svg width="375" height="318" viewBox="0 0 375 318" fill="none" xmlns="http://www.w3.org/2000/svg">
<path d="M152.918 147.319C154.274 147.382 155.037 148.45 155.175 149.094C155.152 149.174 155.104 149.316 154.993 149.488L152.914 148.14C152.91 147.866 152.923 147.593 152.918 147.319ZM155.411 148.495C155.336 143.55 155.52 138.452 155.957 133.343C156.372 128.528 157.013 123.602 157.864 118.701C158.282 116.31 158.758 113.858 159.29 111.415L159.454 110.659C159.723 109.776 159.923 108.891 160.115 108.027C160.236 107.497 160.356 106.968 160.49 106.449C162.96 97.048 166.221 87.3804 170.185 77.721C172.047 73.1697 174.111 68.6048 176.319 64.1293C176.434 63.9298 176.547 63.7231 176.663 63.5236L176.978 62.9485C177.63 61.7885 178.309 60.6506 179.012 59.5276C180.451 57.2231 181.97 55.055 183.521 53.0883C183.984 52.4975 184.471 51.9216 184.954 51.3562L185.233 51.0222C185.371 50.8903 185.505 50.751 185.647 50.6087C185.782 50.4696 185.921 50.3202 186.073 50.1817C187.537 48.7634 189.19 47.3799 191.403 45.7325C191.421 45.7156 191.443 45.706 191.461 45.6891C191.58 45.6091 191.691 45.5322 191.788 45.4796C192.615 45.025 193.483 44.5861 194.382 44.1764C194.835 43.9611 195.326 43.7543 195.804 43.5539C196.646 43.5672 197.533 43.1886 198.439 42.6807C199.097 42.5361 199.733 42.419 200.35 42.3186C200.583 42.2815 200.896 42.2857 201.229 42.2804C201.96 42.2579 202.754 42.2412 203.5 42.0648C204.435 42.1306 205.378 42.253 206.282 42.3845C206.334 42.4039 206.376 42.4194 206.414 42.4278C207.073 42.6451 207.714 42.8969 208.35 43.1591C208.467 43.2266 208.584 43.294 208.698 43.3544C208.846 43.4336 208.991 43.5056 209.101 43.5763C209.361 43.751 209.604 43.9426 209.846 44.1341C210.2 44.5335 210.647 44.8906 211.137 45.2282C211.34 45.4463 211.539 45.6749 211.731 45.9068C212.122 46.3672 212.473 46.8544 212.824 47.3414C212.897 47.4811 212.976 47.6174 213.045 47.7499C213.167 47.9792 213.292 48.1981 213.404 48.4235C213.898 49.4322 214.359 50.4817 214.767 51.5645C214.799 51.6359 214.821 51.7036 214.847 51.7783C214.963 52.4676 215.15 53.1243 215.326 53.7173C215.444 54.1467 215.566 54.5656 215.647 54.969C216.081 57.1874 216.296 59.419 216.518 61.7772C216.463 62.6394 216.447 63.3203 216.564 63.8796C216.548 64.7151 216.512 65.5427 216.468 66.3737C216.338 68.6769 216.094 71.0147 215.746 73.3134C215.443 75.3152 215.035 77.3482 214.613 79.3351L214.256 80.7237C213.947 81.8998 213.611 83.0711 213.261 84.2316C211.914 88.7034 210.275 93.1611 208.375 97.4792C207.676 99.066 206.923 100.626 206.159 102.183L205.305 103.901C204.638 105.102 203.954 106.286 203.249 107.461C200.839 111.494 198.16 115.425 195.287 119.142C194 120.816 192.642 122.488 191.263 124.092C190.963 124.436 190.306 125.132 189.876 125.587C189.782 125.682 189.697 125.781 189.62 125.876C189.602 125.893 189.581 125.903 189.577 125.913L189.58 125.92C189.514 126.002 189.455 126.081 189.396 126.16C189.046 126.526 188.7 126.9 188.339 127.263C185.038 130.606 181.519 133.772 177.868 136.67C176.092 138.084 174.26 139.454 172.422 140.732C171.932 141.076 171.443 141.42 170.94 141.753C170.772 141.838 170.589 141.947 170.388 142.073L170.385 142.066C170.363 142.076 170.327 142.11 170.287 142.136C169.925 142.362 169.515 142.653 169.011 143.003C169.007 143.013 168.993 143.02 168.986 143.023C165.067 145.353 161.021 147.439 156.919 149.214C156.434 149.418 155.953 149.629 155.465 149.825C155.463 149.783 155.455 149.726 155.45 149.659C155.436 149.571 155.423 149.448 155.41 149.307C155.417 149.019 155.412 148.745 155.411 148.495ZM198.154 40.2043C198.238 40.4251 198.3 40.6382 198.311 40.8493L197.96 40.2499C198.027 40.2278 198.094 40.2232 198.154 40.2043ZM248.973 231.015C248.978 229.986 249.008 228.954 249.062 227.92C249.243 224.273 249.724 220.49 250.537 216.357L250.826 215.328C250.992 214.709 251.168 214.093 251.355 213.482C251.958 211.515 252.651 209.577 253.404 207.715C253.923 206.434 254.502 205.17 255.086 203.937C255.722 203.008 256.197 202.274 256.397 201.578C256.658 201.149 256.929 200.723 257.201 200.298C258.218 198.712 259.33 197.144 260.495 195.655C260.973 195.04 261.465 194.436 261.967 193.836C262.199 193.627 262.443 193.369 262.7 193.062C264.066 191.749 265.355 190.514 266.756 189.392C267.092 189.127 267.431 188.868 267.777 188.607C268.238 188.371 268.778 187.987 269.503 187.441C270.043 187.151 270.758 186.886 271.519 186.608C272.241 186.339 272.98 186.071 273.694 185.729C273.965 185.605 274.233 185.474 274.463 185.335C274.551 185.321 274.632 185.31 274.723 185.303C275.359 185.393 276.046 185.33 276.689 185.192C276.724 185.211 276.762 185.219 276.793 185.231C276.796 185.238 276.796 185.238 276.807 185.242C276.844 185.285 276.877 185.339 276.907 185.386C277.164 185.855 277.506 186.304 277.921 186.684C278.011 186.919 278.147 187.332 278.278 187.713C278.36 187.968 278.465 188.274 278.604 188.599C278.704 189.063 278.792 189.54 278.867 190.007C278.965 190.6 279.018 191.189 279.074 191.785C279.111 192.13 279.148 192.476 279.185 192.822L279.182 193.117C279.11 195.341 278.758 197.555 278.413 199.689C278.405 199.692 278.405 199.692 278.405 199.692C278.183 200.527 277.925 201.361 277.658 202.173C277.079 203.947 276.385 205.713 275.601 207.434C275.508 207.589 275.407 207.764 275.298 207.96L275.274 207.946C275.137 208.25 274.617 209.376 274.364 209.785C273.364 211.448 272.25 213.087 271.064 214.663C270.59 215.285 270.084 215.877 269.579 216.47C269.181 216.824 268.743 217.378 268.133 218.174C268.019 218.303 267.917 218.419 267.826 218.503C267.121 219.205 266.401 219.895 265.655 220.563C264.284 221.809 262.827 223.017 261.327 224.167C260.623 224.703 259.913 225.226 259.19 225.737C258.974 225.887 258.406 226.267 257.889 226.606C257.777 226.683 257.659 226.763 257.54 226.843C257.235 227.025 256.952 227.197 256.816 227.276C255.935 227.782 255.037 228.268 254.132 228.741C252.452 229.611 250.721 230.426 248.971 231.163L248.973 231.015ZM366.848 259.676C358.711 254.454 348.779 256.16 342.692 263.827C342.259 264.37 341.819 264.898 341.372 265.43L340.94 265.955C339.692 267.188 338.218 268.602 336.63 269.939C335.201 271.134 333.686 272.29 332.136 273.368C332.017 273.448 331.78 273.608 331.521 273.778C331.328 273.883 331.145 273.992 330.976 274.095C330.467 274.396 329.954 274.708 329.754 274.816C326.483 276.618 322.992 278.184 319.37 279.464C318.851 279.648 317.477 280.016 317.218 280.074L317.228 280.112C317.09 280.15 316.972 280.194 316.855 280.239C314.949 280.728 312.987 281.148 311.02 281.484C309.135 281.808 307.22 282.068 305.318 282.245C304.427 282.332 303.537 282.401 302.64 282.456L302.092 282.482C298.753 282.416 294.831 282.262 290.862 281.664C289.857 281.518 288.856 281.344 287.855 281.153C287.702 281.119 287.427 281.064 287.12 280.996C286.995 280.967 286.88 280.942 286.779 280.91C286.331 280.795 285.854 280.676 285.656 280.62C284.568 280.313 283.482 279.971 282.403 279.608C280.59 278.994 278.81 278.304 277.113 277.567C276.619 277.352 276.143 277.121 275.656 276.903L274.647 276.43C274.613 276.411 274.572 276.396 274.523 276.366L274.423 276.317C271.544 274.669 268.809 272.809 266.285 270.767C265.888 270.257 265.274 269.761 264.447 269.137C264.064 268.751 263.671 268.36 263.299 267.96C262.193 266.782 261.131 265.548 260.126 264.289C274.671 258.6 287.588 249.398 297.534 237.459C311.047 221.246 320.474 193.615 309.233 171.262C301.905 156.68 287.243 148.728 270.952 150.51C260.143 151.692 248.314 157.913 239.326 167.154C224.137 182.75 215.24 203.305 214.272 225.036C214.139 228.125 214.139 231.189 214.284 234.229C213.318 233.962 212.349 233.67 211.392 233.365C209.375 232.722 207.345 231.973 205.367 231.149C204.315 230.714 203.279 230.254 202.239 229.77C202.001 229.663 201.432 229.379 200.908 229.117C200.749 229.034 200.57 228.943 200.387 228.863C200.211 228.761 200.039 228.667 199.864 228.566C199.399 228.303 198.952 228.059 198.832 227.984C197.972 227.478 197.117 226.962 196.276 226.422C194.36 225.207 192.467 223.887 190.634 222.513C188.942 221.239 187.263 219.882 185.646 218.47C185.062 217.718 184.336 217.091 183.69 216.523C183.366 216.248 183.053 215.976 182.796 215.714C179.791 212.639 176.927 209.285 174.279 205.763C172.957 204.018 171.681 202.201 170.476 200.369L169.836 199.306C169.382 198.537 168.928 197.769 168.496 196.991C166.274 193.024 164.287 188.873 162.576 184.666C162.557 184.623 162.544 184.577 162.528 184.541C166.046 183.317 169.51 181.919 172.92 180.365C200.599 167.747 224.29 144.547 238.993 114.312C243.679 104.668 247.16 94.0461 249.613 81.8478C251.454 72.7501 252.868 59.0489 249.201 45.4466C244.872 29.3927 235.956 17.9415 222.707 11.3904C211.814 6.01786 197.98 5.80024 183.756 10.7918C158.29 19.7423 144.957 46.3844 136.205 68.5993C126.698 92.7292 121.487 116.057 120.72 137.946C120.496 144.201 120.599 150.307 121.021 156.259C117.511 156.159 113.983 155.885 110.496 155.456C108.365 155.185 106.204 154.849 104.085 154.452C103.087 154.268 102.101 154.07 101.109 153.858L101.06 153.846C101.011 153.834 100.973 153.825 100.934 153.817L100.207 153.639C96.0206 152.545 91.8743 151.199 87.8867 149.634C85.8928 148.851 83.8913 147.995 81.9336 147.084C81.4328 146.855 80.9358 146.615 80.4389 146.376C79.937 145.879 79.1174 145.537 77.9023 145.064C74.1968 142.965 70.6188 140.635 67.254 138.13C65.6574 136.934 64.0768 135.678 62.5534 134.396C62.2401 134.125 61.9273 133.836 61.6146 133.547C61.2239 133.181 60.8302 132.809 60.3902 132.448L59.7323 131.799C56.5832 128.652 53.6733 125.293 51.0837 121.805C50.5074 121.032 49.9776 120.229 49.4479 119.427C48.9287 118.628 48.3856 117.814 47.8067 117.016L47.6941 116.826C47.0621 115.742 46.4514 114.648 45.8661 113.534C43.9324 109.86 42.2085 106.003 40.7579 102.064C40.3668 101.017 39.9972 99.9605 39.6456 98.8868L39.498 98.3931C38.9645 96.4099 38.4654 94.5404 38.0423 92.6104C37.1318 88.3827 36.4746 84.0485 36.1111 79.7354C36.0264 78.7558 35.9519 77.7799 35.9023 76.8015L35.8674 76.1013C35.8742 73.9236 35.8838 71.8654 35.9998 69.776C36.218 65.5861 36.7102 61.3921 37.4576 57.3234C37.5798 56.6464 37.7194 55.9701 37.8624 55.3009L37.9641 54.8057C37.9725 54.7673 37.9771 54.7394 37.9855 54.7011L38.1246 54.1372C38.6883 51.9904 39.3395 49.8467 40.0481 47.7719C40.8864 45.3015 41.9446 42.9725 43.0568 40.498C43.6466 39.2022 44.2258 37.9026 44.7921 36.5743L44.8822 36.4124C45.3579 35.5656 45.847 34.73 46.3604 33.9092C47.4698 32.109 48.685 30.2952 50.0798 28.365C52.7872 24.6455 53.8104 19.7261 52.8944 14.8624C52.0222 10.2463 49.4365 6.25612 45.7922 3.91328C37.5668 -1.37222 27.1529 0.449508 21.5711 8.14581C-3.82173 43.1503 -5.96427 94.1347 16.3785 132.128C28.038 151.96 44.9066 167.492 66.5325 178.301C84.6131 187.344 105.72 191.702 127.753 190.97C129.593 196.499 131.788 201.824 134.327 206.94C144.907 228.222 160.66 245.842 178.678 256.544C193.043 265.072 208.167 269.784 223.253 270.518C225.864 275.981 229.023 281.134 232.695 285.881C256.248 316.341 302.215 326.074 338.576 309.498C341.101 308.347 343.593 307.065 346.011 305.66C356.077 299.803 364.273 292.796 371.072 284.217C373.787 280.796 374.884 276.077 374.082 271.256C373.259 266.332 370.626 262.105 366.848 259.676Z" fill="#474973" fill-opacity="0.5"/>
</svg>
