<svg width="29" height="28" viewBox="0 0 29 28" fill="none" xmlns="http://www.w3.org/2000/svg">
<g id="envelope-regular 2" clip-path="url(#clip0_323_1315)">
<path id="Vector" d="M3.625 6.125C3.14375 6.125 2.75 6.51875 2.75 7V8.20859L12.1836 15.9523C13.3156 16.882 14.9398 16.882 16.0719 15.9523L25.5 8.20859V7C25.5 6.51875 25.1063 6.125 24.625 6.125H3.625ZM2.75 11.6047V21C2.75 21.4813 3.14375 21.875 3.625 21.875H24.625C25.1063 21.875 25.5 21.4813 25.5 21V11.6047L17.7344 17.9812C15.6344 19.7039 12.6102 19.7039 10.5156 17.9812L2.75 11.6047ZM0.125 7C0.125 5.06953 1.69453 3.5 3.625 3.5H24.625C26.5555 3.5 28.125 5.06953 28.125 7V21C28.125 22.9305 26.5555 24.5 24.625 24.5H3.625C1.69453 24.5 0.125 22.9305 0.125 21V7Z" fill="#D9B3B3"/>
</g>
<defs>
<clipPath id="clip0_323_1315">
<rect width="28" height="28" fill="white" transform="translate(0.125)"/>
</clipPath>
</defs>
</svg>
