<svg width="28" height="27" viewBox="0 0 28 27" fill="none" xmlns="http://www.w3.org/2000/svg">
<path id="Vector" d="M9.07266 21.2953C9.07266 21.4047 8.94688 21.4922 8.78828 21.4922C8.60781 21.5086 8.48203 21.4211 8.48203 21.2953C8.48203 21.1859 8.60781 21.0984 8.76641 21.0984C8.93047 21.082 9.07266 21.1695 9.07266 21.2953ZM7.37188 21.0492C7.33359 21.1586 7.44297 21.2844 7.60703 21.3172C7.74922 21.3719 7.91328 21.3172 7.94609 21.2078C7.97891 21.0984 7.875 20.9727 7.71094 20.9234C7.56875 20.8852 7.41016 20.9398 7.37188 21.0492ZM9.78906 20.9563C9.63047 20.9945 9.52109 21.0984 9.5375 21.2242C9.55391 21.3336 9.69609 21.4047 9.86016 21.3664C10.0188 21.3281 10.1281 21.2242 10.1117 21.1148C10.0953 21.0109 9.94766 20.9398 9.78906 20.9563ZM13.3875 0C5.80234 0 0 5.75859 0 13.3438C0 19.4086 3.81719 24.5984 9.26953 26.425C9.96953 26.5508 10.2156 26.1187 10.2156 25.7633C10.2156 25.4242 10.1992 23.5539 10.1992 22.4055C10.1992 22.4055 6.37109 23.2258 5.56719 20.7758C5.56719 20.7758 4.94375 19.1844 4.04688 18.7742C4.04688 18.7742 2.79453 17.9156 4.13438 17.932C4.13438 17.932 5.49609 18.0414 6.24531 19.343C7.44297 21.4539 9.45 20.8469 10.232 20.4859C10.3578 19.6109 10.7133 19.0039 11.107 18.643C8.05 18.3039 4.96563 17.8609 4.96563 12.6C4.96563 11.0961 5.38125 10.3414 6.25625 9.37891C6.11406 9.02344 5.64922 7.55781 6.39844 5.66563C7.54141 5.31016 10.1719 7.14219 10.1719 7.14219C11.2656 6.83594 12.4414 6.67734 13.6062 6.67734C14.7711 6.67734 15.9469 6.83594 17.0406 7.14219C17.0406 7.14219 19.6711 5.30469 20.8141 5.66563C21.5633 7.56328 21.0984 9.02344 20.9563 9.37891C21.8313 10.3469 22.3672 11.1016 22.3672 12.6C22.3672 17.8773 19.1461 18.2984 16.0891 18.643C16.5922 19.075 17.0188 19.8953 17.0188 21.1805C17.0188 23.0234 17.0023 25.3039 17.0023 25.7523C17.0023 26.1078 17.2539 26.5398 17.9484 26.4141C23.4172 24.5984 27.125 19.4086 27.125 13.3438C27.125 5.75859 20.9727 0 13.3875 0ZM5.31562 18.8617C5.24453 18.9164 5.26094 19.0422 5.35391 19.1461C5.44141 19.2336 5.56719 19.2719 5.63828 19.2008C5.70937 19.1461 5.69297 19.0203 5.6 18.9164C5.5125 18.8289 5.38672 18.7906 5.31562 18.8617ZM4.725 18.4187C4.68672 18.4898 4.74141 18.5773 4.85078 18.632C4.93828 18.6867 5.04766 18.6703 5.08594 18.5938C5.12422 18.5227 5.06953 18.4352 4.96016 18.3805C4.85078 18.3477 4.76328 18.3641 4.725 18.4187ZM6.49688 20.3656C6.40938 20.4367 6.44219 20.6008 6.56797 20.7047C6.69375 20.8305 6.85234 20.8469 6.92344 20.7594C6.99453 20.6883 6.96172 20.5242 6.85234 20.4203C6.73203 20.2945 6.56797 20.2781 6.49688 20.3656ZM5.87344 19.5617C5.78594 19.6164 5.78594 19.7586 5.87344 19.8844C5.96094 20.0102 6.10859 20.0648 6.17969 20.0102C6.26719 19.9391 6.26719 19.7969 6.17969 19.6711C6.10313 19.5453 5.96094 19.4906 5.87344 19.5617Z" fill="#D9B3B3"/>
</svg>
