<svg width="26" height="30" viewBox="0 0 26 30" fill="none" xmlns="http://www.w3.org/2000/svg">
<path d="M5.81982 26.2504H0.429464V8.725H5.81982V26.2504ZM3.12174 6.33438C1.39808 6.33438 0 4.89297 0 3.15273C1.23372e-08 2.31684 0.328897 1.51517 0.914337 0.924105C1.49978 0.333036 2.2938 0.000976562 3.12174 0.000976562C3.94968 0.000976562 4.74371 0.333036 5.32914 0.924105C5.91459 1.51517 6.24348 2.31684 6.24348 3.15273C6.24348 4.89297 4.84482 6.33438 3.12174 6.33438ZM25.9942 26.2504H20.6154V17.7191C20.6154 15.6859 20.5748 13.0785 17.8129 13.0785C15.0104 13.0785 14.5809 15.2875 14.5809 17.5727V26.2504H9.19634V8.725H14.3662V11.1156H14.4416C15.1612 9.73867 16.9192 8.28555 19.5418 8.28555C24.9971 8.28555 26 11.9125 26 16.6234V26.2504H25.9942Z" fill="#C48686"/>
</svg>
