<svg width="1075" height="176" viewBox="0 0 1075 176" fill="none" xmlns="http://www.w3.org/2000/svg">
<path d="M202.953 76.788L197.04 68.516C196.224 67.3633 195.383 66.1724 194.34 65.1343C192.54 63.3473 190.244 62.2416 187.703 61.9345C184.52 61.5501 181.317 62.5959 178.443 64.9603C177.125 66.0454 176.125 67.387 175.158 68.6813C174.983 68.9135 174.813 69.1432 174.64 69.3712L151.55 99.7429L140.38 81.5002C139.865 80.6624 139.359 79.8107 138.853 78.959C137.671 76.9632 136.446 74.9016 135.083 72.9612C132.076 68.6794 128.819 66.3084 125.126 65.7061C121.869 65.1779 118.752 65.641 115.606 67.1225C113.87 67.9411 112.134 69.2 110.295 70.9689C108.36 72.833 106.646 74.9288 104.988 76.9588C104.366 77.7227 103.741 78.4806 103.112 79.2266L83.1209 102.847C82.7518 103.284 82.3912 103.714 82.0249 104.129C81.5223 103.084 81.0853 101.989 80.652 100.914C80.3809 100.234 80.1121 99.5597 79.8275 98.9019L71.1585 78.7781C70.7883 77.9158 70.4308 77.0383 70.0741 76.1537C69.2069 74.0204 68.3122 71.8152 67.1721 69.7656C65.0136 65.8881 61.9451 63.2319 58.3083 62.0855C55.8871 61.3235 53.0104 61.5023 50.394 62.5441C47.2838 63.8023 45.3104 65.9012 43.6413 67.9799C40.4457 71.9625 37.3379 76.1076 34.3326 80.1172C32.8644 82.0778 31.3983 84.0342 29.9189 85.9751L14.2201 106.589C13.0167 108.167 12.7994 110.643 13.2057 112.272C13.6724 114.135 15.0768 115.926 16.706 116.729C18.6742 117.699 20.7544 117.924 22.5664 117.362C24.4907 116.767 25.9466 115.715 27.2838 113.959L50.3919 83.6154C51.06 82.7411 51.7204 81.8559 52.3818 80.9739C52.9702 80.1885 53.569 79.3923 54.1722 78.5978C54.6181 79.5239 55.0131 80.4798 55.4023 81.4208C55.6055 81.9138 55.8119 82.4055 56.0204 82.893L60.2849 92.796C61.1787 94.8642 62.0522 96.9469 62.9258 99.0296C64.7083 103.278 66.5514 107.675 68.5374 111.917C70.4949 116.095 73.6541 118.988 77.4389 120.061C83.2355 121.708 88.8654 118.493 92.2024 114.937C93.9455 113.081 95.5801 111.095 97.1634 109.176C97.8791 108.311 98.5937 107.443 99.3141 106.59L114.765 88.3325C115.336 87.6567 115.901 86.963 116.468 86.265C118.044 84.318 119.669 82.3178 121.534 80.6833C122.415 81.9108 123.204 83.235 123.97 84.527C124.279 85.0481 124.587 85.5662 124.902 86.0818L143.855 117.032C145.224 119.268 147.652 120.595 150.349 120.581C153.032 120.566 155.329 119.323 157.183 116.885L181.924 84.3384C182.662 83.3685 183.393 82.3879 184.124 81.4103C184.655 80.6952 185.194 79.9733 185.74 79.249C186.681 80.5668 187.605 81.8907 188.512 83.1944C189.422 84.4998 190.329 85.8064 191.251 87.0937L200.104 99.4602C201.369 101.232 202.793 102.265 204.58 102.713C206.156 103.11 208.014 102.974 209.529 102.395C209.917 102.246 210.282 102.069 210.613 101.867C212.512 100.697 213.813 99.1063 214.28 97.3908C214.878 95.189 214.637 93.1085 213.619 91.686L202.953 76.788Z" fill="#FAF3EA"/>
<path d="M537.909 75.6205L531.995 67.3486C531.18 66.1959 530.339 65.0049 529.296 63.9668C527.496 62.1798 525.2 61.0741 522.659 60.767C519.475 60.3826 516.273 61.4285 513.399 63.7928C512.08 64.878 511.081 66.2195 510.114 67.5139C509.938 67.746 509.769 67.9758 509.596 68.2037L486.505 98.5754L475.335 80.3328C474.82 79.4949 474.315 78.6432 473.809 77.7915C472.627 75.7957 471.402 73.7341 470.039 71.7937C467.032 67.5119 463.775 65.1409 460.082 64.5386C456.825 64.0104 453.708 64.4735 450.562 65.955C448.826 66.7736 447.09 68.0325 445.251 69.8014C443.316 71.6655 441.602 73.7614 439.944 75.7913C439.322 76.5552 438.697 77.3132 438.068 78.0591L418.077 101.68C417.708 102.117 417.347 102.547 416.981 102.962C416.478 101.916 416.041 100.822 415.608 99.7465C415.337 99.0664 415.068 98.3922 414.783 97.7344L406.114 77.6106C405.744 76.7483 405.387 75.8709 405.03 74.9862C404.163 72.853 403.268 70.6477 402.128 68.5981C399.97 64.7206 396.901 62.0644 393.264 60.9181C390.843 60.156 387.966 60.3348 385.35 61.3766C382.24 62.6348 380.266 64.7337 378.597 66.8124C375.402 70.7951 372.294 74.9401 369.288 78.9497C367.82 80.9103 366.354 82.8668 364.875 84.8076L349.176 105.422C347.973 107 347.755 109.475 348.162 111.104C348.628 112.968 350.033 114.758 351.662 115.562C353.63 116.531 355.71 116.757 357.522 116.195C359.447 115.6 360.902 114.548 362.24 112.792L385.348 82.4479C386.016 81.5736 386.676 80.6885 387.338 79.8064C387.926 79.021 388.525 78.2248 389.128 77.4303C389.574 78.3564 389.969 79.3124 390.358 80.2533C390.561 80.7463 390.768 81.238 390.976 81.7255L395.241 91.6286C396.135 93.6967 397.008 95.7794 397.882 97.8621C399.664 102.11 401.507 106.507 403.493 110.75C405.451 114.928 408.61 117.821 412.395 118.893C418.191 120.541 423.821 117.325 427.158 113.77C428.901 111.914 430.536 109.927 432.119 108.009C432.835 107.144 433.55 106.276 434.27 105.422L449.721 87.165C450.292 86.4893 450.857 85.7955 451.423 85.0975C453 83.1505 454.625 81.1503 456.49 79.5159C457.371 80.7433 458.16 82.0676 458.926 83.3595C459.235 83.8806 459.543 84.3987 459.858 84.9144L478.811 115.864C480.18 118.101 482.608 119.428 485.305 119.414C487.988 119.399 490.285 118.156 492.139 115.717L516.88 83.1709C517.618 82.2011 518.349 81.2205 519.08 80.2429C519.611 79.5277 520.15 78.8058 520.695 78.0815C521.636 79.3993 522.561 80.7232 523.467 82.0269C524.378 83.3323 525.285 84.6389 526.207 85.9262L535.06 98.2927C536.325 100.064 537.749 101.098 539.536 101.545C541.112 101.943 542.97 101.807 544.485 101.227C544.873 101.079 545.238 100.901 545.568 100.699C547.468 99.5296 548.769 97.9388 549.236 96.2233C549.834 94.0215 549.593 91.941 548.575 90.5185L537.909 75.6205Z" fill="#FAF3EA"/>
<path d="M202.529 103.305L208.296 111.68C209.09 112.847 209.91 114.053 210.935 115.109C212.703 116.927 214.978 118.074 217.514 118.426C220.69 118.866 223.911 117.877 226.826 115.564C228.164 114.503 229.187 113.179 230.176 111.902C230.356 111.673 230.529 111.446 230.707 111.221L254.331 81.2632L265.176 99.7007C265.677 100.547 266.167 101.408 266.658 102.269C267.804 104.285 268.993 106.368 270.321 108.332C273.252 112.666 276.466 115.095 280.148 115.762C283.395 116.348 286.52 115.94 289.691 114.515C291.442 113.727 293.2 112.499 295.07 110.763C297.037 108.933 298.788 106.868 300.482 104.868C301.118 104.115 301.756 103.368 302.398 102.634L322.804 79.3706C323.181 78.9404 323.549 78.5167 323.923 78.1081C324.407 79.1623 324.824 80.2644 325.238 81.3473C325.497 82.0321 325.754 82.7109 326.027 83.3736L334.339 103.648C334.693 104.516 335.035 105.4 335.376 106.291C336.206 108.439 337.061 110.66 338.165 112.729C340.254 116.644 343.275 119.355 346.891 120.565C349.299 121.37 352.178 121.242 354.812 120.247C357.944 119.044 359.955 116.98 361.66 114.931C364.926 111.006 368.107 106.917 371.182 102.961C372.685 101.026 374.185 99.0963 375.699 97.1819L391.76 76.8486C392.991 75.2927 393.252 72.8211 392.875 71.1853C392.442 69.3137 391.069 67.4988 389.454 66.6665C387.504 65.6621 385.428 65.3998 383.606 65.93C381.671 66.4908 380.197 67.5166 378.829 69.2485L355.188 99.1788C354.504 100.041 353.828 100.914 353.151 101.785C352.549 102.56 351.936 103.345 351.319 104.129C350.889 103.195 350.512 102.232 350.139 101.284C349.945 100.788 349.747 100.293 349.547 99.8015L345.459 89.8245C344.602 87.7408 343.765 85.643 342.928 83.5452C341.221 79.2661 339.456 74.8373 337.546 70.5602C335.663 66.3484 332.555 63.3998 328.79 62.2604C323.023 60.5107 317.337 63.6259 313.938 67.1216C312.162 68.9466 310.493 70.9038 308.876 72.7942C308.145 73.6465 307.415 74.5017 306.68 75.3418L290.908 93.3229C290.325 93.9885 289.748 94.6722 289.169 95.36C287.559 97.2788 285.898 99.2499 284.005 100.851C283.146 99.6083 282.38 98.2702 281.637 96.9649C281.337 96.4384 281.038 95.9149 280.733 95.3938L262.331 64.1134C261.001 61.8526 258.597 60.4831 255.9 60.4493C253.218 60.4168 250.899 61.6189 249.002 64.0242L223.688 96.1276C222.933 97.0842 222.186 98.0517 221.437 99.0162C220.894 99.7219 220.342 100.434 219.784 101.149C218.866 99.8144 217.965 98.4743 217.082 97.1548C216.195 95.8335 215.311 94.511 214.412 93.2076L205.779 80.6863C204.546 78.8928 203.141 77.8341 201.362 77.3549C199.792 76.9296 197.933 77.0329 196.408 77.5855C196.017 77.7268 195.649 77.8979 195.315 78.094C193.395 79.23 192.066 80.7975 191.569 82.5045C190.932 84.6953 191.136 86.7798 192.129 88.2201L202.529 103.305Z" fill="#FAF3EA"/>
<path d="M871.15 98.547L877.064 106.819C877.88 107.972 878.721 109.163 879.764 110.201C881.564 111.988 883.859 113.093 886.4 113.4C889.584 113.785 892.786 112.739 895.661 110.375C896.979 109.29 897.979 107.948 898.946 106.654C899.121 106.421 899.29 106.192 899.464 105.964L922.554 75.5921L933.724 93.8347C934.239 94.6725 934.745 95.5243 935.25 96.376C936.432 98.3718 937.658 100.433 939.02 102.374C942.027 106.656 945.284 109.027 948.977 109.629C952.235 110.157 955.351 109.694 958.497 108.212C960.233 107.394 961.97 106.135 963.809 104.366C965.744 102.502 967.458 100.406 969.116 98.3762C969.738 97.6122 970.362 96.8543 970.992 96.1084L990.983 72.4877C991.352 72.0509 991.713 71.6208 992.079 71.2056C992.581 72.251 993.018 73.3456 993.452 74.421C993.723 75.1011 993.992 75.7753 994.276 76.433L1002.95 96.5569C1003.32 97.4192 1003.67 98.2966 1004.03 99.1813C1004.9 101.315 1005.79 103.52 1006.93 105.569C1009.09 109.447 1012.16 112.103 1015.8 113.249C1018.22 114.011 1021.09 113.833 1023.71 112.791C1026.82 111.533 1028.79 109.434 1030.46 107.355C1033.66 103.372 1036.77 99.2274 1039.77 95.2178C1041.24 93.2571 1042.71 91.3007 1044.18 89.3598L1059.88 68.7455C1061.09 67.168 1061.3 64.6921 1060.9 63.0633C1060.43 61.1997 1059.03 59.4093 1057.4 58.6057C1055.43 57.6361 1053.35 57.4106 1051.54 57.9729C1049.61 58.5678 1048.16 59.6196 1046.82 61.3755L1023.71 91.7196C1023.04 92.5939 1022.38 93.479 1021.72 94.3611C1021.13 95.1465 1020.53 95.9427 1019.93 96.7372C1019.49 95.8111 1019.09 94.8551 1018.7 93.9142C1018.5 93.4212 1018.29 92.9295 1018.08 92.442L1013.82 82.5389C1012.93 80.4708 1012.05 78.3881 1011.18 76.3054C1009.4 72.0572 1007.55 67.6603 1005.57 63.4177C1003.61 59.24 1000.45 56.3467 996.665 55.2742C990.868 53.6269 985.238 56.8422 981.901 60.3976C980.158 62.2537 978.524 64.2402 976.94 66.1589C976.225 67.024 975.51 67.892 974.79 68.745L959.339 87.0025C958.767 87.6782 958.203 88.372 957.636 89.07C956.06 91.017 954.434 93.0172 952.57 94.6516C951.689 93.4242 950.9 92.0999 950.134 90.8079C949.825 90.2869 949.516 89.7688 949.202 89.2531L930.249 58.3033C928.88 56.0665 926.452 54.7398 923.754 54.7537C921.072 54.7687 918.775 56.0116 916.92 58.4501L892.179 90.9966C891.441 91.9664 890.711 92.947 889.98 93.9246C889.449 94.6398 888.91 95.3617 888.364 96.086C887.423 94.7682 886.498 93.4442 885.592 92.1406C884.682 90.8352 883.774 89.5286 882.852 88.2413L873.999 75.8748C872.734 74.1033 871.311 73.0697 869.524 72.6221C867.947 72.2247 866.09 72.3608 864.575 72.9403C864.187 73.0886 863.822 73.2661 863.491 73.4681C861.592 74.6379 860.291 76.2287 859.823 77.9442C859.226 80.146 859.467 82.2265 860.485 83.649L871.15 98.547Z" fill="#FAF3EA"/>
<path d="M536.195 99.7145L542.108 107.986C542.924 109.139 543.765 110.33 544.808 111.368C546.608 113.155 548.903 114.261 551.444 114.568C554.628 114.952 557.831 113.906 560.705 111.542C562.023 110.457 563.023 109.115 563.99 107.821C564.165 107.589 564.335 107.359 564.508 107.131L587.598 76.7596L598.768 95.0022C599.283 95.84 599.789 96.6918 600.295 97.5435C601.477 99.5393 602.702 101.601 604.065 103.541C607.072 107.823 610.329 110.194 614.022 110.796C617.279 111.325 620.396 110.861 623.542 109.38C625.278 108.561 627.014 107.302 628.853 105.534C630.788 103.669 632.502 101.574 634.16 99.5437C634.782 98.7797 635.407 98.0218 636.036 97.2759L656.027 73.6551C656.396 73.2183 656.757 72.7882 657.123 72.3731C657.626 73.4185 658.063 74.5131 658.496 75.5884C658.767 76.2686 659.036 76.9427 659.32 77.6005L667.989 97.7244C668.36 98.5867 668.717 99.4641 669.074 100.349C669.941 102.482 670.836 104.687 671.976 106.737C674.134 110.614 677.203 113.271 680.84 114.417C683.261 115.179 686.138 115 688.754 113.958C691.864 112.7 693.838 110.601 695.507 108.523C698.702 104.54 701.81 100.395 704.815 96.3853C706.284 94.4246 707.75 92.4682 709.229 90.5273L724.928 69.9129C726.131 68.3354 726.348 65.8596 725.942 64.2308C725.476 62.3671 724.071 60.5768 722.442 59.7732C720.474 58.8035 718.393 58.578 716.582 59.1403C714.657 59.7353 713.201 60.7871 711.864 62.543L688.756 92.8871C688.088 93.7614 687.428 94.6465 686.766 95.5286C686.178 96.3139 685.579 97.1102 684.976 97.9047C684.53 96.9785 684.135 96.0226 683.746 95.0817C683.542 94.5887 683.336 94.097 683.128 93.6094L678.863 83.7064C677.969 81.6383 677.096 79.5556 676.222 77.4728C674.44 73.2247 672.597 68.8278 670.611 64.5852C668.653 60.4074 665.494 57.5142 661.709 56.4417C655.912 54.7944 650.282 58.0097 646.946 61.5651C645.202 63.4212 643.568 65.4077 641.985 67.3264C641.269 68.1914 640.554 69.0595 639.834 69.9125L624.383 88.1699C623.812 88.8457 623.247 89.5395 622.68 90.2375C621.104 92.1845 619.478 94.1847 617.614 95.8191C616.733 94.5917 615.944 93.2674 615.178 91.9754C614.869 91.4543 614.56 90.9362 614.246 90.4206L595.293 59.4708C593.924 57.234 591.496 55.9072 588.799 55.9212C586.116 55.9362 583.819 57.1791 581.964 59.6176L557.224 92.1641C556.486 93.1339 555.755 94.1145 555.024 95.0921C554.493 95.8073 553.954 96.5292 553.408 97.2535C552.467 95.9357 551.542 94.6117 550.636 93.3081C549.726 92.0027 548.819 90.6961 547.897 89.4088L539.044 77.0423C537.779 75.2708 536.355 74.2372 534.568 73.7895C532.991 73.3921 531.134 73.5283 529.619 74.1078C529.231 74.256 528.866 74.4336 528.535 74.6356C526.636 75.8053 525.335 77.3961 524.868 79.1117C524.27 81.3135 524.511 83.394 525.529 84.8165L536.195 99.7145Z" fill="#FAF3EA"/>
<path d="M871.575 72.0304L865.808 63.6551C865.013 62.4881 864.194 61.2824 863.169 60.2261C861.401 58.4075 859.125 57.2614 856.59 56.9093C853.414 56.4686 850.193 57.4576 847.277 59.7707C845.94 60.8323 844.917 62.156 843.927 63.433C843.748 63.6621 843.574 63.8888 843.397 64.1136L819.773 94.0718L808.927 75.6343C808.427 74.7875 807.937 73.9269 807.446 73.0664C806.3 71.05 805.111 68.967 803.783 67.0028C800.852 62.6685 797.638 60.2401 793.956 59.5726C790.709 58.9868 787.584 59.3946 784.412 60.8202C782.662 61.608 780.904 62.8359 779.034 64.572C777.066 66.4016 775.316 68.4668 773.622 70.467C772.986 71.2198 772.348 71.9666 771.706 72.7013L751.3 95.9644C750.923 96.3946 750.555 96.8183 750.181 97.2268C749.697 96.1727 749.28 95.0706 748.865 93.9877C748.606 93.3029 748.35 92.6241 748.077 91.9613L739.765 71.6872C739.41 70.8185 739.068 69.9349 738.728 69.044C737.898 66.8958 737.043 64.675 735.939 62.6056C733.85 58.6905 730.828 55.9803 727.213 54.7698C724.805 53.965 721.926 54.0929 719.291 55.0882C716.159 56.2911 714.149 58.3547 712.444 60.4036C709.178 64.329 705.997 68.4184 702.921 72.3742C701.419 74.3085 699.918 76.2387 698.405 78.1531L682.343 98.4863C681.112 100.042 680.851 102.514 681.229 104.15C681.662 106.021 683.035 107.836 684.65 108.669C686.6 109.673 688.676 109.935 690.498 109.405C692.432 108.844 693.907 107.818 695.275 106.086L718.916 76.1561C719.6 75.2938 720.276 74.4205 720.953 73.5502C721.555 72.7754 722.168 71.9899 722.785 71.2062C723.214 72.1401 723.592 73.1029 723.965 74.0506C724.159 74.5471 724.357 75.0424 724.557 75.5335L728.645 85.5105C729.502 87.5941 730.339 89.692 731.175 91.7898C732.882 96.0689 734.647 100.498 736.558 104.775C738.441 108.987 741.549 111.935 745.314 113.075C751.08 114.824 756.766 111.709 760.166 108.213C761.941 106.388 763.611 104.431 765.228 102.541C765.959 101.688 766.689 100.833 767.424 99.9931L783.196 82.012C783.779 81.3465 784.356 80.6628 784.935 79.975C786.545 78.0562 788.206 76.0851 790.099 74.4839C790.958 75.7267 791.724 77.0648 792.466 78.3701C792.767 78.8966 793.066 79.42 793.371 79.9412L811.773 111.222C813.103 113.482 815.507 114.852 818.204 114.886C820.886 114.918 823.205 113.716 825.102 111.311L850.415 79.2074C851.17 78.2508 851.918 77.2832 852.667 76.3187C853.21 75.6131 853.762 74.9008 854.32 74.1863C855.237 75.5206 856.139 76.8607 857.022 78.1801C857.909 79.5015 858.793 80.8239 859.692 82.1273L868.325 94.6486C869.558 96.4422 870.963 97.5008 872.742 97.9801C874.311 98.4053 876.171 98.302 877.696 97.7495C878.086 97.6081 878.455 97.437 878.789 97.2409C880.708 96.105 882.037 94.5375 882.535 92.8305C883.172 90.6396 882.967 88.5552 881.975 87.1149L871.575 72.0304Z" fill="#FAF3EA"/>
</svg>
