<svg width="33" height="34" viewBox="0 0 33 34" fill="none" xmlns="http://www.w3.org/2000/svg">
<path d="M8.80962 2.56199C2.20781 6.81766 -0.312245 15.3695 3.09753 22.5726C5.0088 26.61 8.56965 29.6617 12.8672 30.9449C17.1644 32.228 21.8155 31.6289 25.6277 29.3008C27.5226 28.1436 29.1411 26.6081 30.389 24.7961C28.7204 25.3154 26.9919 25.5768 25.2581 25.5768C23.4248 25.5768 21.5859 25.285 19.8035 24.6976C15.5815 23.3067 12.089 20.3876 9.96942 16.4787C9.28188 15.211 8.75432 13.866 8.40105 12.4813C8.0579 11.1365 7.87793 9.74955 7.86608 8.35938C7.84954 6.39409 8.17244 4.42485 8.80962 2.56199ZM17.4121 33.1941C15.7284 33.1941 14.0551 32.9482 12.4152 32.4585C10.1027 31.7681 8.00037 30.6357 6.16637 29.0924C4.25806 27.4868 2.745 25.5205 1.66938 23.2484C-0.231024 19.2334 -0.519368 14.6897 0.858168 10.4543C2.24064 6.20255 5.16778 2.68713 9.09993 0.555473C9.41148 0.386639 9.73291 0.224717 10.0551 0.0746422C10.3609 -0.0685215 10.7263 -0.00187704 10.9628 0.240761C11.1996 0.483399 11.2568 0.850193 11.1055 1.15331C8.81431 5.76046 8.90885 11.2083 11.3583 15.7257C14.2018 20.9696 19.643 23.9911 25.2741 23.9914C27.4915 23.9914 29.738 23.5229 31.8675 22.5373C32.1739 22.3949 32.5388 22.4622 32.7748 22.7051C33.0106 22.948 33.0673 23.3146 32.916 23.6172C31.4617 26.5229 29.2263 28.9545 26.4512 30.649C24.3057 31.9592 21.9621 32.7737 19.486 33.0699C18.794 33.1529 18.1021 33.1941 17.4121 33.1941Z" fill="#474973"/>
</svg>
