<svg width="136" height="133" viewBox="0 0 136 133" fill="none" xmlns="http://www.w3.org/2000/svg">
<path id="path82" d="M14.9761 109.588C20.8351 116.837 28.6483 122.769 37.5679 126.741C46.9058 130.898 56.3121 133 65.5549 133C65.9769 133 66.3951 132.996 66.8134 132.988C77.2842 132.772 87.2419 129.979 95.614 124.91C103.853 119.921 110.982 112.558 115.689 104.178C120.651 95.3377 122.989 85.4762 122.27 76.4122C122.035 73.4617 121.643 70.8961 121.073 68.5623C120.373 65.7099 119.293 63.054 118.331 60.8302C116.514 56.6381 113.803 52.4971 110.275 48.5171C103.614 41.0169 94.4582 35.6028 85.1583 33.6619C82.1813 33.0451 79.3602 32.6994 76.7672 32.6404C73.7902 32.5736 70.8892 32.9626 68.4521 33.3555C63.8782 34.0902 59.194 35.76 54.5289 38.3177C45.4078 43.3191 38.4158 51.5856 35.3513 60.9953C31.8078 71.8744 34.4503 84.4743 42.0848 93.0943C45.8108 97.3061 50.8904 100.359 56.3881 101.699C62.0114 103.07 67.7943 102.913 72.6762 101.262C78.7253 99.2116 83.5729 95.3259 86.3294 90.3165C89.0935 85.2915 89.9527 79.2528 88.7513 73.3163C87.6601 67.9415 84.2687 62.999 79.4477 59.7577C77.6683 58.5594 74.965 58.1861 72.7256 58.8226C70.5736 59.4355 68.4863 61.1053 67.5282 62.9794C65.304 67.3286 66.5967 72.4401 70.6041 75.1393C70.8056 75.3357 71.0033 75.5361 71.1934 75.7443C71.3607 76.0194 71.5166 76.2982 71.6649 76.5851C71.7941 76.9976 71.9044 77.418 71.9956 77.8463C72.0184 78.3492 72.0184 78.8521 71.9918 79.3589C71.8892 79.8618 71.7561 80.3607 71.6002 80.8479C71.4025 81.2369 71.1934 81.6141 70.9615 81.9755C70.6915 82.282 70.4063 82.5767 70.0984 82.8595C69.5509 83.2367 68.9767 83.5785 68.3722 83.8928C67.4825 84.215 66.5511 84.4703 65.5891 84.6589C64.4029 84.7571 63.1977 84.7533 61.9886 84.6511C60.8138 84.4272 59.6693 84.105 58.5667 83.6963C57.7037 83.2642 56.8786 82.7653 56.0954 82.2074C55.3274 81.5237 54.6087 80.7772 53.9434 79.9757C53.297 79.0131 52.7229 77.9917 52.2287 76.923C51.7876 75.6775 51.4493 74.3889 51.2135 73.0766C51.1033 71.7486 51.1033 70.4167 51.2098 69.0966C51.4493 67.7569 51.8067 66.4289 52.2743 65.1284C52.9359 63.6826 53.7419 62.2761 54.6772 60.9245C55.9319 59.3647 57.3614 57.9032 58.9431 56.5556C60.8783 55.1059 62.9771 53.8446 65.2013 52.7956C67.5738 51.8409 70.0224 51.1495 72.5013 50.7212C74.8092 50.4776 77.136 50.4776 79.4401 50.7212C81.9418 51.1534 84.4132 51.8567 86.8161 52.8232C89.257 53.9704 91.5952 55.3848 93.7852 57.0388C95.8649 58.795 97.7622 60.7517 99.4465 62.8772C100.906 64.9477 102.154 67.1321 103.157 69.3952C103.952 71.5207 104.534 73.713 104.899 75.9368C105.123 78.2941 105.119 80.6947 104.88 83.1031C104.446 85.8101 103.72 88.5093 102.716 91.1573C101.462 94.0254 99.8875 96.7875 98.0245 99.4002C95.9524 102.044 93.6027 104.468 91.0249 106.625C88.3369 108.672 85.4587 110.413 82.4475 111.812C79.1397 113.159 75.6 114.141 71.9006 114.735C67.6689 115.23 63.3193 115.218 58.9431 114.695C54.3274 113.965 49.7954 112.684 45.4496 110.884C41.5145 109.077 37.8417 106.877 34.5035 104.319C31.6481 101.942 29.0399 99.2508 26.7396 96.3081C24.4622 93.1257 22.5155 89.6722 20.9377 86.0184C19.3979 82.0266 18.2915 77.8345 17.6489 73.5363C17.1584 69.1005 17.1585 64.6177 17.6451 60.178C18.2953 55.8445 19.413 51.6052 20.9795 47.5506C22.5421 43.9242 24.4546 40.5179 26.6788 37.4062C28.9715 34.4753 31.5797 31.784 34.4578 29.3913C37.7694 26.8532 41.4384 24.6609 45.3887 22.8536C50.2858 20.8184 55.5745 19.3568 61.1407 18.4964C67.6803 17.6871 74.4213 17.7068 81.2118 18.5633C87.6867 19.5455 93.7891 21.2231 99.3819 23.5529C104.275 25.7806 108.887 28.5623 113.119 31.8272C116.031 34.2277 118.753 36.8719 121.229 39.7046C122.689 41.3744 124.917 42.337 127.335 42.3488C129.779 42.3841 132.053 41.3979 133.551 39.7085C136.813 36.035 136.817 30.8685 133.559 27.14C126.89 19.5219 118.639 13.1885 109.701 8.82744C104.473 6.28152 99.2982 4.33284 94.3137 3.04024C90.4736 2.04622 86.3522 1.28795 81.3411 0.663254C64.4523 -1.44263 47.4495 1.504 33.4655 8.96495C17.8732 17.2824 6.41764 32.2004 2.03386 49.8962C-0.483102 60.0602 -0.669418 70.9746 1.50536 81.4687C3.58889 91.5384 8.24645 101.262 14.9761 109.588Z" fill="#474973"/>
</svg>
