<svg width="288" height="281" viewBox="0 0 288 281" fill="none" xmlns="http://www.w3.org/2000/svg">
<path d="M8.55722 4.92383L5.84279 9.12633" stroke="#EAB8B8" stroke-linecap="round"/>
<path d="M8.92429 19.2478L5.47572 22.9021" stroke="#EAB8B8" stroke-linecap="round"/>
<path d="M9.38626 33.8528L5.01375 36.3973" stroke="#EAB8B8" stroke-linecap="round"/>
<path d="M9.74403 49.0881L4.65597 49.2617" stroke="#EAB8B8" stroke-linecap="round"/>
<path d="M9.19035 64.7734L5.20963 61.6766" stroke="#EAB8B8" stroke-linecap="round"/>
<path d="M7.64664 79.7202L6.75336 74.8298" stroke="#EAB8B8" stroke-linecap="round"/>
<path d="M6.32285 93.6565L8.07714 88.9933" stroke="#EAB8B8" stroke-linecap="round"/>
<path d="M5.78204 107.438L8.61797 103.312" stroke="#EAB8B8" stroke-linecap="round"/>
<path d="M5.81085 121.506L8.58914 117.344" stroke="#EAB8B8" stroke-linecap="round"/>
<path d="M6.16809 135.746L8.23192 131.205" stroke="#EAB8B8" stroke-linecap="round"/>
<path d="M6.55234 149.927L7.84767 145.123" stroke="#EAB8B8" stroke-linecap="round"/>
<path d="M6.61885 163.993L7.78114 159.157" stroke="#EAB8B8" stroke-linecap="round"/>
<path d="M6.30197 177.949L8.09804 173.301" stroke="#EAB8B8" stroke-linecap="round"/>
<path d="M5.93063 191.828L8.46937 187.522" stroke="#EAB8B8" stroke-linecap="round"/>
<path d="M5.8734 205.845L8.52662 201.605" stroke="#EAB8B8" stroke-linecap="round"/>
<path d="M6.47633 220.156L7.92365 215.394" stroke="#EAB8B8" stroke-linecap="round"/>
<path d="M8.1324 234.136L6.2676 229.514" stroke="#EAB8B8" stroke-linecap="round"/>
<path d="M9.68768 246.402L4.7123 245.348" stroke="#EAB8B8" stroke-linecap="round"/>
<path d="M8.92734 258.101L5.47266 261.749" stroke="#EAB8B8" stroke-linecap="round"/>
<path d="M7.0551 271.495L7.3449 276.455" stroke="#EAB8B8" stroke-linecap="round"/>
<path d="M23.1761 5.07446L20.0239 8.97531" stroke="#EAB8B8" stroke-linecap="round"/>
<path d="M23.5585 19.4883L19.6415 22.6616" stroke="#EAB8B8" stroke-linecap="round"/>
<path d="M23.8883 34.0369L19.3117 36.2132" stroke="#EAB8B8" stroke-linecap="round"/>
<path d="M24.143 49.0632L19.057 49.2869" stroke="#EAB8B8" stroke-linecap="round"/>
<path d="M23.7761 64.5137L19.4239 61.9362" stroke="#EAB8B8" stroke-linecap="round"/>
<path d="M22.6933 79.5181L20.5067 75.0321" stroke="#EAB8B8" stroke-linecap="round"/>
<path d="M21.7569 93.804L21.4431 88.846" stroke="#EAB8B8" stroke-linecap="round"/>
<path d="M21.4037 107.851L21.7963 102.899" stroke="#EAB8B8" stroke-linecap="round"/>
<path d="M21.3945 121.901L21.8054 116.949" stroke="#EAB8B8" stroke-linecap="round"/>
<path d="M21.3101 135.943L21.8899 131.008" stroke="#EAB8B8" stroke-linecap="round"/>
<path d="M20.8664 149.903L22.3336 145.147" stroke="#EAB8B8" stroke-linecap="round"/>
<path d="M20.0761 163.564L23.1238 159.585" stroke="#EAB8B8" stroke-linecap="round"/>
<path d="M19.3739 176.83L23.8261 174.42" stroke="#EAB8B8" stroke-linecap="round"/>
<path d="M19.111 190.196L24.089 189.154" stroke="#EAB8B8" stroke-linecap="round"/>
<path d="M19.111 204.246L24.089 203.204" stroke="#EAB8B8" stroke-linecap="round"/>
<path d="M19.59 219.299L23.6101 216.251" stroke="#EAB8B8" stroke-linecap="round"/>
<path d="M21.706 234.307L21.494 229.344" stroke="#EAB8B8" stroke-linecap="round"/>
<path d="M24.0515 246.544L19.1485 245.206" stroke="#EAB8B8" stroke-linecap="round"/>
<path d="M23.1552 257.959L20.0448 261.891" stroke="#EAB8B8" stroke-linecap="round"/>
<path d="M21.3481 271.503L21.8518 276.446" stroke="#EAB8B8" stroke-linecap="round"/>
<path d="M37.4854 5.00806L34.5146 9.0421" stroke="#EAB8B8" stroke-linecap="round"/>
<path d="M37.8178 19.3362L34.1822 22.8136" stroke="#EAB8B8" stroke-linecap="round"/>
<path d="M38.0927 33.7109L33.9073 36.5392" stroke="#EAB8B8" stroke-linecap="round"/>
<path d="M38.4518 48.5071L33.5482 49.8429" stroke="#EAB8B8" stroke-linecap="round"/>
<path d="M38.4785 63.7913L33.5215 62.6586" stroke="#EAB8B8" stroke-linecap="round"/>
<path d="M37.9555 78.865L34.0445 75.6848" stroke="#EAB8B8" stroke-linecap="round"/>
<path d="M37.4761 93.3486L34.5239 89.3016" stroke="#EAB8B8" stroke-linecap="round"/>
<path d="M37.377 107.464L34.623 103.286" stroke="#EAB8B8" stroke-linecap="round"/>
<path d="M37.3991 121.5L34.6009 117.35" stroke="#EAB8B8" stroke-linecap="round"/>
<path d="M37.0805 135.724L34.9195 131.226" stroke="#EAB8B8" stroke-linecap="round"/>
<path d="M36.0439 150.008L35.9561 145.042" stroke="#EAB8B8" stroke-linecap="round"/>
<path d="M34.4843 163.57L37.5157 159.579" stroke="#EAB8B8" stroke-linecap="round"/>
<path d="M33.5265 176.212L38.4735 175.038" stroke="#EAB8B8" stroke-linecap="round"/>
<path d="M33.5311 189.07L38.4689 190.28" stroke="#EAB8B8" stroke-linecap="round"/>
<path d="M33.6033 202.888L38.3967 204.562" stroke="#EAB8B8" stroke-linecap="round"/>
<path d="M33.4705 218.054L38.5295 217.496" stroke="#EAB8B8" stroke-linecap="round"/>
<path d="M34.9318 234.079L37.0682 229.57" stroke="#EAB8B8" stroke-linecap="round"/>
<path d="M37.995 247.418L34.005 244.332" stroke="#EAB8B8" stroke-linecap="round"/>
<path d="M38.1888 258.657L33.8112 261.193" stroke="#EAB8B8" stroke-linecap="round"/>
<path d="M36.8839 271.646L35.1161 276.304" stroke="#EAB8B8" stroke-linecap="round"/>
<path d="M51.5665 4.81738L49.2335 9.23256" stroke="#EAB8B8" stroke-linecap="round"/>
<path d="M51.7512 18.97L49.0488 23.1798" stroke="#EAB8B8" stroke-linecap="round"/>
<path d="M51.9574 33.1604L48.8426 37.0896" stroke="#EAB8B8" stroke-linecap="round"/>
<path d="M52.459 47.7146L48.3409 50.6354" stroke="#EAB8B8" stroke-linecap="round"/>
<path d="M52.8963 62.7388L47.9036 63.711" stroke="#EAB8B8" stroke-linecap="round"/>
<path d="M52.9121 77.6765L47.8879 76.8734" stroke="#EAB8B8" stroke-linecap="round"/>
<path d="M52.8288 92.0686L47.9712 90.5813" stroke="#EAB8B8" stroke-linecap="round"/>
<path d="M52.8596 106.015L47.9404 104.735" stroke="#EAB8B8" stroke-linecap="round"/>
<path d="M52.8876 119.952L47.9124 118.898" stroke="#EAB8B8" stroke-linecap="round"/>
<path d="M52.7528 134.423L48.0472 132.527" stroke="#EAB8B8" stroke-linecap="round"/>
<path d="M51.9225 149.516L48.8775 145.535" stroke="#EAB8B8" stroke-linecap="round"/>
<path d="M49.9258 164.015L50.8743 159.135" stroke="#EAB8B8" stroke-linecap="round"/>
<path d="M48.1616 176.808L52.6384 174.442" stroke="#EAB8B8" stroke-linecap="round"/>
<path d="M47.9008 189.203L52.8992 190.147" stroke="#EAB8B8" stroke-linecap="round"/>
<path d="M48.1337 202.594L52.6663 204.856" stroke="#EAB8B8" stroke-linecap="round"/>
<path d="M47.8905 217.358L52.9095 218.192" stroke="#EAB8B8" stroke-linecap="round"/>
<path d="M48.5043 233.483L52.2957 230.167" stroke="#EAB8B8" stroke-linecap="round"/>
<path d="M51.3514 248.179L49.4486 243.571" stroke="#EAB8B8" stroke-linecap="round"/>
<path d="M52.9361 260.14L47.8639 259.71" stroke="#EAB8B8" stroke-linecap="round"/>
<path d="M52.6509 272.815L48.1491 275.135" stroke="#EAB8B8" stroke-linecap="round"/>
<path d="M65.713 4.70654L63.887 9.34346" stroke="#EAB8B8" stroke-linecap="round"/>
<path d="M65.6611 18.7378L63.9389 23.4124" stroke="#EAB8B8" stroke-linecap="round"/>
<path d="M65.7809 32.833L63.8191 37.4168" stroke="#EAB8B8" stroke-linecap="round"/>
<path d="M66.3378 47.1958L63.2622 51.1544" stroke="#EAB8B8" stroke-linecap="round"/>
<path d="M66.961 61.9124L62.639 64.5377" stroke="#EAB8B8" stroke-linecap="round"/>
<path d="M67.2292 76.5325L62.3709 78.0176" stroke="#EAB8B8" stroke-linecap="round"/>
<path d="M67.2423 90.6248L62.3576 92.0251" stroke="#EAB8B8" stroke-linecap="round"/>
<path d="M67.1014 104.313L62.4986 106.436" stroke="#EAB8B8" stroke-linecap="round"/>
<path d="M66.9421 118.083L62.6579 120.767" stroke="#EAB8B8" stroke-linecap="round"/>
<path d="M67.1007 132.412L62.4993 134.538" stroke="#EAB8B8" stroke-linecap="round"/>
<path d="M67.3371 147.728L62.2629 147.322" stroke="#EAB8B8" stroke-linecap="round"/>
<path d="M66.29 163.589L63.31 159.561" stroke="#EAB8B8" stroke-linecap="round"/>
<path d="M63.8928 177.946L65.7072 173.304" stroke="#EAB8B8" stroke-linecap="round"/>
<path d="M62.4093 190.528L67.1907 188.822" stroke="#EAB8B8" stroke-linecap="round"/>
<path d="M62.2786 203.384L67.3214 204.067" stroke="#EAB8B8" stroke-linecap="round"/>
<path d="M62.2611 217.595L67.3389 217.955" stroke="#EAB8B8" stroke-linecap="round"/>
<path d="M62.6594 233.169L66.9406 230.481" stroke="#EAB8B8" stroke-linecap="round"/>
<path d="M64.7557 248.358L64.8443 243.392" stroke="#EAB8B8" stroke-linecap="round"/>
<path d="M66.7704 261.498L62.8296 258.353" stroke="#EAB8B8" stroke-linecap="round"/>
<path d="M67.2633 274.602L62.3367 273.349" stroke="#EAB8B8" stroke-linecap="round"/>
<path d="M80.3271 4.7981L78.0729 9.25205" stroke="#EAB8B8" stroke-linecap="round"/>
<path d="M80.0957 18.75L78.3043 23.3998" stroke="#EAB8B8" stroke-linecap="round"/>
<path d="M80.1778 32.8318L78.2222 37.4181" stroke="#EAB8B8" stroke-linecap="round"/>
<path d="M80.6693 47.1467L77.7307 51.2031" stroke="#EAB8B8" stroke-linecap="round"/>
<path d="M81.2063 61.6963L77.1937 64.7536" stroke="#EAB8B8" stroke-linecap="round"/>
<path d="M81.4061 76.0359L76.9939 78.5143" stroke="#EAB8B8" stroke-linecap="round"/>
<path d="M81.2367 89.8352L77.1633 92.815" stroke="#EAB8B8" stroke-linecap="round"/>
<path d="M80.6885 103.36L77.7115 107.39" stroke="#EAB8B8" stroke-linecap="round"/>
<path d="M80.075 117.093L78.3251 121.757" stroke="#EAB8B8" stroke-linecap="round"/>
<path d="M80.0452 131.132L78.3548 135.818" stroke="#EAB8B8" stroke-linecap="round"/>
<path d="M80.9035 145.679L77.4965 149.371" stroke="#EAB8B8" stroke-linecap="round"/>
<path d="M81.7427 161.458L76.6573 161.692" stroke="#EAB8B8" stroke-linecap="round"/>
<path d="M80.6648 177.656L77.7352 173.594" stroke="#EAB8B8" stroke-linecap="round"/>
<path d="M78.3409 192.013L80.0591 187.337" stroke="#EAB8B8" stroke-linecap="round"/>
<path d="M77.0494 205.054L81.3505 202.396" stroke="#EAB8B8" stroke-linecap="round"/>
<path d="M76.8392 218.704L81.5608 216.846" stroke="#EAB8B8" stroke-linecap="round"/>
<path d="M77.3165 233.496L81.0835 230.154" stroke="#EAB8B8" stroke-linecap="round"/>
<path d="M78.873 248.338L79.527 243.412" stroke="#EAB8B8" stroke-linecap="round"/>
<path d="M80.5412 262.036L77.8588 257.814" stroke="#EAB8B8" stroke-linecap="round"/>
<path d="M81.1119 275.615L77.2881 272.335" stroke="#EAB8B8" stroke-linecap="round"/>
<path d="M95.5476 5.42578L91.6524 8.62437" stroke="#EAB8B8" stroke-linecap="round"/>
<path d="M95.3554 19.2764L91.8446 22.8739" stroke="#EAB8B8" stroke-linecap="round"/>
<path d="M95.4079 33.3765L91.7921 36.8735" stroke="#EAB8B8" stroke-linecap="round"/>
<path d="M95.6805 47.7439L91.5195 50.6063" stroke="#EAB8B8" stroke-linecap="round"/>
<path d="M95.932 62.2292L91.268 64.221" stroke="#EAB8B8" stroke-linecap="round"/>
<path d="M95.9524 76.3259L91.2476 78.224" stroke="#EAB8B8" stroke-linecap="round"/>
<path d="M95.6106 89.8018L91.5894 92.8483" stroke="#EAB8B8" stroke-linecap="round"/>
<path d="M94.6771 103.125L92.5229 107.625" stroke="#EAB8B8" stroke-linecap="round"/>
<path d="M93.5322 116.942L93.6678 121.908" stroke="#EAB8B8" stroke-linecap="round"/>
<path d="M92.997 131.062L94.203 135.888" stroke="#EAB8B8" stroke-linecap="round"/>
<path d="M93.512 145.043L93.688 150.007" stroke="#EAB8B8" stroke-linecap="round"/>
<path d="M95.0527 159.535L92.1473 163.615" stroke="#EAB8B8" stroke-linecap="round"/>
<path d="M96.1442 175.544L91.0558 175.706" stroke="#EAB8B8" stroke-linecap="round"/>
<path d="M95.1016 191.681L92.0984 187.669" stroke="#EAB8B8" stroke-linecap="round"/>
<path d="M93.2696 206.188L93.9304 201.262" stroke="#EAB8B8" stroke-linecap="round"/>
<path d="M92.4319 219.982L94.7681 215.568" stroke="#EAB8B8" stroke-linecap="round"/>
<path d="M92.7772 234.175L94.4228 229.475" stroke="#EAB8B8" stroke-linecap="round"/>
<path d="M94.0227 248.324L93.1773 243.426" stroke="#EAB8B8" stroke-linecap="round"/>
<path d="M95.2107 261.848L91.9893 258.002" stroke="#EAB8B8" stroke-linecap="round"/>
<path d="M95.5783 275.538L91.6217 272.412" stroke="#EAB8B8" stroke-linecap="round"/>
<path d="M110.544 7.125L105.456 6.92499" stroke="#EAB8B8" stroke-linecap="round"/>
<path d="M110.545 21.0337L105.455 21.1164" stroke="#EAB8B8" stroke-linecap="round"/>
<path d="M110.546 35.1189L105.454 35.1311" stroke="#EAB8B8" stroke-linecap="round"/>
<path d="M110.538 49.3723L105.462 48.9775" stroke="#EAB8B8" stroke-linecap="round"/>
<path d="M110.512 63.6287L105.488 62.8216" stroke="#EAB8B8" stroke-linecap="round"/>
<path d="M110.541 77.4229L105.459 77.127" stroke="#EAB8B8" stroke-linecap="round"/>
<path d="M110.398 90.4922L105.602 92.158" stroke="#EAB8B8" stroke-linecap="round"/>
<path d="M109.449 103.333L106.551 107.417" stroke="#EAB8B8" stroke-linecap="round"/>
<path d="M107.929 116.942L108.071 121.908" stroke="#EAB8B8" stroke-linecap="round"/>
<path d="M106.936 131.219L109.064 135.731" stroke="#EAB8B8" stroke-linecap="round"/>
<path d="M106.936 145.269L109.064 149.781" stroke="#EAB8B8" stroke-linecap="round"/>
<path d="M108.033 159.092L107.967 164.059" stroke="#EAB8B8" stroke-linecap="round"/>
<path d="M109.811 173.88L106.189 177.37" stroke="#EAB8B8" stroke-linecap="round"/>
<path d="M110.529 189.96L105.471 189.389" stroke="#EAB8B8" stroke-linecap="round"/>
<path d="M109.67 205.6L106.33 201.85" stroke="#EAB8B8" stroke-linecap="round"/>
<path d="M108.863 220.112L107.137 215.438" stroke="#EAB8B8" stroke-linecap="round"/>
<path d="M109.032 234.096L106.968 229.554" stroke="#EAB8B8" stroke-linecap="round"/>
<path d="M109.839 247.593L106.161 244.157" stroke="#EAB8B8" stroke-linecap="round"/>
<path d="M110.403 260.744L105.597 259.106" stroke="#EAB8B8" stroke-linecap="round"/>
<path d="M110.512 274.379L105.488 273.571" stroke="#EAB8B8" stroke-linecap="round"/>
<path d="M123.836 9.07617L120.964 4.97407" stroke="#EAB8B8" stroke-linecap="round"/>
<path d="M123.806 23.1458L120.994 19.0045" stroke="#EAB8B8" stroke-linecap="round"/>
<path d="M123.813 37.1909L120.987 33.0593" stroke="#EAB8B8" stroke-linecap="round"/>
<path d="M123.856 51.2122L120.944 47.1379" stroke="#EAB8B8" stroke-linecap="round"/>
<path d="M123.968 65.1814L120.832 61.2685" stroke="#EAB8B8" stroke-linecap="round"/>
<path d="M124.35 78.8716L120.45 75.6783" stroke="#EAB8B8" stroke-linecap="round"/>
<path d="M124.874 91.9111L119.926 90.739" stroke="#EAB8B8" stroke-linecap="round"/>
<path d="M124.719 104.351L120.081 106.399" stroke="#EAB8B8" stroke-linecap="round"/>
<path d="M123.508 117.189L121.292 121.661" stroke="#EAB8B8" stroke-linecap="round"/>
<path d="M122.223 130.997L122.577 135.953" stroke="#EAB8B8" stroke-linecap="round"/>
<path d="M121.763 145.12L123.037 149.93" stroke="#EAB8B8" stroke-linecap="round"/>
<path d="M122.29 159.094L122.51 164.056" stroke="#EAB8B8" stroke-linecap="round"/>
<path d="M123.619 173.444L121.181 177.805" stroke="#EAB8B8" stroke-linecap="round"/>
<path d="M124.767 188.76L120.033 190.589" stroke="#EAB8B8" stroke-linecap="round"/>
<path d="M124.888 204.248L119.912 203.202" stroke="#EAB8B8" stroke-linecap="round"/>
<path d="M124.649 218.939L120.151 216.611" stroke="#EAB8B8" stroke-linecap="round"/>
<path d="M124.754 232.77L120.046 230.881" stroke="#EAB8B8" stroke-linecap="round"/>
<path d="M124.945 245.944L119.855 245.806" stroke="#EAB8B8" stroke-linecap="round"/>
<path d="M124.777 259.035L120.023 260.814" stroke="#EAB8B8" stroke-linecap="round"/>
<path d="M124.573 272.681L120.227 275.269" stroke="#EAB8B8" stroke-linecap="round"/>
<path d="M136.091 9.4104L137.509 4.63972" stroke="#EAB8B8" stroke-linecap="round"/>
<path d="M135.892 23.3953L137.708 18.7546" stroke="#EAB8B8" stroke-linecap="round"/>
<path d="M135.941 37.4631L137.659 32.7871" stroke="#EAB8B8" stroke-linecap="round"/>
<path d="M136.229 51.5955L137.371 46.7547" stroke="#EAB8B8" stroke-linecap="round"/>
<path d="M136.671 65.7056L136.929 60.7445" stroke="#EAB8B8" stroke-linecap="round"/>
<path d="M137.284 79.7134L136.316 74.8364" stroke="#EAB8B8" stroke-linecap="round"/>
<path d="M138.199 93.3997L135.401 89.2503" stroke="#EAB8B8" stroke-linecap="round"/>
<path d="M139.103 106.433L134.497 104.317" stroke="#EAB8B8" stroke-linecap="round"/>
<path d="M139.31 119.009L134.29 119.842" stroke="#EAB8B8" stroke-linecap="round"/>
<path d="M138.765 131.896L134.835 135.054" stroke="#EAB8B8" stroke-linecap="round"/>
<path d="M138.19 145.444L135.41 149.606" stroke="#EAB8B8" stroke-linecap="round"/>
<path d="M138.136 159.461L135.464 163.689" stroke="#EAB8B8" stroke-linecap="round"/>
<path d="M138.61 173.878L134.99 177.372" stroke="#EAB8B8" stroke-linecap="round"/>
<path d="M139.139 188.695L134.461 190.655" stroke="#EAB8B8" stroke-linecap="round"/>
<path d="M139.336 203.512L134.264 203.938" stroke="#EAB8B8" stroke-linecap="round"/>
<path d="M139.345 217.829L134.255 217.721" stroke="#EAB8B8" stroke-linecap="round"/>
<path d="M139.319 231.47L134.281 232.18" stroke="#EAB8B8" stroke-linecap="round"/>
<path d="M139.028 244.674L134.572 247.076" stroke="#EAB8B8" stroke-linecap="round"/>
<path d="M138.423 258.011L135.177 261.839" stroke="#EAB8B8" stroke-linecap="round"/>
<path d="M138.001 271.785L135.599 276.165" stroke="#EAB8B8" stroke-linecap="round"/>
<path d="M149.213 8.5769L153.187 5.47303" stroke="#EAB8B8" stroke-linecap="round"/>
<path d="M149.028 22.3711L153.372 19.779" stroke="#EAB8B8" stroke-linecap="round"/>
<path d="M149.079 36.4978L153.321 33.7521" stroke="#EAB8B8" stroke-linecap="round"/>
<path d="M149.35 50.8811L153.05 47.4691" stroke="#EAB8B8" stroke-linecap="round"/>
<path d="M149.781 65.2869L152.619 61.1632" stroke="#EAB8B8" stroke-linecap="round"/>
<path d="M150.239 79.5747L152.161 74.9751" stroke="#EAB8B8" stroke-linecap="round"/>
<path d="M150.8 93.7778L151.6 88.8722" stroke="#EAB8B8" stroke-linecap="round"/>
<path d="M151.601 107.828L150.799 102.922" stroke="#EAB8B8" stroke-linecap="round"/>
<path d="M152.533 121.541L149.867 117.309" stroke="#EAB8B8" stroke-linecap="round"/>
<path d="M153.276 134.912L149.124 132.038" stroke="#EAB8B8" stroke-linecap="round"/>
<path d="M153.646 148.213L148.754 146.837" stroke="#EAB8B8" stroke-linecap="round"/>
<path d="M153.74 161.744L148.66 161.406" stroke="#EAB8B8" stroke-linecap="round"/>
<path d="M153.746 175.632L148.654 175.618" stroke="#EAB8B8" stroke-linecap="round"/>
<path d="M153.745 189.733L148.655 189.617" stroke="#EAB8B8" stroke-linecap="round"/>
<path d="M153.745 203.798L148.656 203.653" stroke="#EAB8B8" stroke-linecap="round"/>
<path d="M153.74 217.611L148.66 217.939" stroke="#EAB8B8" stroke-linecap="round"/>
<path d="M153.632 231.091L148.768 232.558" stroke="#EAB8B8" stroke-linecap="round"/>
<path d="M153.245 244.396L149.155 247.354" stroke="#EAB8B8" stroke-linecap="round"/>
<path d="M152.647 257.882L149.753 261.968" stroke="#EAB8B8" stroke-linecap="round"/>
<path d="M152.226 271.702L150.174 276.248" stroke="#EAB8B8" stroke-linecap="round"/>
<path d="M163.218 7.89966L167.982 6.1501" stroke="#EAB8B8" stroke-linecap="round"/>
<path d="M163.139 21.71L168.061 20.4401" stroke="#EAB8B8" stroke-linecap="round"/>
<path d="M163.199 35.9514L168.001 34.2985" stroke="#EAB8B8" stroke-linecap="round"/>
<path d="M163.396 50.4185L167.804 47.9315" stroke="#EAB8B8" stroke-linecap="round"/>
<path d="M163.679 64.8545L167.521 61.5956" stroke="#EAB8B8" stroke-linecap="round"/>
<path d="M163.91 79.1321L167.29 75.4181" stroke="#EAB8B8" stroke-linecap="round"/>
<path d="M164.018 93.2708L167.182 89.3793" stroke="#EAB8B8" stroke-linecap="round"/>
<path d="M164.13 107.403L167.07 103.347" stroke="#EAB8B8" stroke-linecap="round"/>
<path d="M164.393 121.612L166.807 117.238" stroke="#EAB8B8" stroke-linecap="round"/>
<path d="M164.888 135.859L166.312 131.09" stroke="#EAB8B8" stroke-linecap="round"/>
<path d="M165.606 150.009L165.594 145.041" stroke="#EAB8B8" stroke-linecap="round"/>
<path d="M166.397 163.934L164.803 159.216" stroke="#EAB8B8" stroke-linecap="round"/>
<path d="M167.057 177.661L164.143 173.589" stroke="#EAB8B8" stroke-linecap="round"/>
<path d="M167.545 191.278L163.655 188.073" stroke="#EAB8B8" stroke-linecap="round"/>
<path d="M167.888 204.813L163.312 202.637" stroke="#EAB8B8" stroke-linecap="round"/>
<path d="M168.095 218.266L163.105 217.284" stroke="#EAB8B8" stroke-linecap="round"/>
<path d="M168.139 231.651L163.061 231.999" stroke="#EAB8B8" stroke-linecap="round"/>
<path d="M167.996 245.037L163.204 246.712" stroke="#EAB8B8" stroke-linecap="round"/>
<path d="M167.725 258.558L163.475 261.292" stroke="#EAB8B8" stroke-linecap="round"/>
<path d="M167.512 272.335L163.688 275.615" stroke="#EAB8B8" stroke-linecap="round"/>
<path d="M177.526 7.60913L182.474 6.44063" stroke="#EAB8B8" stroke-linecap="round"/>
<path d="M177.522 21.6423L182.478 20.5076" stroke="#EAB8B8" stroke-linecap="round"/>
<path d="M177.65 36.0798L182.35 34.1702" stroke="#EAB8B8" stroke-linecap="round"/>
<path d="M177.917 50.6025L182.083 47.7475" stroke="#EAB8B8" stroke-linecap="round"/>
<path d="M178.173 64.9543L181.827 61.4954" stroke="#EAB8B8" stroke-linecap="round"/>
<path d="M178.248 79.0771L181.752 75.4731" stroke="#EAB8B8" stroke-linecap="round"/>
<path d="M178.122 93.0015L181.878 89.6484" stroke="#EAB8B8" stroke-linecap="round"/>
<path d="M177.906 106.788L182.094 103.962" stroke="#EAB8B8" stroke-linecap="round"/>
<path d="M177.769 120.621L182.231 118.229" stroke="#EAB8B8" stroke-linecap="round"/>
<path d="M177.799 134.723L182.201 132.227" stroke="#EAB8B8" stroke-linecap="round"/>
<path d="M178.087 149.164L181.913 145.887" stroke="#EAB8B8" stroke-linecap="round"/>
<path d="M178.729 163.727L181.271 159.423" stroke="#EAB8B8" stroke-linecap="round"/>
<path d="M179.661 178.087L180.339 173.163" stroke="#EAB8B8" stroke-linecap="round"/>
<path d="M180.658 192.074L179.342 187.276" stroke="#EAB8B8" stroke-linecap="round"/>
<path d="M181.481 205.745L178.519 201.705" stroke="#EAB8B8" stroke-linecap="round"/>
<path d="M182.022 219.283L177.978 216.266" stroke="#EAB8B8" stroke-linecap="round"/>
<path d="M182.314 232.859L177.686 230.791" stroke="#EAB8B8" stroke-linecap="round"/>
<path d="M182.451 246.544L177.549 245.206" stroke="#EAB8B8" stroke-linecap="round"/>
<path d="M182.512 260.329L177.488 259.521" stroke="#EAB8B8" stroke-linecap="round"/>
<path d="M182.532 274.229L177.468 273.721" stroke="#EAB8B8" stroke-linecap="round"/>
<path d="M191.913 7.55591L196.887 6.49394" stroke="#EAB8B8" stroke-linecap="round"/>
<path d="M191.998 21.8984L196.802 20.2518" stroke="#EAB8B8" stroke-linecap="round"/>
<path d="M192.31 36.5432L196.49 33.7067" stroke="#EAB8B8" stroke-linecap="round"/>
<path d="M192.799 51.1062L196.001 47.2437" stroke="#EAB8B8" stroke-linecap="round"/>
<path d="M193.165 65.397L195.635 61.0532" stroke="#EAB8B8" stroke-linecap="round"/>
<path d="M193.175 79.4521L195.625 75.0977" stroke="#EAB8B8" stroke-linecap="round"/>
<path d="M192.871 93.3108L195.929 89.3393" stroke="#EAB8B8" stroke-linecap="round"/>
<path d="M192.475 107L196.325 103.75" stroke="#EAB8B8" stroke-linecap="round"/>
<path d="M192.187 120.652L196.613 118.198" stroke="#EAB8B8" stroke-linecap="round"/>
<path d="M192.101 134.542L196.699 132.408" stroke="#EAB8B8" stroke-linecap="round"/>
<path d="M192.237 148.834L196.563 146.216" stroke="#EAB8B8" stroke-linecap="round"/>
<path d="M192.672 163.398L196.128 159.751" stroke="#EAB8B8" stroke-linecap="round"/>
<path d="M193.438 177.925L195.362 173.325" stroke="#EAB8B8" stroke-linecap="round"/>
<path d="M194.348 192.158L194.452 187.192" stroke="#EAB8B8" stroke-linecap="round"/>
<path d="M195.113 206.109L193.687 201.341" stroke="#EAB8B8" stroke-linecap="round"/>
<path d="M195.574 219.979L193.226 215.571" stroke="#EAB8B8" stroke-linecap="round"/>
<path d="M195.742 233.936L193.058 229.714" stroke="#EAB8B8" stroke-linecap="round"/>
<path d="M195.709 248.005L193.091 243.744" stroke="#EAB8B8" stroke-linecap="round"/>
<path d="M195.608 262.112L193.192 257.739" stroke="#EAB8B8" stroke-linecap="round"/>
<path d="M195.543 276.194L193.257 271.756" stroke="#EAB8B8" stroke-linecap="round"/>
<path d="M206.338 7.65527L211.262 6.39494" stroke="#EAB8B8" stroke-linecap="round"/>
<path d="M206.565 22.2642L211.035 19.8859" stroke="#EAB8B8" stroke-linecap="round"/>
<path d="M207.15 37.0166L210.45 33.2336" stroke="#EAB8B8" stroke-linecap="round"/>
<path d="M207.941 51.5129L209.659 46.837" stroke="#EAB8B8" stroke-linecap="round"/>
<path d="M208.523 65.6941L209.077 60.7561" stroke="#EAB8B8" stroke-linecap="round"/>
<path d="M208.641 79.7539L208.959 74.7962" stroke="#EAB8B8" stroke-linecap="round"/>
<path d="M208.332 93.7664L209.268 88.8835" stroke="#EAB8B8" stroke-linecap="round"/>
<path d="M207.852 107.68L209.748 103.07" stroke="#EAB8B8" stroke-linecap="round"/>
<path d="M207.473 121.544L210.127 117.306" stroke="#EAB8B8" stroke-linecap="round"/>
<path d="M207.338 135.508L210.262 131.442" stroke="#EAB8B8" stroke-linecap="round"/>
<path d="M207.472 149.644L210.128 145.406" stroke="#EAB8B8" stroke-linecap="round"/>
<path d="M207.874 163.889L209.726 159.261" stroke="#EAB8B8" stroke-linecap="round"/>
<path d="M208.458 178.086L209.142 173.164" stroke="#EAB8B8" stroke-linecap="round"/>
<path d="M209.006 192.151L208.594 187.2" stroke="#EAB8B8" stroke-linecap="round"/>
<path d="M209.312 206.158L208.288 201.292" stroke="#EAB8B8" stroke-linecap="round"/>
<path d="M209.283 220.214L208.317 215.336" stroke="#EAB8B8" stroke-linecap="round"/>
<path d="M208.943 234.305L208.657 229.345" stroke="#EAB8B8" stroke-linecap="round"/>
<path d="M208.425 248.332L209.175 243.418" stroke="#EAB8B8" stroke-linecap="round"/>
<path d="M207.95 262.266L209.65 257.584" stroke="#EAB8B8" stroke-linecap="round"/>
<path d="M207.687 276.209L209.913 271.741" stroke="#EAB8B8" stroke-linecap="round"/>
<path d="M220.837 7.94849L225.563 6.10136" stroke="#EAB8B8" stroke-linecap="round"/>
<path d="M221.242 22.6626L225.158 19.4873" stroke="#EAB8B8" stroke-linecap="round"/>
<path d="M222.072 37.3516L224.328 32.8985" stroke="#EAB8B8" stroke-linecap="round"/>
<path d="M223.097 51.6567L223.303 46.6933" stroke="#EAB8B8" stroke-linecap="round"/>
<path d="M223.896 65.614L222.504 60.836" stroke="#EAB8B8" stroke-linecap="round"/>
<path d="M224.266 79.5303L222.134 75.0197" stroke="#EAB8B8" stroke-linecap="round"/>
<path d="M224.271 93.5781L222.129 89.0717" stroke="#EAB8B8" stroke-linecap="round"/>
<path d="M224.096 107.7L222.304 103.05" stroke="#EAB8B8" stroke-linecap="round"/>
<path d="M223.943 121.801L222.457 117.049" stroke="#EAB8B8" stroke-linecap="round"/>
<path d="M223.887 135.866L222.513 131.083" stroke="#EAB8B8" stroke-linecap="round"/>
<path d="M223.942 149.901L222.458 145.149" stroke="#EAB8B8" stroke-linecap="round"/>
<path d="M224.094 163.9L222.306 159.25" stroke="#EAB8B8" stroke-linecap="round"/>
<path d="M224.264 177.881L222.136 173.368" stroke="#EAB8B8" stroke-linecap="round"/>
<path d="M224.298 191.916L222.102 187.434" stroke="#EAB8B8" stroke-linecap="round"/>
<path d="M224.071 206.059L222.329 201.391" stroke="#EAB8B8" stroke-linecap="round"/>
<path d="M223.525 220.238L222.875 215.312" stroke="#EAB8B8" stroke-linecap="round"/>
<path d="M222.718 234.264L223.682 229.386" stroke="#EAB8B8" stroke-linecap="round"/>
<path d="M221.881 247.999L224.519 243.751" stroke="#EAB8B8" stroke-linecap="round"/>
<path d="M221.281 261.557L225.119 258.293" stroke="#EAB8B8" stroke-linecap="round"/>
<path d="M221.005 275.234L225.395 272.716" stroke="#EAB8B8" stroke-linecap="round"/>
<path d="M235.601 8.56323L239.599 5.48696" stroke="#EAB8B8" stroke-linecap="round"/>
<path d="M236.161 23.1235L239.039 19.0266" stroke="#EAB8B8" stroke-linecap="round"/>
<path d="M237.084 37.5571L238.116 32.6929" stroke="#EAB8B8" stroke-linecap="round"/>
<path d="M238.162 51.5974L237.038 46.7527" stroke="#EAB8B8" stroke-linecap="round"/>
<path d="M239.057 65.2615L236.143 61.1884" stroke="#EAB8B8" stroke-linecap="round"/>
<path d="M239.601 78.8105L235.599 75.7396" stroke="#EAB8B8" stroke-linecap="round"/>
<path d="M239.863 92.4622L235.337 90.1877" stroke="#EAB8B8" stroke-linecap="round"/>
<path d="M239.978 106.26L235.222 104.49" stroke="#EAB8B8" stroke-linecap="round"/>
<path d="M240.031 120.161L235.169 118.689" stroke="#EAB8B8" stroke-linecap="round"/>
<path d="M240.048 134.157L235.152 132.793" stroke="#EAB8B8" stroke-linecap="round"/>
<path d="M240.031 148.26L235.169 146.789" stroke="#EAB8B8" stroke-linecap="round"/>
<path d="M239.979 162.458L235.221 160.692" stroke="#EAB8B8" stroke-linecap="round"/>
<path d="M239.876 176.737L235.324 174.513" stroke="#EAB8B8" stroke-linecap="round"/>
<path d="M239.664 191.129L235.536 188.221" stroke="#EAB8B8" stroke-linecap="round"/>
<path d="M239.242 205.623L235.958 201.827" stroke="#EAB8B8" stroke-linecap="round"/>
<path d="M238.53 220.087L236.67 215.463" stroke="#EAB8B8" stroke-linecap="round"/>
<path d="M237.57 234.309L237.63 229.342" stroke="#EAB8B8" stroke-linecap="round"/>
<path d="M236.571 248.147L238.629 243.603" stroke="#EAB8B8" stroke-linecap="round"/>
<path d="M235.804 261.685L239.396 258.165" stroke="#EAB8B8" stroke-linecap="round"/>
<path d="M235.4 275.225L239.8 272.725" stroke="#EAB8B8" stroke-linecap="round"/>
<path d="M251.14 9.36255L252.86 4.68732" stroke="#EAB8B8" stroke-linecap="round"/>
<path d="M251.648 23.5349L252.351 18.6151" stroke="#EAB8B8" stroke-linecap="round"/>
<path d="M252.387 37.5798L251.613 32.6701" stroke="#EAB8B8" stroke-linecap="round"/>
<path d="M253.253 51.3372L250.747 47.0129" stroke="#EAB8B8" stroke-linecap="round"/>
<path d="M254.019 64.7373L249.981 61.7126" stroke="#EAB8B8" stroke-linecap="round"/>
<path d="M254.462 77.906L249.538 76.6439" stroke="#EAB8B8" stroke-linecap="round"/>
<path d="M254.534 91.0918L249.466 91.5582" stroke="#EAB8B8" stroke-linecap="round"/>
<path d="M254.376 104.484L249.624 106.267" stroke="#EAB8B8" stroke-linecap="round"/>
<path d="M254.177 118.138L249.823 120.712" stroke="#EAB8B8" stroke-linecap="round"/>
<path d="M254.089 132.056L249.911 134.894" stroke="#EAB8B8" stroke-linecap="round"/>
<path d="M254.176 146.237L249.824 148.813" stroke="#EAB8B8" stroke-linecap="round"/>
<path d="M254.374 160.678L249.626 162.472" stroke="#EAB8B8" stroke-linecap="round"/>
<path d="M254.525 175.31L249.475 175.94" stroke="#EAB8B8" stroke-linecap="round"/>
<path d="M254.522 190.012L249.478 189.338" stroke="#EAB8B8" stroke-linecap="round"/>
<path d="M254.338 204.708L249.662 202.743" stroke="#EAB8B8" stroke-linecap="round"/>
<path d="M253.975 219.342L250.025 216.208" stroke="#EAB8B8" stroke-linecap="round"/>
<path d="M253.438 233.875L250.562 229.775" stroke="#EAB8B8" stroke-linecap="round"/>
<path d="M252.732 248.254L251.268 243.496" stroke="#EAB8B8" stroke-linecap="round"/>
<path d="M251.91 262.407L252.09 257.443" stroke="#EAB8B8" stroke-linecap="round"/>
<path d="M251.148 276.315L252.852 271.634" stroke="#EAB8B8" stroke-linecap="round"/>
<path d="M267.597 9.21704L265.203 4.83297" stroke="#EAB8B8" stroke-linecap="round"/>
<path d="M267.722 23.1978L265.078 18.9522" stroke="#EAB8B8" stroke-linecap="round"/>
<path d="M267.957 37.0898L264.843 33.16" stroke="#EAB8B8" stroke-linecap="round"/>
<path d="M268.35 50.7715L264.45 47.5785" stroke="#EAB8B8" stroke-linecap="round"/>
<path d="M268.777 64.1133L264.023 62.3365" stroke="#EAB8B8" stroke-linecap="round"/>
<path d="M268.943 77.1575L263.857 77.3924" stroke="#EAB8B8" stroke-linecap="round"/>
<path d="M268.669 90.1982L264.131 92.4519" stroke="#EAB8B8" stroke-linecap="round"/>
<path d="M268.117 103.541L264.683 107.209" stroke="#EAB8B8" stroke-linecap="round"/>
<path d="M267.626 117.248L265.174 121.602" stroke="#EAB8B8" stroke-linecap="round"/>
<path d="M267.45 131.212L265.35 135.738" stroke="#EAB8B8" stroke-linecap="round"/>
<path d="M267.674 145.375L265.126 149.675" stroke="#EAB8B8" stroke-linecap="round"/>
<path d="M268.197 159.816L264.603 163.334" stroke="#EAB8B8" stroke-linecap="round"/>
<path d="M268.693 174.546L264.107 176.704" stroke="#EAB8B8" stroke-linecap="round"/>
<path d="M268.916 189.297L263.884 190.053" stroke="#EAB8B8" stroke-linecap="round"/>
<path d="M268.944 203.816L263.856 203.635" stroke="#EAB8B8" stroke-linecap="round"/>
<path d="M268.927 218.076L263.873 217.474" stroke="#EAB8B8" stroke-linecap="round"/>
<path d="M268.915 232.21L263.885 231.44" stroke="#EAB8B8" stroke-linecap="round"/>
<path d="M268.883 246.423L263.917 245.327" stroke="#EAB8B8" stroke-linecap="round"/>
<path d="M268.748 260.884L264.052 258.966" stroke="#EAB8B8" stroke-linecap="round"/>
<path d="M268.382 275.534L264.418 272.416" stroke="#EAB8B8" stroke-linecap="round"/>
<path d="M283.31 7.43896L278.29 6.61082" stroke="#EAB8B8" stroke-linecap="round"/>
<path d="M283.254 21.7336L278.346 20.4163" stroke="#EAB8B8" stroke-linecap="round"/>
<path d="M283.207 35.9329L278.393 34.317" stroke="#EAB8B8" stroke-linecap="round"/>
<path d="M283.26 49.8127L278.34 48.5372" stroke="#EAB8B8" stroke-linecap="round"/>
<path d="M283.345 63.2822L278.255 63.1678" stroke="#EAB8B8" stroke-linecap="round"/>
<path d="M283.204 76.458L278.396 78.0921" stroke="#EAB8B8" stroke-linecap="round"/>
<path d="M282.7 89.6724L278.9 92.9777" stroke="#EAB8B8" stroke-linecap="round"/>
<path d="M282.044 103.208L279.556 107.542" stroke="#EAB8B8" stroke-linecap="round"/>
<path d="M281.588 117.063L280.012 121.787" stroke="#EAB8B8" stroke-linecap="round"/>
<path d="M281.536 131.097L280.064 135.853" stroke="#EAB8B8" stroke-linecap="round"/>
<path d="M281.936 145.302L279.664 149.747" stroke="#EAB8B8" stroke-linecap="round"/>
<path d="M282.625 159.844L278.975 163.306" stroke="#EAB8B8" stroke-linecap="round"/>
<path d="M283.167 174.71L278.433 176.54" stroke="#EAB8B8" stroke-linecap="round"/>
<path d="M283.336 189.458L278.264 189.892" stroke="#EAB8B8" stroke-linecap="round"/>
<path d="M283.345 203.654L278.255 203.796" stroke="#EAB8B8" stroke-linecap="round"/>
<path d="M283.293 217.271L278.307 218.279" stroke="#EAB8B8" stroke-linecap="round"/>
<path d="M283.022 230.614L278.578 233.036" stroke="#EAB8B8" stroke-linecap="round"/>
<path d="M282.618 244.136L278.982 247.614" stroke="#EAB8B8" stroke-linecap="round"/>
<path d="M282.491 258.069L279.109 261.781" stroke="#EAB8B8" stroke-linecap="round"/>
<path d="M282.79 272.426L278.81 275.524" stroke="#EAB8B8" stroke-linecap="round"/>
</svg>
