<svg width="35" height="34" viewBox="0 0 35 34" fill="none" xmlns="http://www.w3.org/2000/svg">
<g id="Group">
<g id="Group_2">
<path id="Vector" d="M17.5 23.9511C13.4116 23.9511 10.0491 20.7552 10.0491 16.8247C10.0491 12.8941 13.4116 9.69824 17.5 9.69824C21.5884 9.69824 24.9509 12.8941 24.9509 16.8247C24.9509 20.7552 21.5884 23.9511 17.5 23.9511ZM17.5 11.1676C14.2522 11.1676 11.5775 13.7023 11.5775 16.8247C11.5775 19.9471 14.214 22.4817 17.5 22.4817C20.786 22.4817 23.4225 19.9471 23.4225 16.8247C23.4225 13.7023 20.7478 11.1676 17.5 11.1676Z" fill="#FFFBF7"/>
</g>
<g id="Group_3">
<path id="Vector_2" d="M17.5001 33.6484C17.0797 33.6484 16.7359 33.3177 16.7359 32.9137V27.5872C16.7359 27.1831 17.0797 26.8525 17.5001 26.8525C17.9204 26.8525 18.2642 27.1831 18.2642 27.5872V32.9137C18.2642 33.3177 17.9204 33.6484 17.5001 33.6484Z" fill="#FFFBF7"/>
</g>
<g id="Group_4">
<path id="Vector_3" d="M17.5001 6.79581C17.0797 6.79581 16.7359 6.46521 16.7359 6.06113V0.734683C16.7359 0.330607 17.0797 0 17.5001 0C17.9204 0 18.2642 0.330607 18.2642 0.734683V6.06113C18.2642 6.46521 17.9204 6.79581 17.5001 6.79581Z" fill="#FFFBF7"/>
</g>
<g id="Group_5">
<path id="Vector_4" d="M6.30458 17.5592H0.764192C0.343886 17.5592 0 17.2286 0 16.8245C0 16.4205 0.343886 16.0898 0.764192 16.0898H6.30458C6.72489 16.0898 7.06878 16.4205 7.06878 16.8245C7.06878 17.2286 6.72489 17.5592 6.30458 17.5592Z" fill="#FFFBF7"/>
</g>
<g id="Group_6">
<path id="Vector_5" d="M34.2358 17.5592H28.6954C28.2751 17.5592 27.9312 17.2286 27.9312 16.8245C27.9312 16.4205 28.2751 16.0898 28.6954 16.0898H34.2358C34.6561 16.0898 35 16.4205 35 16.8245C35 17.2286 34.6561 17.5592 34.2358 17.5592Z" fill="#FFFBF7"/>
</g>
<g id="Group_7">
<path id="Vector_6" d="M5.65505 28.9463C5.464 28.9463 5.27296 28.8729 5.12012 28.7259C4.81444 28.4321 4.81444 27.9913 5.12012 27.6974L9.05571 23.9138C9.36138 23.6199 9.8199 23.6199 10.1256 23.9138C10.4313 24.2076 10.4313 24.6484 10.1256 24.9423L6.18999 28.7259C6.07536 28.8729 5.8461 28.9463 5.65505 28.9463Z" fill="#FFFBF7"/>
</g>
<g id="Group_8">
<path id="Vector_7" d="M25.4094 9.95513C25.2184 9.95513 25.0273 9.88166 24.8745 9.73473C24.5688 9.44085 24.5688 9.00004 24.8745 8.70617L28.8101 4.92255C29.1157 4.62868 29.5743 4.62868 29.8799 4.92255C30.1856 5.21643 30.1856 5.65724 29.8799 5.95111L25.9443 9.73473C25.7915 9.88166 25.6005 9.95513 25.4094 9.95513Z" fill="#FFFBF7"/>
</g>
<g id="Group_9">
<path id="Vector_8" d="M9.59064 9.95513C9.39959 9.95513 9.20855 9.88166 9.05571 9.73473L5.12012 5.95111C4.81444 5.65724 4.81444 5.21643 5.12012 4.92255C5.42579 4.62868 5.88431 4.62868 6.18999 4.92255L10.1256 8.70617C10.4313 9.00004 10.4313 9.44085 10.1256 9.73473C9.97274 9.88166 9.78169 9.95513 9.59064 9.95513Z" fill="#FFFBF7"/>
</g>
<g id="Group_10">
<path id="Vector_9" d="M29.345 28.9463C29.1539 28.9463 28.9629 28.8729 28.8101 28.7259L24.8745 24.9423C24.5688 24.6484 24.5688 24.2076 24.8745 23.9138C25.1802 23.6199 25.6387 23.6199 25.9443 23.9138L29.8799 27.6974C30.1856 27.9913 30.1856 28.4321 29.8799 28.7259C29.7271 28.8729 29.536 28.9463 29.345 28.9463Z" fill="#FFFBF7"/>
</g>
</g>
</svg>
