<svg width="201" height="143" viewBox="0 0 201 143" fill="none" xmlns="http://www.w3.org/2000/svg">
<path d="M5.61555 58.3783C10.4366 47.0506 34.7652 37.816 55.6801 33.1953C76.6186 28.6597 94.1669 28.8231 104.895 33.6308C115.778 38.4869 119.818 47.9021 135.471 50.9747C150.968 53.9988 177.947 50.7169 187.245 56.0135C196.544 61.31 188.293 75.1483 177.617 86.9119C166.785 98.6271 153.634 108.146 139.711 110.274C125.944 112.45 111.511 107.114 90.0028 113.183C68.4705 119.166 39.8618 136.554 28.7822 135.601C17.7025 134.648 24.1283 115.269 20.0334 98.9969C15.7828 82.6762 0.902964 69.5842 5.61555 58.3783Z" fill="#C48686"/>
<path d="M44.562 70.922H43.662C43.482 70.922 43.338 70.97 43.23 71.066C43.122 71.15 43.032 71.264 42.96 71.408C42.9 71.552 42.858 71.72 42.834 71.912C42.81 72.092 42.798 72.278 42.798 72.47V75.764C42.798 76.184 42.732 76.544 42.6 76.844C42.48 77.132 42.336 77.372 42.168 77.564C42 77.756 41.826 77.9 41.646 77.996C41.478 78.092 41.34 78.152 41.232 78.176V78.23C41.34 78.242 41.478 78.29 41.646 78.374C41.826 78.458 42 78.596 42.168 78.788C42.336 78.968 42.48 79.208 42.6 79.508C42.732 79.808 42.798 80.186 42.798 80.642V83.918C42.798 84.098 42.81 84.278 42.834 84.458C42.858 84.65 42.9 84.818 42.96 84.962C43.032 85.118 43.122 85.238 43.23 85.322C43.338 85.418 43.482 85.466 43.662 85.466H44.562V86.546H43.302C43.074 86.546 42.846 86.492 42.618 86.384C42.39 86.288 42.18 86.138 41.988 85.934C41.808 85.742 41.658 85.496 41.538 85.196C41.418 84.908 41.358 84.572 41.358 84.188V80.93C41.358 80.606 41.316 80.312 41.232 80.048C41.148 79.784 41.034 79.562 40.89 79.382C40.758 79.202 40.602 79.064 40.422 78.968C40.242 78.872 40.056 78.824 39.864 78.824V77.6C40.056 77.6 40.242 77.552 40.422 77.456C40.602 77.348 40.758 77.204 40.89 77.024C41.034 76.832 41.148 76.604 41.232 76.34C41.316 76.076 41.358 75.788 41.358 75.476V72.2C41.358 71.816 41.418 71.48 41.538 71.192C41.658 70.892 41.808 70.646 41.988 70.454C42.18 70.25 42.39 70.1 42.618 70.004C42.846 69.896 43.074 69.842 43.302 69.842H44.562V70.922ZM57.6179 77.456C57.5939 77.096 57.5099 76.754 57.3659 76.43C57.2339 76.106 57.0479 75.83 56.8079 75.602C56.5799 75.362 56.3039 75.176 55.9799 75.044C55.6679 74.9 55.3199 74.828 54.9359 74.828C54.5399 74.828 54.1799 74.9 53.8559 75.044C53.5439 75.176 53.2739 75.362 53.0459 75.602C52.8179 75.842 52.6379 76.124 52.5059 76.448C52.3739 76.76 52.2959 77.096 52.2719 77.456H57.6179ZM59.0939 80.048C58.8899 81.092 58.4399 81.878 57.7439 82.406C57.0479 82.934 56.1719 83.198 55.1159 83.198C54.3719 83.198 53.7239 83.078 53.1719 82.838C52.6319 82.598 52.1759 82.262 51.8039 81.83C51.4319 81.398 51.1499 80.882 50.9579 80.282C50.7779 79.682 50.6759 79.028 50.6519 78.32C50.6519 77.612 50.7599 76.964 50.9759 76.376C51.1919 75.788 51.4919 75.278 51.8759 74.846C52.2719 74.414 52.7339 74.078 53.2619 73.838C53.8019 73.598 54.3899 73.478 55.0259 73.478C55.8539 73.478 56.5379 73.652 57.0779 74C57.6299 74.336 58.0679 74.768 58.3919 75.296C58.7279 75.824 58.9559 76.4 59.0759 77.024C59.2079 77.648 59.2619 78.242 59.2379 78.806H52.2719C52.2599 79.214 52.3079 79.604 52.4159 79.976C52.5239 80.336 52.6979 80.66 52.9379 80.948C53.1779 81.224 53.4839 81.446 53.8559 81.614C54.2279 81.782 54.6659 81.866 55.1699 81.866C55.8179 81.866 56.3459 81.716 56.7539 81.416C57.1739 81.116 57.4499 80.66 57.5819 80.048H59.0939ZM60.8239 73.694H62.2639V75.062H62.2999C62.9959 74.006 63.9979 73.478 65.3059 73.478C65.8819 73.478 66.4039 73.598 66.8719 73.838C67.3399 74.078 67.6699 74.486 67.8619 75.062C68.1739 74.558 68.5819 74.168 69.0859 73.892C69.6019 73.616 70.1659 73.478 70.7779 73.478C71.2459 73.478 71.6659 73.532 72.0379 73.64C72.4219 73.736 72.7459 73.892 73.0099 74.108C73.2859 74.324 73.4959 74.606 73.6399 74.954C73.7959 75.29 73.8739 75.698 73.8739 76.178V83H72.3439V76.898C72.3439 76.61 72.3199 76.34 72.2719 76.088C72.2239 75.836 72.1339 75.62 72.0019 75.44C71.8699 75.248 71.6839 75.098 71.4439 74.99C71.2159 74.882 70.9159 74.828 70.5439 74.828C69.7879 74.828 69.1939 75.044 68.7619 75.476C68.3299 75.908 68.1139 76.484 68.1139 77.204V83H66.5839V76.898C66.5839 76.598 66.5539 76.322 66.4939 76.07C66.4459 75.818 66.3559 75.602 66.2239 75.422C66.0919 75.23 65.9119 75.086 65.6839 74.99C65.4679 74.882 65.1859 74.828 64.8379 74.828C64.3939 74.828 64.0099 74.918 63.6859 75.098C63.3739 75.278 63.1159 75.494 62.9119 75.746C62.7199 75.998 62.5759 76.262 62.4799 76.538C62.3959 76.802 62.3539 77.024 62.3539 77.204V83H60.8239V73.694ZM76.1696 73.694H77.6096V75.062H77.6456C78.3416 74.006 79.3436 73.478 80.6516 73.478C81.2276 73.478 81.7496 73.598 82.2176 73.838C82.6856 74.078 83.0156 74.486 83.2076 75.062C83.5196 74.558 83.9276 74.168 84.4316 73.892C84.9476 73.616 85.5116 73.478 86.1236 73.478C86.5916 73.478 87.0116 73.532 87.3836 73.64C87.7676 73.736 88.0916 73.892 88.3556 74.108C88.6316 74.324 88.8416 74.606 88.9856 74.954C89.1416 75.29 89.2196 75.698 89.2196 76.178V83H87.6896V76.898C87.6896 76.61 87.6656 76.34 87.6176 76.088C87.5696 75.836 87.4796 75.62 87.3476 75.44C87.2156 75.248 87.0296 75.098 86.7896 74.99C86.5616 74.882 86.2616 74.828 85.8896 74.828C85.1336 74.828 84.5396 75.044 84.1076 75.476C83.6756 75.908 83.4596 76.484 83.4596 77.204V83H81.9296V76.898C81.9296 76.598 81.8996 76.322 81.8396 76.07C81.7916 75.818 81.7016 75.602 81.5696 75.422C81.4376 75.23 81.2576 75.086 81.0296 74.99C80.8136 74.882 80.5316 74.828 80.1836 74.828C79.7396 74.828 79.3556 74.918 79.0316 75.098C78.7196 75.278 78.4616 75.494 78.2576 75.746C78.0656 75.998 77.9216 76.262 77.8256 76.538C77.7416 76.802 77.6996 77.024 77.6996 77.204V83H76.1696V73.694ZM99.7593 82.964C99.4953 83.12 99.1293 83.198 98.6613 83.198C98.2653 83.198 97.9473 83.09 97.7073 82.874C97.4793 82.646 97.3653 82.28 97.3653 81.776C96.9453 82.28 96.4533 82.646 95.8893 82.874C95.3373 83.09 94.7373 83.198 94.0893 83.198C93.6693 83.198 93.2673 83.15 92.8833 83.054C92.5113 82.958 92.1873 82.808 91.9113 82.604C91.6353 82.4 91.4133 82.136 91.2453 81.812C91.0893 81.476 91.0113 81.074 91.0113 80.606C91.0113 80.078 91.1013 79.646 91.2813 79.31C91.4613 78.974 91.6953 78.704 91.9833 78.5C92.2833 78.284 92.6193 78.122 92.9913 78.014C93.3753 77.906 93.7653 77.816 94.1613 77.744C94.5813 77.66 94.9773 77.6 95.3493 77.564C95.7333 77.516 96.0693 77.456 96.3573 77.384C96.6453 77.3 96.8733 77.186 97.0413 77.042C97.2093 76.886 97.2933 76.664 97.2933 76.376C97.2933 76.04 97.2273 75.77 97.0953 75.566C96.9753 75.362 96.8133 75.206 96.6093 75.098C96.4173 74.99 96.1953 74.918 95.9433 74.882C95.7033 74.846 95.4633 74.828 95.2233 74.828C94.5753 74.828 94.0353 74.954 93.6033 75.206C93.1713 75.446 92.9373 75.908 92.9013 76.592H91.3713C91.3953 76.016 91.5153 75.53 91.7313 75.134C91.9473 74.738 92.2353 74.42 92.5953 74.18C92.9553 73.928 93.3633 73.748 93.8193 73.64C94.2873 73.532 94.7853 73.478 95.3133 73.478C95.7333 73.478 96.1473 73.508 96.5553 73.568C96.9753 73.628 97.3533 73.754 97.6893 73.946C98.0253 74.126 98.2953 74.384 98.4993 74.72C98.7033 75.056 98.8053 75.494 98.8053 76.034V80.822C98.8053 81.182 98.8233 81.446 98.8593 81.614C98.9073 81.782 99.0513 81.866 99.2913 81.866C99.4233 81.866 99.5793 81.836 99.7593 81.776V82.964ZM97.2753 78.194C97.0833 78.338 96.8313 78.446 96.5193 78.518C96.2073 78.578 95.8773 78.632 95.5293 78.68C95.1933 78.716 94.8513 78.764 94.5033 78.824C94.1553 78.872 93.8433 78.956 93.5673 79.076C93.2913 79.196 93.0633 79.37 92.8833 79.598C92.7153 79.814 92.6313 80.114 92.6313 80.498C92.6313 80.75 92.6793 80.966 92.7753 81.146C92.8833 81.314 93.0153 81.452 93.1713 81.56C93.3393 81.668 93.5313 81.746 93.7473 81.794C93.9633 81.842 94.1913 81.866 94.4313 81.866C94.9353 81.866 95.3673 81.8 95.7273 81.668C96.0873 81.524 96.3813 81.35 96.6093 81.146C96.8373 80.93 97.0053 80.702 97.1133 80.462C97.2213 80.21 97.2753 79.976 97.2753 79.76V78.194ZM106.823 75.044H105.257V73.694H106.823V72.308C106.823 71.552 107.039 70.982 107.471 70.598C107.915 70.202 108.557 70.004 109.397 70.004C109.541 70.004 109.703 70.016 109.883 70.04C110.075 70.064 110.243 70.1 110.387 70.148V71.48C110.255 71.432 110.111 71.402 109.955 71.39C109.799 71.366 109.655 71.354 109.523 71.354C109.151 71.354 108.863 71.426 108.659 71.57C108.455 71.714 108.353 71.99 108.353 72.398V73.694H110.153V75.044H108.353V83H106.823V75.044ZM119.763 82.964C119.499 83.12 119.133 83.198 118.665 83.198C118.269 83.198 117.951 83.09 117.711 82.874C117.483 82.646 117.369 82.28 117.369 81.776C116.949 82.28 116.457 82.646 115.893 82.874C115.341 83.09 114.741 83.198 114.093 83.198C113.673 83.198 113.271 83.15 112.887 83.054C112.515 82.958 112.191 82.808 111.915 82.604C111.639 82.4 111.417 82.136 111.249 81.812C111.093 81.476 111.015 81.074 111.015 80.606C111.015 80.078 111.105 79.646 111.285 79.31C111.465 78.974 111.699 78.704 111.987 78.5C112.287 78.284 112.623 78.122 112.995 78.014C113.379 77.906 113.769 77.816 114.165 77.744C114.585 77.66 114.981 77.6 115.353 77.564C115.737 77.516 116.073 77.456 116.361 77.384C116.649 77.3 116.877 77.186 117.045 77.042C117.213 76.886 117.297 76.664 117.297 76.376C117.297 76.04 117.231 75.77 117.099 75.566C116.979 75.362 116.817 75.206 116.613 75.098C116.421 74.99 116.199 74.918 115.947 74.882C115.707 74.846 115.467 74.828 115.227 74.828C114.579 74.828 114.039 74.954 113.607 75.206C113.175 75.446 112.941 75.908 112.905 76.592H111.375C111.399 76.016 111.519 75.53 111.735 75.134C111.951 74.738 112.239 74.42 112.599 74.18C112.959 73.928 113.367 73.748 113.823 73.64C114.291 73.532 114.789 73.478 115.317 73.478C115.737 73.478 116.151 73.508 116.559 73.568C116.979 73.628 117.357 73.754 117.693 73.946C118.029 74.126 118.299 74.384 118.503 74.72C118.707 75.056 118.809 75.494 118.809 76.034V80.822C118.809 81.182 118.827 81.446 118.863 81.614C118.911 81.782 119.055 81.866 119.295 81.866C119.427 81.866 119.583 81.836 119.763 81.776V82.964ZM117.279 78.194C117.087 78.338 116.835 78.446 116.523 78.518C116.211 78.578 115.881 78.632 115.533 78.68C115.197 78.716 114.855 78.764 114.507 78.824C114.159 78.872 113.847 78.956 113.571 79.076C113.295 79.196 113.067 79.37 112.887 79.598C112.719 79.814 112.635 80.114 112.635 80.498C112.635 80.75 112.683 80.966 112.779 81.146C112.887 81.314 113.019 81.452 113.175 81.56C113.343 81.668 113.535 81.746 113.751 81.794C113.967 81.842 114.195 81.866 114.435 81.866C114.939 81.866 115.371 81.8 115.731 81.668C116.091 81.524 116.385 81.35 116.613 81.146C116.841 80.93 117.009 80.702 117.117 80.462C117.225 80.21 117.279 79.976 117.279 79.76V78.194ZM124.841 84.242C124.661 84.698 124.481 85.082 124.301 85.394C124.133 85.706 123.941 85.958 123.725 86.15C123.521 86.354 123.287 86.498 123.023 86.582C122.771 86.678 122.477 86.726 122.141 86.726C121.961 86.726 121.781 86.714 121.601 86.69C121.421 86.666 121.247 86.624 121.079 86.564V85.16C121.211 85.22 121.361 85.268 121.529 85.304C121.709 85.352 121.859 85.376 121.979 85.376C122.291 85.376 122.549 85.298 122.753 85.142C122.969 84.998 123.131 84.788 123.239 84.512L123.869 82.946L120.179 73.694H121.907L124.625 81.308H124.661L127.271 73.694H128.891L124.841 84.242ZM136.649 77.456C136.625 77.096 136.541 76.754 136.397 76.43C136.265 76.106 136.079 75.83 135.839 75.602C135.611 75.362 135.335 75.176 135.011 75.044C134.699 74.9 134.351 74.828 133.967 74.828C133.571 74.828 133.211 74.9 132.887 75.044C132.575 75.176 132.305 75.362 132.077 75.602C131.849 75.842 131.669 76.124 131.537 76.448C131.405 76.76 131.327 77.096 131.303 77.456H136.649ZM138.125 80.048C137.921 81.092 137.471 81.878 136.775 82.406C136.079 82.934 135.203 83.198 134.147 83.198C133.403 83.198 132.755 83.078 132.203 82.838C131.663 82.598 131.207 82.262 130.835 81.83C130.463 81.398 130.181 80.882 129.989 80.282C129.809 79.682 129.707 79.028 129.683 78.32C129.683 77.612 129.791 76.964 130.007 76.376C130.223 75.788 130.523 75.278 130.907 74.846C131.303 74.414 131.765 74.078 132.293 73.838C132.833 73.598 133.421 73.478 134.057 73.478C134.885 73.478 135.569 73.652 136.109 74C136.661 74.336 137.099 74.768 137.423 75.296C137.759 75.824 137.987 76.4 138.107 77.024C138.239 77.648 138.293 78.242 138.269 78.806H131.303C131.291 79.214 131.339 79.604 131.447 79.976C131.555 80.336 131.729 80.66 131.969 80.948C132.209 81.224 132.515 81.446 132.887 81.614C133.259 81.782 133.697 81.866 134.201 81.866C134.849 81.866 135.377 81.716 135.785 81.416C136.205 81.116 136.481 80.66 136.613 80.048H138.125ZM144.145 85.466H145.045C145.225 85.466 145.369 85.418 145.477 85.322C145.585 85.238 145.669 85.124 145.729 84.98C145.801 84.836 145.849 84.668 145.873 84.476C145.897 84.296 145.909 84.11 145.909 83.918V80.642C145.909 80.222 145.969 79.868 146.089 79.58C146.221 79.28 146.371 79.034 146.539 78.842C146.707 78.65 146.875 78.506 147.043 78.41C147.223 78.314 147.367 78.254 147.475 78.23V78.176C147.367 78.164 147.223 78.116 147.043 78.032C146.875 77.948 146.707 77.816 146.539 77.636C146.371 77.444 146.221 77.198 146.089 76.898C145.969 76.598 145.909 76.22 145.909 75.764V72.506C145.909 72.302 145.897 72.11 145.873 71.93C145.849 71.738 145.801 71.57 145.729 71.426C145.669 71.27 145.585 71.15 145.477 71.066C145.369 70.97 145.225 70.922 145.045 70.922H144.145V69.842H145.405C145.633 69.842 145.861 69.896 146.089 70.004C146.317 70.1 146.521 70.25 146.701 70.454C146.893 70.646 147.049 70.892 147.169 71.192C147.289 71.48 147.349 71.816 147.349 72.2V75.476C147.349 75.8 147.391 76.094 147.475 76.358C147.559 76.622 147.667 76.85 147.799 77.042C147.943 77.222 148.105 77.36 148.285 77.456C148.465 77.552 148.651 77.6 148.843 77.6V78.824C148.651 78.824 148.465 78.878 148.285 78.986C148.105 79.082 147.943 79.226 147.799 79.418C147.667 79.598 147.559 79.82 147.475 80.084C147.391 80.336 147.349 80.618 147.349 80.93V84.188C147.349 84.572 147.289 84.908 147.169 85.196C147.049 85.496 146.893 85.742 146.701 85.934C146.521 86.138 146.317 86.288 146.089 86.384C145.861 86.492 145.633 86.546 145.405 86.546H144.145V85.466Z" fill="#FFFBF7"/>
</svg>
